<svg width="51" height="51" viewBox="0 0 51 51" fill="none" xmlns="http://www.w3.org/2000/svg">
<path fill-rule="evenodd" clip-rule="evenodd" d="M25.125 50.25C28.4245 50.25 31.6916 49.6001 34.7399 48.3375C37.7882 47.0748 40.558 45.2241 42.8911 42.8911C45.2241 40.558 47.0748 37.7882 48.3375 34.7399C49.6001 31.6916 50.25 28.4245 50.25 25.125C50.25 21.8255 49.6001 18.5584 48.3375 15.5101C47.0748 12.4618 45.2241 9.69201 42.8911 7.35894C40.558 5.02587 37.7882 3.17518 34.7399 1.91253C31.6916 0.649877 28.4245 -4.91658e-08 25.125 0C18.4614 9.92949e-08 12.0708 2.64709 7.35894 7.35894C2.64709 12.0708 0 18.4614 0 25.125C0 31.7886 2.64709 38.1792 7.35894 42.8911C12.0708 47.6029 18.4614 50.25 25.125 50.25ZM24.4773 35.2867L38.4357 18.5367L34.1477 14.9633L22.1435 29.3655L15.932 23.1513L11.9846 27.0987L20.3596 35.4737L22.5204 37.6345L24.4773 35.2867Z" fill="#B095FE"/>
</svg>
