<svg width="500" height="500" viewBox="0 0 500 500" fill="none" xmlns="http://www.w3.org/2000/svg">
<path opacity="0.18" d="M79.05 215.3C95.93 199.51 113.58 183.94 125.21 163.93C135.84 145.73 141.32 124.2 155.91 108.95C167.42 96.92 183.27 90.16 199.22 85.52C240.84 73.45 286.69 74.21 326.64 90.89C366.59 107.58 400.14 140.76 414.11 181.81C421.8 204.4 423.66 228.87 433.34 250.69C441.51 269.1 455.12 285.34 459.27 305.07C466.38 338.9 442.44 373.11 411.85 389.2C381.26 405.29 345.48 407.38 310.95 409.02C247.72 412.02 182.92 414.44 121.05 398.78C92.93 391.67 58.41 381.52 38.52 359.15C23.03 341.71 27.89 325.08 29.5 303.73C32.37 265.43 51.68 240.88 79.06 215.28L79.05 215.3Z" fill="#C7D36F"/>
<path d="M237.22 142.57C237.22 142.57 228.32 150.32 228.4 161.58C228.48 172.85 227.8 203.01 227.34 212.67C226.88 222.33 228.56 236.03 232.28 238.15C236 240.27 258.9 244.11 272.53 241.48C286.16 238.84 287.99 230.11 287.99 219.8C287.99 209.49 288.9 170.98 288.9 163.72C288.9 156.46 287.22 143.15 274.28 138.51C266.41 135.75 247.1 134.93 237.22 142.57Z" fill="#231F20"/>
<path d="M270.88 198.6L272.03 223.34C272.03 223.34 267.96 229.74 260.23 228.88C248.29 227.56 248.81 224.01 248.81 224.01C248.81 224.01 248.81 206.14 248.33 202.14" fill="#C14834"/>
<path d="M268.02 206.65L270.78 201.67L248.36 204.14C248.54 205.67 248.66 209.23 248.73 213.03C255.86 215.13 263.55 212.59 268.02 206.65Z" fill="#AD7862"/>
<path d="M288.27 381.23C288.27 381.23 270.24 394.21 251.46 392.26C200.82 387.09 210.61 371.04 210.61 371.04C210.61 371.04 220.38 237.45 226.14 232.47C228.53 230.4 230.35 229.41 246.27 226.38C255.02 224.71 259.51 223.62 271.59 225.83C273.36 226.15 274.96 226.43 276.39 226.67C279.82 227.3 283.27 227.74 286.75 228.01H287.65V236.92L287.75 266.27L287.88 299.09L288.04 344.93L288.27 381.24V381.23Z" fill="#C7D36F"/>
<path d="M288.12 344.99C287.81 345.5 287.44 345.98 287.04 346.43C285.66 347.83 284.03 348.96 282.23 349.76C273.62 353.91 263.82 354.74 254.27 354.96C242.94 355.22 231.63 354.7 220.32 354.15C218.37 354.07 216.25 353.91 214.86 352.53C213.47 351.15 213.31 348.92 213.27 346.93V339.97C213.17 338.4 213.4 336.83 213.96 335.37C215.63 331.74 280.03 337.04 280.41 333.25C280.65 330.88 282.06 278.01 286.87 262.62C286.69 263.24 287.34 264.92 287.88 266.4L288.11 345.01L288.12 344.99Z" fill="url(#paint0_linear_2_178)"/>
<path d="M237.25 160.27C237.25 160.27 238.24 191.95 247.46 202.85C257.19 214.36 270.95 216.82 276.43 205.39C286.29 184.82 285.73 179.57 286.07 171.67C286.94 151.1 255.49 133.44 237.25 160.26V160.27Z" fill="#C14834"/>
<path d="M336.27 331.49C336.27 331.49 303.61 318.92 299 317.26C296.36 316.32 291.71 310.72 287.99 299.14C285.15 290.38 282.86 278.16 282.35 261.94C281.86 245.99 282.75 237.48 283.94 232.96C284.91 229.35 286.05 228.28 286.83 228.02C287.12 227.9 287.44 227.9 287.73 228.02C301.68 234.27 310.54 297.88 310.54 297.88L341.95 317.45C345.94 319.19 336.28 331.48 336.28 331.48L336.27 331.49Z" fill="#C7D36F"/>
<path d="M276.41 220.76L276.61 226.51C276.68 227.43 276.24 228.32 275.46 228.81L259.88 237.49C259.29 237.81 258.57 237.81 257.98 237.49L242.43 229.72C241.66 229.31 241.17 228.52 241.14 227.65L241.28 221.54C241.17 220.31 242.01 219.21 243.23 219L273.97 218.34C275.24 218.26 276.34 219.22 276.42 220.48C276.42 220.57 276.42 220.66 276.42 220.75L276.41 220.76Z" fill="#C7D36F"/>
<path d="M276.27 220.425L276.47 226.175C276.54 227.095 276.1 227.985 275.32 228.475L259.74 237.155C259.15 237.475 258.43 237.475 257.84 237.155L242.29 229.385C241.52 228.975 241.03 228.185 241 227.315L241.14 221.205C241.03 219.975 241.87 218.875 243.09 218.665L273.83 218.005C275.1 217.925 276.2 218.885 276.28 220.145C276.28 220.235 276.28 220.325 276.28 220.415L276.27 220.425Z" fill="url(#paint1_linear_2_178)"/>
<path d="M266.58 167.18C267.14 168.26 267.04 169.83 268.09 170.49C268.52 170.71 269 170.84 269.48 170.85C271.24 171.14 273.05 171.07 274.79 170.67C276.57 170.24 277.93 168.79 278.24 166.99C278.79 169.57 280.56 171.72 282.99 172.74C283.81 173 284.59 173.39 285.29 173.89C286.35 174.83 286.44 176.42 286.51 177.84C286.63 182.29 286.12 187.38 286.97 191.73C288.24 190.43 288.26 187.25 288.47 185.49C288.9 181.84 289.04 178.17 288.9 174.5C288.65 167.25 287.5 158.13 281.74 153.04C279.95 151.43 277.71 150.41 275.32 150.09C264.05 148.52 269.65 139.82 253.84 145.19C238.04 150.55 231.97 159.88 234.11 173.76C234.55 176.81 235.7 188.55 239.7 189.7C241.2 190.14 242 188.65 242.44 187.4C243.8 183.21 244.57 179.71 247.04 175.89C249.34 172.23 252.59 168.34 256.91 168.37C258.65 168.37 260.36 169.07 262.07 169.13C263.78 169.19 265.83 168.31 266.11 166.6C266.3 166.77 266.45 166.96 266.57 167.19L266.58 167.18Z" fill="#231F20"/>
<path d="M240.92 180.4C240.92 180.4 240.4 175.62 235.71 177.68C231.01 179.74 235.42 188.04 237.25 190.34C239.08 192.64 242.6 191.92 242.6 191.92" fill="#C14834"/>
<path d="M228.65 230.78L223.17 255.29L219.37 272.31L218.97 272.91C215.84 277.51 195.45 306.18 180.83 293.98C164.97 280.72 150.27 234.73 150.27 234.73C151.13 232.58 152.64 230.74 154.59 229.48C157.57 227.55 160.9 226.21 164.4 225.56C164.4 225.56 190.69 266.8 192.21 266.37C193.73 265.94 211.26 247.06 215.23 242.37C219.2 237.69 228.66 230.77 228.66 230.77L228.65 230.78Z" fill="#C7D36F"/>
<path d="M341.91 317.53L339.11 325.01L303.6 299.9C303.6 299.9 291.58 249.01 287.74 236.98C287.52 236.12 287.19 235.29 286.77 234.51C285.94 233.8 284.96 233.28 283.92 232.98C280.11 231.73 276.23 230.72 272.3 229.98L276.39 226.67C279.82 227.3 283.27 227.74 286.75 228.01C287.04 227.89 287.36 227.89 287.65 228.01C301.6 234.26 310.46 297.87 310.46 297.87L341.91 317.55V317.53Z" fill="url(#paint2_linear_2_178)"/>
<path d="M336 318.59C335.16 319.18 334.42 319.9 333.8 320.73C332.96 321.63 332.35 322.73 332.02 323.92C331.81 325.22 332.07 326.55 332.75 327.68C333.42 328.8 334.23 329.83 335.16 330.74C335.39 331.06 335.75 331.27 336.14 331.32C336.52 331.24 336.84 331.01 337.04 330.68C337.83 329.66 338.57 328.6 339.34 327.54L341.93 323.83C342.53 323.08 342.98 322.21 343.24 321.27C343.54 319.81 343.12 317.73 341.55 317.41C339.63 317.18 337.68 317.6 336.01 318.58L336 318.59Z" fill="#231F20"/>
<path d="M334.6 325.28C334.6 328.1 337.07 330.31 339.59 331.58C342.11 332.85 344.93 333.58 347.13 335.36C348.88 336.76 350.11 338.74 351.94 340.04C353.77 341.34 356.67 341.66 357.99 339.87C359.04 338.44 358.72 336.21 360.07 335.06C361.43 333.91 363.71 334.75 365.47 335.47C368.69 336.78 372.2 337.25 375.66 336.84C376.64 336.77 377.59 336.47 378.45 335.98C380.3 334.75 380.67 332.01 379.77 329.97C378.72 327.99 377.08 326.39 375.09 325.37C367.64 320.94 358.89 320.11 350.39 319.97C345.73 319.87 334.52 317.12 334.6 325.29V325.28Z" fill="#C14834"/>
<path d="M322.24 337.1H399.72C401.78 337.1 403.45 338.77 403.45 340.83C403.45 342.89 401.78 344.56 399.72 344.56H322.24C320.18 344.56 318.51 342.89 318.51 340.83C318.51 338.77 320.18 337.1 322.24 337.1Z" fill="#C7D36F"/>
<path d="M435.31 344.2H367.56L385.38 295.86C386.63 292.49 389.84 290.24 393.44 290.23H447.66C450.57 290.23 452.92 292.6 452.92 295.52C452.92 296.13 452.81 296.74 452.6 297.31L435.32 344.2H435.31Z" fill="#C7D36F"/>
<path d="M322.24 337.1H399.72C401.78 337.1 403.45 338.77 403.45 340.83C403.45 342.89 401.78 344.56 399.72 344.56H322.24C320.18 344.56 318.51 342.89 318.51 340.83C318.51 338.77 320.18 337.1 322.24 337.1Z" fill="url(#paint3_linear_2_178)"/>
<path d="M435.31 344.2H367.56L385.38 295.86C386.63 292.49 389.84 290.24 393.44 290.23H447.66C450.57 290.23 452.92 292.6 452.92 295.52C452.92 296.13 452.81 296.74 452.6 297.31L435.32 344.2H435.31Z" fill="url(#paint4_linear_2_178)"/>
<path d="M441.35 344.2H373.6L391.42 295.86C392.67 292.49 395.88 290.24 399.48 290.23H453.69C456.59 290.23 458.95 292.58 458.95 295.49C458.95 296.11 458.84 296.73 458.63 297.31L441.37 344.2H441.35Z" fill="url(#paint5_linear_2_178)"/>
<path d="M220.84 256.6L219.38 272.32L218.98 272.92C215.85 277.52 195.46 306.19 180.84 293.99C164.98 280.73 150.28 234.74 150.28 234.74C151.14 232.59 152.65 230.75 154.6 229.49L157.06 236.87C157.06 236.87 175.89 290.17 186.9 288.04C196.23 286.23 220.84 256.6 220.84 256.6Z" fill="url(#paint6_linear_2_178)"/>
<path d="M139.4 180.61C139.4 180.61 158.24 174.21 171.03 177.77C183.82 181.33 183.11 208.68 183.11 208.68C183.11 208.68 182.4 252.42 184.53 258.43C186.66 264.45 185.24 288.64 189.51 294.33L146.15 293.62C146.15 293.62 147.57 235.34 147.57 227.52C147.57 219.7 147.57 194.82 143.31 189.85C139.05 184.88 129.5 184.16 129.5 184.16L139.4 180.6V180.61Z" fill="#C7D36F"/>
<path d="M139.4 180.61C139.4 180.61 158.24 174.21 171.03 177.77C183.82 181.33 183.11 208.68 183.11 208.68C183.11 208.68 182.4 252.42 184.53 258.43C186.66 264.45 185.24 288.64 189.51 294.33L146.15 293.62C146.15 293.62 147.57 235.34 147.57 227.52C147.57 219.7 147.57 194.82 143.31 189.85C139.05 184.88 129.5 184.16 129.5 184.16L139.4 180.6V180.61Z" fill="url(#paint7_linear_2_178)"/>
<path d="M141.59 211C144.27 209.67 147.44 209.77 150.03 211.28C151.12 211.88 151.98 212.82 152.49 213.95C152.82 214.93 152.94 215.96 152.85 216.99C152.66 221.42 151.36 225.74 149.07 229.55C148.64 230.46 147.89 231.19 146.98 231.61C146.31 231.81 145.59 231.81 144.92 231.61C142.26 230.8 140.07 228.89 138.89 226.37C136.39 221.31 135.82 213.96 141.59 211.01V211Z" fill="#C14834"/>
<path opacity="0.34" d="M359.16 237.93C383.637 237.93 403.48 218.087 403.48 193.61C403.48 169.133 383.637 149.29 359.16 149.29C334.683 149.29 314.84 169.133 314.84 193.61C314.84 218.087 334.683 237.93 359.16 237.93Z" fill="#C7D36F"/>
<path d="M336.51 173.74V209.51H385.56" stroke="white" stroke-width="1.27" stroke-miterlimit="10"/>
<path d="M353.94 184.51H345.58V208.98H353.94V184.51Z" fill="white"/>
<path d="M367.26 190.58H358.9V208.98H367.26V190.58Z" fill="white"/>
<path d="M379.7 174.52H371.34V208.98H379.7V174.52Z" fill="white"/>
<path opacity="0.34" d="M176.5 164.72C200.977 164.72 220.82 144.877 220.82 120.4C220.82 95.9228 200.977 76.08 176.5 76.08C152.023 76.08 132.18 95.9228 132.18 120.4C132.18 144.877 152.023 164.72 176.5 164.72Z" fill="#C7D36F"/>
<path d="M172.32 118.18C170.93 117.76 169.56 117.26 168.22 116.68C166.88 116.1 165.62 115.32 164.5 114.38C163.4 113.45 162.49 112.32 161.81 111.05C161.08 109.6 160.72 107.98 160.76 106.35C160.74 104.77 161.06 103.2 161.69 101.75C162.28 100.42 163.13 99.21 164.2 98.22C165.27 97.23 166.52 96.44 167.88 95.92C169.3 95.38 170.8 95.07 172.31 95V90.71H175.19V95.03C176.18 95.07 177.17 95.19 178.15 95.39C179.18 95.59 180.19 95.89 181.15 96.29C182.13 96.69 183.06 97.2 183.94 97.79C184.8 98.38 185.57 99.09 186.24 99.88L182.95 102.4C182.09 101.12 180.89 100.09 179.5 99.43C178.16 98.79 176.7 98.44 175.22 98.38V114.88C176.74 115.4 178.22 116.03 179.69 116.64C181.1 117.27 182.41 118.09 183.58 119.09C184.72 120.07 185.65 121.26 186.33 122.6C187.06 124.14 187.42 125.83 187.37 127.54C187.4 129.12 187.08 130.69 186.44 132.14C185.85 133.46 184.99 134.63 183.92 135.59C182.78 136.58 181.47 137.36 180.05 137.89C178.52 138.45 176.9 138.76 175.26 138.79V143.09H172.38V138.83C169.84 138.79 167.35 138.16 165.11 136.97C163.03 135.87 161.2 134.34 159.75 132.48L163.2 130.09C163.7 130.98 164.37 131.76 165.18 132.39C165.95 133.01 166.78 133.55 167.67 134C168.48 134.43 169.33 134.76 170.21 134.99C170.93 135.19 171.67 135.31 172.42 135.32L172.33 118.17L172.32 118.18ZM172.32 98.36C170.35 98.4 168.47 99.18 167.05 100.55C165.59 101.99 164.81 103.98 164.9 106.03C164.8 107.93 165.54 109.78 166.94 111.08C168.49 112.4 170.34 113.34 172.33 113.81V98.36H172.32ZM175.2 135.37C176.13 135.32 177.04 135.15 177.93 134.86C178.86 134.56 179.72 134.08 180.46 133.44C181.25 132.77 181.89 131.93 182.32 130.99C182.83 129.81 183.08 128.53 183.03 127.25C183.06 125.3 182.26 123.42 180.82 122.11C179.21 120.64 177.28 119.55 175.19 118.93V135.37H175.2Z" fill="white"/>
<path d="M39.42 349.53H447.73V411.29C447.73 418.99 441.49 425.23 433.79 425.23H53.35C45.65 425.23 39.41 418.99 39.41 411.29V349.53H39.42Z" fill="#C7D36F"/>
<path d="M39.42 348.9H447.73V410.66C447.73 418.36 441.49 424.6 433.79 424.6H53.35C45.65 424.6 39.41 418.36 39.41 410.66V348.9H39.42Z" fill="url(#paint8_linear_2_178)"/>
<path d="M467.48 344.2H19.69C16.4536 344.2 13.83 346.824 13.83 350.06V350.07C13.83 353.306 16.4536 355.93 19.69 355.93H467.48C470.716 355.93 473.34 353.306 473.34 350.07V350.06C473.34 346.824 470.716 344.2 467.48 344.2Z" fill="#C7D36F"/>
<defs>
<linearGradient id="paint0_linear_2_178" x1="307.68" y1="353.54" x2="233.28" y2="293.36" gradientUnits="userSpaceOnUse">
<stop/>
<stop offset="0.12" stop-opacity="0.75"/>
<stop offset="1" stop-opacity="0"/>
</linearGradient>
<linearGradient id="paint1_linear_2_178" x1="253.67" y1="254.135" x2="259.36" y2="220.365" gradientUnits="userSpaceOnUse">
<stop/>
<stop offset="0.12" stop-opacity="0.75"/>
<stop offset="1" stop-opacity="0"/>
</linearGradient>
<linearGradient id="paint2_linear_2_178" x1="351.43" y1="245.97" x2="258.56" y2="309.47" gradientUnits="userSpaceOnUse">
<stop/>
<stop offset="0.12" stop-opacity="0.75"/>
<stop offset="1" stop-opacity="0"/>
</linearGradient>
<linearGradient id="paint3_linear_2_178" x1="318.51" y1="340.82" x2="403.45" y2="340.82" gradientUnits="userSpaceOnUse">
<stop/>
<stop offset="0.12" stop-opacity="0.75"/>
<stop offset="1" stop-opacity="0"/>
</linearGradient>
<linearGradient id="paint4_linear_2_178" x1="456.95" y1="275.13" x2="342.51" y2="383.88" gradientUnits="userSpaceOnUse">
<stop/>
<stop offset="0.12" stop-opacity="0.75"/>
<stop offset="1" stop-opacity="0"/>
</linearGradient>
<linearGradient id="paint5_linear_2_178" x1="462.99" y1="275.13" x2="348.55" y2="383.88" gradientUnits="userSpaceOnUse">
<stop/>
<stop offset="0.12" stop-opacity="0.75"/>
<stop offset="1" stop-opacity="0"/>
</linearGradient>
<linearGradient id="paint6_linear_2_178" x1="211.24" y1="321.05" x2="173.93" y2="211.6" gradientUnits="userSpaceOnUse">
<stop/>
<stop offset="0.12" stop-opacity="0.75"/>
<stop offset="1" stop-opacity="0"/>
</linearGradient>
<linearGradient id="paint7_linear_2_178" x1="107.65" y1="255.8" x2="175.88" y2="233.78" gradientUnits="userSpaceOnUse">
<stop offset="0.02" stop-color="white" stop-opacity="0"/>
<stop offset="0.58" stop-color="white" stop-opacity="0.39"/>
<stop offset="1" stop-color="white"/>
</linearGradient>
<linearGradient id="paint8_linear_2_178" x1="247.4" y1="206.38" x2="241.69" y2="465.2" gradientUnits="userSpaceOnUse">
<stop/>
<stop offset="0.12" stop-opacity="0.75"/>
<stop offset="1" stop-opacity="0"/>
</linearGradient>
</defs>
</svg>
