<svg width="500" height="500" viewBox="0 0 500 500" fill="none" xmlns="http://www.w3.org/2000/svg">
<path d="M243 432.1L21.9 301.5C14.9 297.5 8.79998 291 15.7 286.8L237.6 158.9C240.9 156.8 246 155.5 249.4 157.5L481.5 292.2C488.5 296.3 489.8 307.7 482.8 311.8L272.1 431.9C263.1 437.1 252.1 437.2 243 432.1Z" fill="#FFB7A6"/>
<path d="M401.4 277.7C401.4 277.7 397.8 308.4 414.1 314.4C430.4 320.4 439.1 304.9 439.3 277.7" fill="#124577"/>
<path d="M420.3 288.7C430.793 288.7 439.3 283.775 439.3 277.7C439.3 271.625 430.793 266.7 420.3 266.7C409.807 266.7 401.3 271.625 401.3 277.7C401.3 283.775 409.807 288.7 420.3 288.7Z" fill="#E04F4F"/>
<path d="M425.2 253.3C425.2 253.3 417.8 242.6 421 235.1C421 235.1 423.7 230.3 427.5 229.6C427.5 229.6 427.1 239.8 430.9 238.5C434.7 237.2 430.9 227.9 430.9 227.9C430.9 227.9 434.9 222.5 439.2 222.7C443.5 222.9 439.2 232.2 442.2 230.7C445.2 229.2 442.4 221.2 445.8 220.2C448.9 219.5 452.1 219 455.3 218.7C455.3 218.7 458.5 228 455.3 229.3C452.1 230.6 447.3 231.1 449.6 233.1C451.9 235.1 458.3 232.8 458.3 232.8C458.3 232.8 458.7 238 456.5 240.3C454.3 242.6 441.4 237.6 443.7 242.1C446 246.6 454.5 244.3 454.5 244.3C454.5 244.3 450.1 250.5 445 253.4C439.9 256.2 425.2 253.3 425.2 253.3Z" fill="#8CCC00"/>
<path d="M426.9 280.2C426.9 280.2 421.5 274.9 422.6 270.3C422.6 270.3 423.6 267.3 425.7 266.5C425.7 266.5 426.6 272.3 428.6 271.2C430.6 270.1 427.5 265.2 427.5 265.2C427.5 265.2 429.2 261.7 431.7 261.3C434.2 260.9 432.7 266.7 434.3 265.5C435.9 264.3 433.4 260.1 435.2 259.2C436.9 258.5 438.6 257.8 440.4 257.3C440.4 257.3 443.2 262.2 441.5 263.3C439.8 264.4 437.2 265.2 438.7 266.1C440.2 267 443.6 265 443.6 265C443.6 265 444.4 267.9 443.4 269.4C442.4 270.9 434.5 269.4 436.3 271.8C438.1 274.2 442.7 271.9 442.7 271.9C441.6 274.2 440.1 276.3 438.3 278.1C435.6 280.2 426.9 280.2 426.9 280.2Z" fill="#8CCC00"/>
<path d="M407.1 268.7C407.1 268.7 394 269.2 389.5 262.5C389.5 262.5 386.9 257.7 388.3 254.1C388.3 254.1 396.7 259.9 397.6 256C398.5 252.1 388.6 250.3 388.6 250.3C388.6 250.3 386.2 244.1 388.7 240.5C391.2 236.9 396.7 245.6 397.1 242.2C397.5 238.8 389.2 236.9 390.2 233.6C391.3 230.6 392.6 227.6 394 224.8C394 224.8 403.6 227.1 403 230.5C402.4 233.9 400.2 238.2 403.2 237.4C406.2 236.6 407.6 229.9 407.6 229.9C407.6 229.9 412.2 232.4 413 235.4C413.8 238.4 402.6 246.6 407.6 247.1C412.6 247.6 415.3 239.2 415.3 239.2C415.3 239.2 418.2 246.2 417.9 252.1C417.5 257.8 407.1 268.7 407.1 268.7Z" fill="#8CCC00"/>
<path d="M452.5 222.7C451.1 223.9 449.7 225.1 448.3 226.3C448.4 224.8 448.6 223.3 448.8 221.9C448.9 221.1 447.7 220.8 447.6 221.6C447.3 223.6 447.1 225.5 446.9 227.5C443.2 230.7 439.6 234.1 436.2 237.6C435.9 235.1 435.8 232.6 436 230.1C436 229.3 434.8 229.3 434.8 230.1C434.6 233 434.8 235.9 435.2 238.8C433 241.1 431 243.6 429.1 246.1C427 243.2 425.5 239.8 424.9 236.2C424.8 235.4 423.6 235.8 423.7 236.5C424.4 240.3 426 243.8 428.3 246.9L428.4 247C423 254.7 419.2 263.3 418.9 273.3C418.9 273.6 419.3 273.9 419.6 273.8C419.9 273.8 420.1 273.5 420.1 273.3C420.4 263.7 424 255.3 429.2 247.9C434.2 249.2 439.3 249.7 444.5 249.4C445.3 249.3 445.3 248.1 444.5 248.2C439.6 248.5 434.7 248.1 430 246.9C432.6 243.4 435.5 240 438.6 236.9H438.7C441.6 237.2 444.5 237.4 447.3 237.5C449.2 237.6 451 237.7 452.7 236.9C453.4 236.5 452.8 235.5 452.1 235.8C450.1 236.8 447.3 236.3 445.2 236.2C443.4 236.1 441.5 235.9 439.7 235.8C444.1 231.4 448.8 227.4 453.4 223.5C454 223.1 453.1 222.2 452.5 222.7Z" fill="#124577"/>
<path d="M414.2 246.7C414.3 246.4 414.1 246 413.8 245.9C413.5 245.8 413.1 246 413 246.3C411.7 250.9 408.9 254.8 405.1 257.7C403.7 253.8 402.4 249.9 401.3 245.9C404.3 242.9 406.7 239.5 408.5 235.7C408.8 235 407.8 234.4 407.4 235.1C405.7 238.6 403.5 241.8 400.8 244.6C399.5 240.1 398.4 235.5 397.4 230.8C397.2 230 396 230.4 396.2 231.1C397.5 237.4 399.1 243.7 401.1 249.8C398.8 249.3 396.5 248.6 394.4 247.6C393.7 247.3 393.1 248.3 393.8 248.7C396.3 249.9 398.9 250.7 401.6 251.2C402.9 255.3 404.4 259.3 405.9 263.2C402.2 263.1 398.6 262.3 395.2 260.9C394.5 260.6 393.8 261.7 394.6 262C398.3 263.6 402.4 264.5 406.4 264.5C408.4 269.4 410.6 274.3 412.9 279.1C413.3 279.8 414.3 279.2 414 278.5C410.8 272.1 408 265.6 405.5 258.9C409.7 256 412.8 251.7 414.2 246.7Z" fill="#124577"/>
<path d="M436.6 262.7L433.2 268.4C432.8 267.8 432.4 267.2 432.1 266.6C431.8 265.9 430.7 266.5 431 267.2C431.4 268 431.9 268.8 432.4 269.4C431.2 271.5 429.9 273.5 428.7 275.6C428.3 275.2 428 274.7 427.9 274.1C427.8 273.3 426.6 273.3 426.7 274.1C426.8 275.1 427.3 276 428.1 276.6C426.6 279.2 425 281.7 423.5 284.3C423.3 284.6 423.4 285 423.7 285.2C424 285.4 424.4 285.3 424.6 285C426.6 281.6 428.6 278.2 430.7 274.8C431.7 274.8 432.7 274.7 433.7 274.3C434.5 274.1 434.1 272.9 433.4 273.1C432.8 273.3 432.1 273.4 431.5 273.5L437.6 263.2C437.7 262.9 437.5 262.5 437.1 262.5C436.9 262.5 436.7 262.6 436.6 262.7Z" fill="#124577"/>
<path d="M155.7 267.2V230.5L188.6 212.1V248.5L155.7 267.2Z" fill="#FFB72F"/>
<path opacity="0.1" d="M155.7 267.2V230.5L188.6 212.1V248.5L155.7 267.2Z" fill="#124577"/>
<path d="M155.7 230.5L123.7 212.1C123.7 212.1 122.8 249.1 123.7 249.7C124.6 250.3 155.7 267.2 155.7 267.2V230.5Z" fill="#FFB72F"/>
<path d="M123.7 212.1L155.7 192.6L188.5 212.1L155.7 230.5L123.7 212.1Z" fill="#FFB72F"/>
<path opacity="0.4" d="M123.7 212.1L155.7 192.6L188.5 212.1L155.7 230.5L123.7 212.1Z" fill="#FFE5D0"/>
<path d="M135.9 204.7L169.2 223V242.1L178.7 237.3V217.6L145.5 198.9L135.9 204.7Z" fill="#FFE5D0"/>
<path d="M92.8 187.4C94.9 186.3 97 186.3 98.6 187.4C101.8 189.8 101.8 196.2 98.6 201.8C97.3 204.3 95.3 206.4 92.8 207.7C90.7 208.8 88.6 208.8 87 207.7C83.8 205.3 83.8 198.9 87 193.3C88.3 190.9 90.3 188.8 92.8 187.4Z" fill="#C7D36F"/>
<path d="M92.7 153C101.9 148.3 111.1 147.9 118.1 153.1C119.1 153.9 119.1 155.9 118.1 157.7C117.7 158.5 117 159.1 116.3 159.6C115.7 160 115 160 114.5 159.6C108.5 155.2 100.6 155.5 92.7 159.5C84.8 163.5 77 171.3 71 181.8C70.6 182.6 69.9 183.3 69.2 183.7C68.6 184.1 67.9 184.1 67.4 183.7C66.4 182.9 66.4 180.9 67.4 179.1C74.3 166.8 83.5 157.7 92.7 153Z" fill="#C7D36F"/>
<path d="M92.6 135.2C105.3 128.7 118 128.3 127.9 135.6C129.5 136.8 128.4 140.9 126.1 142.1C125.5 142.5 124.8 142.5 124.3 142.1C115.4 135.6 104.1 135.9 92.7 141.7C81.3 147.5 70 158.8 61.1 174.4C60.7 175.2 60 175.8 59.3 176.3C58.7 176.7 58 176.7 57.5 176.3C56.5 175.6 56.5 173.5 57.5 171.7C67.2 154.4 79.9 141.7 92.6 135.2Z" fill="#C7D36F"/>
<path d="M92.7 169.6C98.5 166.6 104.3 166.4 108.7 169.7C110.3 170.9 109.2 175 106.9 176.2C106.3 176.6 105.6 176.6 105.1 176.2C101.7 173.7 97.2 173.9 92.8 176.2C88.4 178.5 83.9 182.9 80.5 188.9C80.1 189.7 79.4 190.3 78.7 190.8C78.1 191.2 77.4 191.2 76.9 190.8C75.9 190 75.9 188 76.9 186.2C81.1 178.3 86.9 172.6 92.7 169.6Z" fill="#C7D36F"/>
<path d="M244.6 65.4C266.5 79.1 321.6 111 340.4 122.5C344.7 125.1 345.3 129 345.4 134V367.2C343 370 338.9 370.6 335.8 368.7L243.3 316.4C238.7 313.7 235.1 310.9 235.1 305.6L235.9 69.6C235.9 64.5 240.3 62.6 244.6 65.4Z" fill="#C7D36F"/>
<path d="M236.1 67.9L266.2 85.3V91.8C266.2 92.9 266.8 93.9 267.7 94.5L291 107.9C292 108.5 293.2 108.1 293.8 107.2C294 106.9 294.1 106.5 294.1 106.2V101.5L337.8 127.1C338.6 127.6 339.2 128.5 339.2 129.5V362.7C339.2 363.7 338.4 364.6 337.3 364.6C337 364.6 336.6 364.5 336.3 364.3L235.1 305.7C234.7 309.4 236.5 313 239.6 315C244.8 318.4 337 370.5 337 370.5C337 370.5 344.3 373.8 346.4 365.1V130.4C346.4 127.3 344.9 124.4 342.4 122.6C338.2 119.5 244.2 64.9 244.2 64.9C244.2 64.9 237.6 61.8 236.1 67.9Z" fill="#124577"/>
<path d="M219 116V137.3C219 137.3 219.6 143.1 225.4 144.4C231.2 145.7 232 138.1 232 138.1V122.3L219 116Z" fill="#E04F4F"/>
<path d="M231.5 124.4L232 146.9C232 146.9 232.6 152.7 238.4 154C244.2 155.3 245 147.7 245 147.7V132L231.5 124.4Z" fill="#F29D40"/>
<path d="M245 132.1V153.4C245 153.4 245.6 159.2 251.4 160.5C257.2 161.8 258 154.2 258 154.2V138.4L245 132.1Z" fill="#E04F4F"/>
<path d="M257.9 139.9V161.2C257.9 161.2 258.5 167 264.3 168.3C270.1 169.6 270.9 162 270.9 162V146.3L257.9 139.9Z" fill="#F29D40"/>
<path d="M270.8 146.4V167.7C270.8 167.7 271.4 173.5 277.2 174.8C283 176.1 283.8 168.5 283.8 168.5V152.7L270.8 146.4Z" fill="#E04F4F"/>
<path d="M283.5 155.1V176.4C283.5 176.4 284.1 182.2 289.9 183.5C295.7 184.8 296.5 177.2 296.5 177.2V161.4L283.5 155.1Z" fill="#F29D40"/>
<path d="M337.8 127C337.8 127 339.2 127.3 339.2 129.6V170.7L305.7 189.9L310.4 160.6L337.8 127Z" fill="#E04F4F"/>
<path opacity="0.4" d="M337.8 127C337.8 127 339.2 127.3 339.2 129.6V170.7L305.7 189.9L310.4 160.6L337.8 127Z" fill="#124577"/>
<path d="M296.4 163.8V183C296.4 183 297 188.8 302.8 190.1C308.6 191.4 309.4 183.8 309.4 183.8L309.1 171.2L296.4 163.8Z" fill="#E04F4F"/>
<path opacity="0.1" d="M219 116V137.3C219 137.3 219.6 143.1 225.4 144.4C231.2 145.7 232 138.1 232 138.1V122.3L219 116Z" fill="#124577"/>
<path opacity="0.1" d="M245 132.1V153.4C245 153.4 245.6 159.2 251.4 160.5C257.2 161.8 258 154.2 258 154.2V138.4L245 132.1Z" fill="#124577"/>
<path opacity="0.1" d="M270.8 146.4V167.7C270.8 167.7 271.4 173.5 277.2 174.8C283 176.1 283.8 168.5 283.8 168.5V152.7L270.8 146.4Z" fill="#124577"/>
<path opacity="0.1" d="M296.4 163.8V183C296.4 183 297 188.8 302.8 190.1C308.6 191.4 309.4 183.8 309.4 183.8L309.1 171.2L296.4 163.8Z" fill="#124577"/>
<path d="M206 109.7V132.1C206 132.1 206.6 137.9 212.4 139.2C218.2 140.5 219 132.9 219 132.9V117.1L206 109.7Z" fill="#F29D40"/>
<path opacity="0.1" d="M231.5 124.4L232 146.9C232 146.9 232.6 152.7 238.4 154C244.2 155.3 245 147.7 245 147.7V132L231.5 124.4Z" fill="#124577"/>
<path opacity="0.1" d="M257.9 139.9V161.2C257.9 161.2 258.5 167 264.3 168.3C270.1 169.6 270.9 162 270.9 162V146.3L257.9 139.9Z" fill="#124577"/>
<path opacity="0.1" d="M283.5 155.1V176.4C283.5 176.4 284.1 182.2 289.9 183.5C295.7 184.8 296.5 177.2 296.5 177.2V161.4L283.5 155.1Z" fill="#124577"/>
<path opacity="0.1" d="M206 109.7V132.1C206 132.1 206.6 137.9 212.4 139.2C218.2 140.5 219 132.9 219 132.9V117.1L206 109.7Z" fill="#124577"/>
<path d="M283.5 156.2L314.2 112.9L326 120.2L296.4 163.8" fill="#F29D40"/>
<path d="M257.9 141L289.2 98.2L300.9 105.4L270.8 148.7" fill="#F29D40"/>
<path d="M231.9 125.1L260.9 82.3L275.3 90.4L245 133.1" fill="#F29D40"/>
<path d="M206 109.7L236.1 67.9001L247.8 74.7001L218.9 117.3" fill="#F29D40"/>
<path d="M270.8 148.6L300.9 105.4L314.2 112.9L283.5 156.2" fill="#E04F4F"/>
<path d="M245 133.1L275.3 90.4001L289.2 98.2001L257.9 140.9" fill="#E04F4F"/>
<path d="M218.9 117.3L247.8 74.7L260.9 82.3L231.9 125.1" fill="#E04F4F"/>
<path d="M309.1 171.2L337.8 127L326 120.2L296.4 163.8" fill="#E04F4F"/>
<path d="M259.2 225.6C259.2 225.6 264 215.9 263.2 215C262.4 214.1 259.7 218 259.7 218C259.7 218 259.7 208 258.8 207.9C257.9 207.8 257.5 214.1 257.5 214.1C257.5 214.1 256.6 206.7 255.1 206.7C253.6 206.7 255.1 213.8 255.1 213.8C255.1 213.8 252.5 209.4 251.7 209.7C250.9 210 253 215.6 253 215.6C253 215.6 250.6 213.6 250.3 214.1C250 214.6 252.8 221.5 254.5 223.2C255.7 224.3 256.7 225.6 257.5 227" fill="#FFE5D0"/>
<path d="M280.5 223.4C281.1 223.9 275.6 221.5 266 245C266 245 263.5 233.8 262.6 226.4C260.1 224.6 257 223.9 254 224.5C253.9 230 253.7 251.3 259.6 254.5C266.5 258.1 273.7 258.6 277.7 249.2C277.8 249.1 290.9 228.5 280.5 223.4Z" fill="#FFB72F"/>
<path opacity="0.3" d="M280.5 223.4C281.1 223.9 275.6 221.5 266 245C266 245 263.5 233.8 262.6 226.4C260.1 224.6 257 223.9 254 224.5C253.9 230 253.7 251.3 259.6 254.5C266.5 258.1 273.7 258.6 277.7 249.2C277.8 249.1 290.9 228.5 280.5 223.4Z" fill="#E04F4F"/>
<path d="M301.5 249.8L302.1 250.7C304.2 242.7 304.6 233.1 300.5 226.1C296.8 224.6 292.8 224.4 292.1 223.6L281.5 223.2C280.4 223.2 279.4 223.6 278.8 224.5C276.1 228.1 269.6 238.1 271.8 247C274.6 258.1 273.7 266.6 273.9 274.7C274.1 282.8 264.2 301.4 265.4 313.4C266.6 325.4 302.1 332.8 303.7 325.8C309.4 300.5 310.3 287.2 305.3 276.2C300.3 265.2 301.5 249.8 301.5 249.8Z" fill="#FFB72F"/>
<path d="M300.6 226C300.6 226 307.7 229 311 243.5C314.3 258 315.8 260.5 302.3 269.3C288.8 278.1 290.3 277 290.3 277C290.3 277 282.5 272.4 284 269.5C285.5 266.6 301.5 259 301 254C300.5 249 293.1 243.5 293.1 243.5" fill="#FFB72F"/>
<path opacity="0.4" d="M299.4 246.2C299.3 245.8 298.8 245.6 298.4 245.8C298.1 245.9 297.9 246.3 297.9 246.6C298.6 248.6 299.2 250.7 299.5 252.8C299.8 256.6 298.2 258.6 295.3 260.6C292.3 262.6 289.1 264.2 285.8 265.6C285.5 265.7 285.3 266.1 285.4 266.4C285.1 266.6 285 266.9 285.1 267.2C286 270.2 287 273.2 289.2 275.5C289.4 275.7 289.6 275.8 289.8 275.7C290 276 290.3 276.2 290.6 276.1C293.7 275.5 296.6 274.2 299.2 272.4C300 271.9 299.2 270.5 298.4 271.1C296 272.8 293.2 274 290.3 274.6C290.3 274.5 290.2 274.5 290.2 274.4C288.2 272.3 287.3 269.6 286.5 266.9C291.2 264.8 296.2 262.6 299.7 258.8C303 255.2 300.6 250.4 299.4 246.2Z" fill="#E04F4F"/>
<path d="M230 251.5C230.6 251.9 339.1 314.5 339.1 314.5L301.5 336.7L190.6 273.9L230 251.5Z" fill="#FFA364"/>
<path d="M285.1 267.2C285.1 267.2 280.5 269.5 278 269.9C275.5 270.3 273.3 268 272.5 269.1C271.7 270.2 276.2 270.7 275.1 271.5C274 272.3 271.2 272.8 270.3 274.5C269.4 276.2 268.4 279.1 270.9 280.8C273.4 282.5 277 279.1 279.4 277.7C281.8 276.3 286.9 272.4 286.9 272.4C286.9 272.4 286.3 268.4 285.1 267.2Z" fill="#FFE5D0"/>
<path d="M301.5 336.7V398.6L339.1 374.9V314.5L301.5 336.7Z" fill="#FFA364"/>
<path opacity="0.4" d="M301.5 336.7V398.6L339.1 374.9V314.5L301.5 336.7Z" fill="#FFE5D0"/>
<path d="M190.6 273.9V331L301.5 398.6V336.7L190.6 273.9Z" fill="#FFA364"/>
<path opacity="0.1" d="M190.6 273.9V331L301.5 398.6V336.7L190.6 273.9Z" fill="#124577"/>
<path d="M283.8 219.7C283.8 219.7 283.7 223.9 282.6 226C281.5 228.1 285.6 228.9 289 227.9C292.4 226.9 290.8 218.9 290.8 218.9" fill="#FFE5D0"/>
<path d="M278.2 207.6C278.2 207.6 274.1 218.9 277.2 220.7C280.3 222.5 288 220.7 288 220.7" fill="#E04F4F"/>
<path d="M277.3 205.2C277.3 205.2 275.8 221.2 284.2 222.6C292.6 224 294.2 207.5 292.5 205.2C290.8 202.9 279.5 201.5 277.3 205.2Z" fill="#FFE5D0"/>
<path d="M288 217.1C287.5 219.1 287.8 221.3 288.9 223.1C292.3 223.9 295.9 223.7 299.3 222.5C303.8 212.2 299.2 196.5 288.4 195.4C277.6 194.3 275.9 200.5 275.3 204.2C274.7 207.9 277.3 207.6 278.4 207.5C287.5 207 289.9 211.3 288 217.1Z" fill="#E04F4F"/>
<path d="M231.8 280.2V265.5L244.9 258.2V272.7L231.8 280.2Z" fill="#FFB72F"/>
<path opacity="0.1" d="M231.8 280.2V265.5L244.9 258.2V272.7L231.8 280.2Z" fill="#124577"/>
<path d="M231.8 265.6L219 258.3C219 258.3 218.6 273.1 219 273.3C219.4 273.5 231.8 280.3 231.8 280.3V265.6Z" fill="#FFB72F"/>
<path d="M219 258.2L231.8 250.4L244.9 258.2L231.8 265.6L219 258.2Z" fill="#FFB72F"/>
<path opacity="0.4" d="M219 258.2L231.8 250.4L244.9 258.2L231.8 265.6L219 258.2Z" fill="#FFE5D0"/>
<path d="M223.9 255.3L237.2 262.6V270.2L241 268.3V260.4L227.7 252.9L223.9 255.3Z" fill="#FFE5D0"/>
<path d="M72.4 226.1C62.2 226.8 62.7 243.3 62 250.2C61.8 251.9 64.5 252.5 64.6 250.8C65.2 245.1 64.8 237.4 68 232.3C69 230.7 70.2 229.2 72.2 229.1C73.4 229.1 74.6 229.5 75.5 230.4C76.4 231.2 76.9 234.4 77 235.3C77.5 238.8 77.6 242.4 77.2 246C77 247.7 79.7 248.3 79.9 246.6C80.5 241.2 81.6 225.5 72.4 226.1Z" fill="#8CCC00"/>
<path d="M87.7 237.2L90.8 242.3L96.9 243.6L92.3 259.5L79.3 251" fill="#E04F4F"/>
<path opacity="0.4" d="M87.7 237.2L90.8 242.3L96.9 243.6L92.3 259.5L79.3 251" fill="#124577"/>
<path d="M56.2 254.6L87.6999 237.2L86.6999 263L62.5999 265.4L56.2 254.6Z" fill="#E04F4F"/>
<path d="M67.4999 258.4L72.3999 307.3L101.8 289.7L96.8999 243.6L67.4999 258.4Z" fill="#F29D40"/>
<path d="M67.5 258.4L64.2 254.6H56.2L52.9 297.4L61.5 301.3L72.4 307.3L67.5 258.4Z" fill="#F29D40"/>
<path opacity="0.1" d="M67.5 258.4L64.2 254.6H56.2L52.9 297.4L61.5 301.3L72.4 307.3L67.5 258.4Z" fill="#124577"/>
<path d="M85.6 234.3C75.4 234.4 74.9 250.9 73.8 257.7C73.5 259.4 76.1 260.1 76.4 258.4C77.3 252.7 77.4 245 80.9 240.2C82.3 238.2 84.8 236.6 87.3 237.8C89.5 239 89.5 241.6 89.7 243.7C90 247.3 89.9 250.9 89.2 254.4C88.9 256.1 91.5 256.9 91.8 255.1C92.8 249.8 94.7 234.2 85.6 234.3Z" fill="#8CCC00"/>
</svg>
