<svg width="165" height="165" viewBox="0 0 165 165" fill="none" xmlns="http://www.w3.org/2000/svg">
<path d="M80.19 136.851L7.25999 93.753C4.94999 92.433 2.93699 90.321 5.21399 88.902L78.408 46.728C79.497 46.035 81.18 45.606 82.302 46.266L158.862 90.684C161.172 92.037 161.601 95.799 159.291 97.152L89.793 136.785C86.823 138.501 83.193 138.501 80.19 136.851Z" fill="#B095FE"/>
<path d="M144.705 78.1769C144.672 78.0119 144.606 77.8469 144.507 77.7149C144.309 77.4839 144.111 77.2859 143.847 77.1539C140.481 74.8769 135.828 74.2499 132.297 76.4609C131.472 76.9559 130.284 78.1109 130.746 79.1999C131.01 79.8269 131.868 80.1899 132.462 80.4539C134.376 81.2789 136.488 81.7079 138.534 82.0379C139.293 82.1699 140.052 82.3019 140.811 82.3679C141.867 82.4669 142.89 82.0049 143.55 81.1799C144.111 80.5199 144.936 79.1669 144.705 78.1769Z" fill="#DD5E57"/>
<path d="M130.647 78.705C130.647 78.705 133.716 81.477 138.996 81.081C144.276 80.685 144.705 78.177 144.705 78.177C144.705 78.177 143.319 95.7 142.626 96.03C141.933 96.36 139.194 97.647 137.907 97.746C136.62 97.845 132.462 96.195 132.363 95.733C132.264 95.271 130.647 78.705 130.647 78.705Z" fill="#C7D36F"/>
<path d="M131.637 53.163C131.472 52.833 130.977 53.13 131.142 53.46C134.772 60.753 135.465 68.97 136.125 76.956C136.158 77.319 136.719 77.319 136.719 76.956C136.026 68.871 135.3 60.555 131.637 53.163Z" fill="#007F68"/>
<path d="M131.175 53.229C131.175 53.229 132.198 57.024 131.142 58.905C130.086 60.786 129.228 61.182 130.482 63.558C131.736 65.934 135.069 66.231 135.3 68.046C135.531 69.861 133.683 56.43 131.175 53.229Z" fill="#007F68"/>
<path d="M142.725 60.06C139.953 65.901 138.369 72.237 138.138 78.705C138.138 79.167 138.831 79.167 138.831 78.705C139.062 72.369 140.613 66.132 143.319 60.423C143.55 60.027 142.923 59.664 142.725 60.06Z" fill="#007F68"/>
<path d="M143.22 61.908C143.22 61.545 143.121 60.786 143.187 60.126C143.055 60.225 142.923 60.291 142.791 60.39C141.405 63.723 139.359 71.577 138.732 73.986C139.557 72.171 142.989 71.94 144.012 69.333C144.441 68.244 144.474 67.023 144.078 65.901C143.55 64.647 143.286 63.294 143.22 61.908Z" fill="#007F68"/>
<path d="M86.427 122.397C94.592 122.397 101.211 119.693 101.211 116.358C101.211 113.023 94.592 110.319 86.427 110.319C78.262 110.319 71.643 113.023 71.643 116.358C71.643 119.693 78.262 122.397 86.427 122.397Z" fill="#5A46AF"/>
<path d="M93.555 73.062H79.728V96.657H93.555V73.062Z" fill="#C9745D"/>
<path d="M78.672 105.072C78.804 105.303 78.837 105.534 78.837 105.798L78.936 121.44C83.292 123.651 88.803 119.625 93.291 117.678C93.159 113.223 92.829 102.267 92.961 100.881C93.159 99.132 100.221 82.401 99.66 79.761C99.099 77.121 81.213 52.536 78.045 53.592C74.877 54.648 78.408 57.783 78.408 60.753C78.408 63.723 86.988 74.877 89.034 78.21C91.08 81.543 89.793 88.506 85.503 88.341C81.213 88.176 80.85 73.689 77.22 73.854C73.59 74.019 76.956 80.652 75.834 89.562C74.91 97.317 77.913 103.62 78.672 105.072Z" fill="#FEC5B2"/>
<path d="M48.378 28.908L43.791 54.45C43.461 56.265 44.121 58.113 45.54 59.301L77.121 86.064C78.705 87.384 81.048 87.219 82.368 85.635C82.797 85.14 83.094 84.513 83.193 83.886L87.054 62.271C87.483 59.796 86.592 57.255 84.711 55.605L52.305 27.489C51.315 26.631 49.797 26.73 48.906 27.72C48.642 28.083 48.444 28.479 48.378 28.908Z" fill="#C7D36F"/>
<path d="M50.457 31.68C50.523 31.746 50.622 31.779 50.688 31.845C50.853 32.01 51.018 32.175 51.117 32.406C51.216 32.571 51.282 32.769 51.282 33L50.919 32.67C50.919 32.571 50.886 32.505 50.82 32.406C50.754 32.307 50.721 32.241 50.622 32.175C50.589 32.142 50.556 32.109 50.523 32.109C50.457 32.076 50.424 32.076 50.358 32.076C50.292 32.076 50.226 32.142 50.193 32.274C50.16 32.406 50.193 32.538 50.226 32.637C50.259 32.769 50.358 32.868 50.457 32.967C50.49 33 50.523 33.033 50.556 33.033C50.589 33.066 50.622 33.066 50.655 33.066C50.721 33.099 50.754 33.066 50.82 33.033L51.183 33.363C51.117 33.495 50.985 33.561 50.886 33.528C50.787 33.528 50.721 33.495 50.622 33.429C50.523 33.363 50.457 33.33 50.391 33.264C50.259 33.132 50.127 33 50.028 32.835C49.929 32.703 49.863 32.538 49.83 32.373C49.797 32.241 49.797 32.076 49.83 31.944C49.83 31.845 49.896 31.746 49.995 31.647C50.094 31.581 50.193 31.581 50.292 31.614C50.358 31.614 50.391 31.647 50.457 31.68Z" fill="white"/>
<path d="M52.833 33.825L53.757 34.65L53.691 34.914L53.13 34.419L53.097 34.683L53.559 35.112L53.526 35.376L53.031 34.947L52.965 35.244L53.526 35.739L53.46 36.003L52.569 35.211L52.833 33.825Z" fill="white"/>
<path d="M48.048 39.996L48.675 40.557L48.312 42.372L47.982 42.075L48.279 40.524L48.015 40.26L48.048 39.996Z" fill="white"/>
<path d="M49.731 41.481C49.797 41.514 49.896 41.58 49.962 41.646C50.127 41.811 50.259 41.976 50.358 42.174C50.424 42.339 50.457 42.537 50.424 42.702C50.391 42.834 50.325 42.933 50.226 42.999C50.094 43.065 49.962 43.098 49.83 43.065C49.665 43.065 49.5 43.032 49.368 42.999L50.292 43.824L50.259 44.055L48.939 42.867L48.972 42.636C49.236 42.702 49.533 42.735 49.797 42.702C49.995 42.669 50.127 42.603 50.16 42.438C50.193 42.339 50.16 42.24 50.127 42.141C50.094 42.042 49.995 41.91 49.929 41.844C49.896 41.811 49.863 41.778 49.83 41.778C49.797 41.745 49.731 41.745 49.665 41.745C49.599 41.745 49.533 41.844 49.5 41.943L49.203 41.679C49.269 41.481 49.368 41.382 49.5 41.382C49.533 41.382 49.632 41.415 49.731 41.481Z" fill="white"/>
<path d="M50.985 39.798L51.084 39.27L51.216 39.369L51.084 39.897L51.051 39.864L50.985 39.798Z" fill="#F15A24"/>
<path d="M52.206 39.204L52.8 39.699L52.47 41.151L51.843 40.59L51.909 40.656L52.206 39.204Z" fill="#F8C401"/>
<path d="M52.14 38.973L52.932 39.699L52.734 40.623L52.701 40.722L52.602 41.25L52.503 41.151H52.47L52.8 39.699L52.206 39.204L51.909 40.656L51.843 40.59L51.81 40.557L51.909 39.996L51.942 39.897L52.14 38.973Z" fill="#F15A24"/>
<path d="M51.843 40.59L52.47 41.151L49.137 38.148C48.84 37.884 48.642 37.488 48.642 37.059L51.084 39.27L50.985 39.798L51.051 39.864L51.117 39.93L51.216 39.402L51.909 40.029L51.81 40.557L51.843 40.59Z" fill="#F8C401"/>
<path d="M51.117 39.171L51.216 39.27L51.942 39.897L51.909 39.996L51.216 39.369L51.084 39.27L48.642 37.059V37.026L48.675 36.96L51.117 39.171Z" fill="#F15A24"/>
<path d="M52.602 41.25L52.701 40.722L53.658 41.58C53.592 41.811 53.361 41.844 53.097 41.679C53.031 41.646 52.965 41.613 52.932 41.547L52.47 41.151L52.602 41.25Z" fill="#F8C401"/>
<path d="M52.734 40.623L53.691 41.481L53.658 41.514V41.547V41.58L52.701 40.722L52.734 40.623Z" fill="#F15A24"/>
<path d="M51.414 37.851L51.117 39.171L48.675 36.96L48.972 35.574L48.939 35.64L51.414 37.851Z" fill="#F8C401"/>
<path d="M48.972 35.5411V35.6071L49.104 34.9801C49.17 34.7161 49.401 34.6501 49.665 34.8151C49.731 34.8481 49.797 34.8811 49.83 34.9471L51.744 36.6631L51.678 36.5971L51.612 36.9271L49.137 35.7061L48.972 35.5411Z" fill="#F8C401"/>
<path d="M48.972 35.541L49.104 35.673L51.414 37.752V37.851L48.939 35.64L48.972 35.574V35.541Z" fill="#F15A24"/>
<path d="M49.104 35.673L51.612 36.894L51.414 37.752L49.104 35.673Z" fill="#F8C401"/>
<path d="M51.711 36.63L51.777 36.696L51.711 36.96L51.546 37.851L51.513 37.95L51.216 39.27L51.117 39.171L51.414 37.851V37.752L51.612 36.894L51.678 36.564L51.711 36.63Z" fill="#F15A24"/>
<path d="M51.546 37.851L51.711 36.96L52.47 37.323L52.239 38.478L51.546 37.851Z" fill="#F8C401"/>
<path d="M52.47 37.323L51.711 36.96L51.777 36.696L52.536 37.356L52.47 37.323Z" fill="#F8C401"/>
<path d="M52.536 37.356L52.602 37.422L52.338 38.676L51.513 37.95L51.546 37.851L52.239 38.478L52.47 37.323L52.536 37.356Z" fill="#F15A24"/>
<path d="M53.625 38.346C53.955 38.61 54.153 39.039 54.12 39.468L53.691 41.514V41.448L52.734 40.59L52.932 39.666L52.14 38.94L51.942 39.864L51.249 39.237L51.513 37.917L52.338 38.643L52.602 37.389L52.536 37.323L53.625 38.346Z" fill="#F8C401"/>
<path d="M52.569 33.825C52.602 33.924 52.602 34.023 52.569 34.089C52.569 34.155 52.503 34.254 52.437 34.254C52.338 34.254 52.239 34.221 52.173 34.188H52.14L52.371 35.046L51.975 34.716L51.777 33.924L51.711 33.858L51.612 34.386L51.249 34.089L51.546 32.736L52.14 33.231C52.239 33.33 52.338 33.429 52.404 33.561C52.47 33.627 52.536 33.726 52.569 33.825ZM52.206 33.792C52.206 33.726 52.206 33.66 52.173 33.627C52.14 33.561 52.107 33.495 52.041 33.429L51.843 33.231L51.777 33.561L51.975 33.759C52.008 33.792 52.041 33.792 52.074 33.825C52.107 33.825 52.107 33.858 52.14 33.858C52.173 33.858 52.206 33.858 52.206 33.792Z" fill="white"/>
<path d="M55.935 36.597L57.057 37.62L56.991 37.884L56.628 37.521L56.397 38.643L56.034 38.313L56.265 37.224L55.869 36.861L55.935 36.597Z" fill="white"/>
<path d="M55.44 36.168L55.77 36.465L55.506 37.851L55.143 37.521L55.44 36.168Z" fill="white"/>
<path d="M55.077 36.2339C55.11 36.3659 55.11 36.5309 55.11 36.6629C55.11 36.7619 55.044 36.8609 54.945 36.9269C54.846 36.9929 54.714 36.9929 54.615 36.9269C54.549 36.8939 54.516 36.8939 54.45 36.8609C54.351 36.7949 54.285 36.7289 54.186 36.6629L53.658 36.1679L53.955 34.8149L54.483 35.3099C54.615 35.4419 54.747 35.5739 54.879 35.7389C54.945 35.8709 55.044 36.0359 55.077 36.2339ZM54.747 36.3329C54.78 36.2009 54.747 36.0689 54.681 35.9369C54.615 35.8049 54.516 35.6729 54.384 35.5409L54.219 35.4089L54.054 36.2009L54.219 36.3329C54.285 36.3659 54.318 36.4319 54.384 36.4649C54.45 36.4979 54.483 36.5309 54.549 36.5309C54.681 36.5309 54.714 36.4649 54.747 36.3329Z" fill="white"/>
<path d="M58.047 38.544C58.113 38.577 58.212 38.643 58.278 38.709C58.443 38.874 58.608 39.039 58.707 39.27C58.806 39.435 58.872 39.666 58.872 39.864L58.509 39.534C58.509 39.435 58.476 39.336 58.41 39.27C58.344 39.171 58.311 39.105 58.212 39.039C58.179 39.006 58.146 38.973 58.113 38.973C58.047 38.94 58.014 38.907 57.948 38.94C57.882 38.94 57.816 39.006 57.783 39.138C57.75 39.27 57.783 39.402 57.816 39.501C57.849 39.633 57.948 39.732 58.047 39.831C58.08 39.864 58.113 39.897 58.146 39.897C58.179 39.93 58.212 39.93 58.245 39.93C58.311 39.963 58.344 39.93 58.41 39.897L58.773 40.227C58.707 40.359 58.575 40.425 58.443 40.392C58.344 40.392 58.278 40.359 58.179 40.293C58.08 40.227 58.014 40.194 57.948 40.128C57.816 39.996 57.684 39.864 57.585 39.699C57.486 39.567 57.42 39.402 57.387 39.237C57.354 39.105 57.354 38.94 57.387 38.808C57.387 38.709 57.453 38.577 57.552 38.511C57.651 38.445 57.75 38.445 57.849 38.478C57.948 38.478 58.014 38.478 58.047 38.544Z" fill="white"/>
<path d="M59.994 40.26L60.225 42.108L59.862 41.778L59.829 41.448L59.301 40.92L59.169 41.085L58.806 40.755L59.631 39.864L59.994 40.26ZM59.433 40.788L59.796 41.118L59.73 40.458L59.433 40.788Z" fill="white"/>
<path d="M61.677 42.009C61.71 42.108 61.71 42.207 61.677 42.273C61.677 42.339 61.611 42.438 61.545 42.438C61.446 42.438 61.347 42.405 61.281 42.372H61.248L61.479 43.23L61.083 42.867L60.885 42.075L60.819 42.009L60.72 42.537L60.357 42.24L60.654 40.887L61.248 41.415C61.347 41.514 61.446 41.613 61.512 41.745C61.578 41.811 61.611 41.91 61.677 42.009ZM61.314 41.976C61.314 41.91 61.314 41.844 61.281 41.811C61.248 41.745 61.182 41.679 61.149 41.613L60.918 41.415L60.852 41.745L61.083 41.943C61.116 41.976 61.149 41.976 61.182 42.009C61.215 42.009 61.215 42.042 61.248 42.042C61.281 42.042 61.314 42.009 61.314 41.976Z" fill="white"/>
<path d="M63.063 43.428C63.096 43.56 63.096 43.725 63.063 43.857C63.063 43.956 62.997 44.055 62.898 44.121C62.799 44.154 62.7 44.154 62.601 44.121C62.535 44.088 62.502 44.088 62.436 44.055C62.337 43.989 62.271 43.923 62.172 43.857L61.644 43.362L61.941 42.009L62.469 42.504C62.601 42.636 62.733 42.768 62.865 42.966C62.964 43.065 63.03 43.23 63.063 43.428ZM62.733 43.527C62.766 43.395 62.733 43.263 62.667 43.131C62.601 42.999 62.502 42.867 62.37 42.735L62.205 42.57L62.04 43.362L62.205 43.494C62.271 43.527 62.304 43.593 62.37 43.626C62.436 43.659 62.469 43.692 62.535 43.692C62.667 43.725 62.733 43.659 62.733 43.527Z" fill="white"/>
<path d="M51.513 43.065C51.612 43.131 51.678 43.197 51.744 43.263C51.876 43.362 51.975 43.494 52.074 43.626C52.14 43.725 52.206 43.857 52.239 43.989C52.272 44.088 52.272 44.187 52.272 44.286C52.239 44.418 52.206 44.484 52.107 44.484C52.008 44.484 51.942 44.484 51.876 44.418L51.81 44.352C51.909 44.484 52.008 44.649 52.074 44.814C52.14 44.946 52.14 45.078 52.107 45.21C52.074 45.375 52.008 45.441 51.876 45.441C51.777 45.441 51.711 45.408 51.612 45.342C51.513 45.276 51.447 45.21 51.381 45.144C51.183 44.979 51.018 44.781 50.919 44.55C50.82 44.352 50.787 44.121 50.787 43.923L51.084 44.22C51.084 44.352 51.084 44.451 51.15 44.583C51.216 44.715 51.282 44.814 51.414 44.913C51.447 44.946 51.48 44.979 51.546 45.012C51.579 45.045 51.645 45.045 51.678 45.045C51.744 45.045 51.777 45.012 51.81 44.913C51.81 44.814 51.81 44.682 51.744 44.583C51.645 44.418 51.546 44.286 51.414 44.187L51.348 44.121L51.414 43.89L51.48 43.956C51.546 44.022 51.612 44.088 51.711 44.121C51.876 44.22 51.975 44.187 51.975 44.055C51.975 43.956 51.975 43.857 51.942 43.791C51.876 43.692 51.81 43.593 51.744 43.527L51.645 43.461C51.612 43.428 51.546 43.428 51.513 43.428C51.447 43.428 51.381 43.461 51.348 43.56L51.051 43.296C51.084 43.131 51.183 43.032 51.315 43.032C51.381 42.999 51.447 43.032 51.513 43.065Z" fill="white"/>
<path d="M54.219 45.507L53.955 46.695L54.219 46.926L54.153 47.19L53.889 46.959L53.823 47.355L53.493 47.091L53.559 46.695L52.602 45.837L52.668 45.573L53.889 45.243L54.219 45.507ZM53.658 46.431L53.823 45.606L52.965 45.837L53.658 46.431Z" fill="white"/>
<path d="M56.892 47.8831L58.113 49.0051L58.047 49.2691L57.09 48.4111L56.958 48.9391C57.024 48.9391 57.09 48.9391 57.156 48.9721C57.189 48.9721 57.222 49.0051 57.222 49.0051C57.288 49.0381 57.354 49.1041 57.42 49.1371C57.552 49.2361 57.651 49.3681 57.75 49.5001C57.816 49.6321 57.882 49.7641 57.915 49.8961C57.948 50.0281 57.948 50.1271 57.915 50.2591C57.882 50.4571 57.783 50.5561 57.651 50.5561C57.552 50.5561 57.453 50.5231 57.354 50.4571C57.255 50.3911 57.189 50.3581 57.123 50.2921C56.925 50.1271 56.793 49.9291 56.661 49.6981C56.562 49.5331 56.529 49.3021 56.529 49.1041L56.826 49.3681C56.826 49.4671 56.859 49.5991 56.892 49.6981C56.958 49.7971 57.024 49.9291 57.123 49.9951C57.156 50.0281 57.222 50.0611 57.255 50.0941C57.288 50.1271 57.354 50.1601 57.42 50.1271C57.486 50.1271 57.552 50.0611 57.585 49.9291C57.618 49.8301 57.585 49.6981 57.552 49.5991C57.486 49.4671 57.42 49.3681 57.288 49.2691C57.255 49.2361 57.189 49.2031 57.156 49.1701C57.123 49.1371 57.09 49.1371 57.057 49.1371C56.991 49.1041 56.958 49.1041 56.892 49.1371L56.595 48.8731L56.892 47.8831Z" fill="white"/>
<path d="M59.994 51.315L59.697 51.051C59.697 50.82 59.598 50.589 59.433 50.457C59.4 50.424 59.367 50.391 59.301 50.358C59.235 50.292 59.169 50.292 59.07 50.325C58.971 50.358 58.905 50.49 58.872 50.721L58.839 50.82C58.905 50.754 58.971 50.721 59.07 50.754C59.136 50.787 59.169 50.787 59.235 50.82C59.301 50.853 59.367 50.919 59.433 50.952C59.598 51.117 59.763 51.315 59.829 51.513C59.895 51.711 59.928 51.909 59.895 52.107C59.895 52.206 59.829 52.305 59.763 52.371C59.697 52.437 59.598 52.437 59.499 52.404C59.433 52.371 59.4 52.371 59.367 52.338C59.301 52.272 59.202 52.239 59.136 52.173C58.905 51.975 58.707 51.711 58.608 51.414C58.542 51.15 58.542 50.853 58.608 50.589C58.674 50.259 58.773 50.061 58.938 49.995C59.07 49.962 59.202 49.995 59.301 50.061C59.4 50.127 59.466 50.16 59.532 50.226C59.697 50.358 59.829 50.556 59.928 50.754C59.994 50.919 60.027 51.117 59.994 51.315ZM59.004 50.952C58.905 50.952 58.839 50.985 58.839 51.117C58.806 51.249 58.839 51.381 58.872 51.48C58.938 51.612 59.037 51.744 59.136 51.876C59.169 51.909 59.202 51.942 59.268 51.975C59.334 52.008 59.367 52.041 59.433 52.041C59.499 52.041 59.565 51.975 59.598 51.876C59.631 51.744 59.598 51.612 59.565 51.513C59.499 51.381 59.4 51.249 59.301 51.15C59.268 51.117 59.202 51.084 59.169 51.051C59.136 50.985 59.07 50.952 59.004 50.952Z" fill="white"/>
<path d="M60.621 51.282L61.875 52.404L61.842 52.635L60.786 53.592L60.456 53.295L61.512 52.371L60.555 51.513L60.621 51.282Z" fill="white"/>
<path d="M63.624 54.219C63.657 54.318 63.657 54.45 63.657 54.549C63.657 54.615 63.591 54.714 63.525 54.747C63.426 54.78 63.327 54.747 63.228 54.681C63.327 54.813 63.426 54.945 63.459 55.11C63.492 55.242 63.525 55.374 63.492 55.473C63.459 55.638 63.36 55.737 63.195 55.704C63.096 55.704 62.997 55.638 62.931 55.605C62.832 55.539 62.733 55.473 62.634 55.407C62.436 55.242 62.271 55.011 62.139 54.78C62.04 54.615 62.007 54.384 62.04 54.186C62.04 54.087 62.106 54.021 62.205 53.988C62.337 53.955 62.436 53.988 62.535 54.054C62.436 53.955 62.37 53.823 62.337 53.691C62.304 53.592 62.271 53.46 62.304 53.361C62.304 53.295 62.37 53.229 62.436 53.196C62.535 53.163 62.634 53.196 62.7 53.229L62.799 53.295C62.898 53.361 62.997 53.427 63.063 53.493C63.195 53.625 63.327 53.757 63.426 53.889C63.525 53.955 63.591 54.087 63.624 54.219ZM63.228 55.143C63.261 55.011 63.228 54.912 63.162 54.78C63.096 54.648 62.997 54.516 62.865 54.417C62.832 54.384 62.766 54.318 62.7 54.285C62.667 54.252 62.601 54.219 62.535 54.219C62.436 54.219 62.403 54.252 62.37 54.351C62.337 54.483 62.37 54.582 62.436 54.714C62.502 54.846 62.601 54.978 62.733 55.077C62.766 55.11 62.832 55.176 62.898 55.209C62.931 55.242 62.997 55.275 63.063 55.275C63.129 55.308 63.195 55.275 63.228 55.143ZM63.327 54.285C63.36 54.186 63.327 54.087 63.261 53.988C63.195 53.856 63.129 53.757 63.03 53.691C62.997 53.658 62.931 53.625 62.898 53.592C62.865 53.559 62.799 53.559 62.766 53.559C62.7 53.559 62.634 53.592 62.634 53.691C62.601 53.79 62.634 53.889 62.7 53.988C62.766 54.12 62.832 54.219 62.931 54.285C62.964 54.318 63.03 54.351 63.063 54.384C63.096 54.417 63.162 54.417 63.195 54.417C63.261 54.417 63.327 54.384 63.327 54.285Z" fill="white"/>
<path d="M67.353 57.552C67.419 57.816 67.419 58.08 67.353 58.344C67.287 58.674 67.188 58.872 67.023 58.938C66.891 58.971 66.759 58.971 66.66 58.872C66.594 58.806 66.495 58.773 66.429 58.707C66.264 58.542 66.099 58.377 66.033 58.146C65.967 57.981 65.901 57.783 65.934 57.585L66.231 57.849C66.231 57.948 66.231 58.08 66.297 58.179C66.33 58.278 66.429 58.377 66.495 58.476C66.528 58.509 66.561 58.542 66.627 58.575C66.693 58.641 66.759 58.641 66.858 58.608C66.957 58.575 67.023 58.443 67.056 58.212L67.089 58.113C67.023 58.179 66.957 58.212 66.858 58.179C66.792 58.179 66.759 58.146 66.693 58.113C66.627 58.08 66.561 58.014 66.528 57.981C66.363 57.816 66.198 57.651 66.132 57.42C66.066 57.222 66.033 57.024 66.066 56.826C66.066 56.727 66.132 56.628 66.198 56.562C66.264 56.496 66.363 56.496 66.462 56.529C66.528 56.562 66.561 56.562 66.627 56.595C66.693 56.661 66.792 56.694 66.858 56.76C67.056 56.991 67.221 57.255 67.353 57.552ZM67.089 57.816C67.122 57.684 67.089 57.552 67.056 57.453C66.99 57.288 66.891 57.156 66.759 57.057C66.726 57.024 66.693 56.991 66.627 56.958C66.594 56.925 66.528 56.892 66.462 56.925C66.396 56.925 66.33 56.991 66.297 57.09C66.264 57.222 66.297 57.354 66.33 57.453C66.396 57.585 66.462 57.717 66.594 57.816C66.627 57.849 66.693 57.882 66.726 57.915C66.759 57.915 66.759 57.948 66.792 57.948C66.858 57.981 66.924 57.981 66.957 57.948C67.056 57.915 67.089 57.849 67.089 57.816Z" fill="white"/>
<path d="M67.98 57.915L68.607 58.443L68.211 60.258L67.881 59.994L68.211 58.443L67.914 58.179L67.98 57.915Z" fill="white"/>
<path d="M70.389 60.324C70.455 60.588 70.488 60.885 70.422 61.149C70.389 61.38 70.29 61.5449 70.125 61.6769C69.993 61.7099 69.861 61.71 69.762 61.611C69.696 61.545 69.597 61.512 69.531 61.446C69.3 61.248 69.135 60.984 69.036 60.72C68.97 60.456 68.97 60.159 69.036 59.895C69.102 59.598 69.201 59.4329 69.333 59.3669C69.465 59.3339 69.597 59.367 69.696 59.433C69.795 59.499 69.861 59.532 69.927 59.598C70.158 59.796 70.323 60.06 70.389 60.324ZM70.125 60.885C70.158 60.72 70.158 60.522 70.158 60.324C70.125 60.159 70.026 59.9939 69.861 59.8619C69.828 59.8289 69.795 59.796 69.729 59.763C69.63 59.697 69.564 59.697 69.498 59.73C69.399 59.829 69.333 59.994 69.3 60.126C69.267 60.324 69.267 60.4889 69.3 60.6869C69.333 60.8519 69.432 61.017 69.597 61.149C69.63 61.182 69.696 61.215 69.729 61.248C69.828 61.314 69.894 61.314 69.96 61.248C70.026 61.149 70.092 61.017 70.125 60.885Z" fill="white"/>
<path d="M72.369 62.106C72.435 62.37 72.435 62.667 72.402 62.931C72.336 63.228 72.237 63.393 72.105 63.459C71.973 63.492 71.841 63.492 71.742 63.393C71.643 63.327 71.577 63.294 71.511 63.228C71.28 63.03 71.115 62.766 71.016 62.502C70.95 62.238 70.95 61.941 70.983 61.677C71.049 61.38 71.148 61.215 71.28 61.149C71.412 61.116 71.544 61.116 71.643 61.215C71.742 61.281 71.808 61.314 71.874 61.38C72.105 61.545 72.27 61.809 72.369 62.106ZM72.072 62.634C72.105 62.469 72.105 62.271 72.105 62.073C72.072 61.908 71.973 61.743 71.808 61.611C71.775 61.578 71.709 61.545 71.676 61.512C71.577 61.446 71.511 61.446 71.445 61.479C71.346 61.578 71.28 61.743 71.247 61.875C71.214 62.073 71.181 62.238 71.214 62.436C71.247 62.601 71.346 62.766 71.511 62.898C71.544 62.931 71.61 62.964 71.643 62.997C71.742 63.063 71.808 63.063 71.874 63.03C72.006 62.931 72.039 62.799 72.072 62.634Z" fill="white"/>
<path d="M48.543 45.012L48.807 45.243L48.51 46.563L49.071 47.058L49.038 47.256L48.213 46.53L48.543 45.012Z" fill="white"/>
<path d="M47.355 43.9561L48.279 44.7811L48.246 44.9791L47.586 44.3851L47.487 44.8471L48.081 45.3751L48.048 45.5731L47.454 45.0451L47.355 45.5071L48.015 46.1011L47.949 46.2991L47.058 45.4741L47.355 43.9561Z" fill="white"/>
<path d="M52.14 48.279L52.404 50.292L52.14 50.028L52.074 49.599L51.414 49.005L51.216 49.203L50.952 48.972L51.843 48.015L52.14 48.279ZM51.513 48.873L52.041 49.335L51.909 48.378L51.513 48.873Z" fill="white"/>
<path d="M50.061 46.3979L51.117 47.3219L51.084 47.5199L50.061 47.9489L50.853 48.6419L50.787 48.8729L49.731 47.9159L49.764 47.7179L50.787 47.2559L50.028 46.5959L50.061 46.3979Z" fill="white"/>
<path d="M49.533 45.936L49.797 46.167L49.467 47.685L49.236 47.454L49.533 45.936Z" fill="white"/>
<path d="M56.694 52.371L56.958 52.602L56.826 53.229L57.585 53.922L57.717 53.262L57.981 53.493L57.651 55.011L57.387 54.78L57.552 54.12L56.793 53.427L56.628 54.12L56.397 53.889L56.694 52.371Z" fill="white"/>
<path d="M55.374 51.15L56.496 52.173L56.463 52.404L56.034 51.975L55.737 53.295L55.473 53.064L55.77 51.744L55.308 51.348L55.374 51.15Z" fill="white"/>
<path d="M53.889 49.962C53.955 50.094 53.988 50.226 53.955 50.358C53.922 50.457 53.889 50.523 53.823 50.523C53.757 50.523 53.658 50.523 53.592 50.457C53.691 50.556 53.757 50.655 53.79 50.787C53.823 50.886 53.856 51.018 53.823 51.117C53.79 51.249 53.724 51.315 53.625 51.315C53.559 51.315 53.493 51.282 53.427 51.249C53.361 51.216 53.262 51.15 53.196 51.084L52.569 50.523L52.899 49.005L53.526 49.566C53.691 49.665 53.79 49.797 53.889 49.962ZM53.592 50.82C53.592 50.721 53.592 50.655 53.559 50.556C53.493 50.457 53.427 50.358 53.361 50.292L53.031 49.995L52.932 50.49L53.262 50.787C53.295 50.82 53.328 50.853 53.394 50.886C53.427 50.919 53.46 50.919 53.493 50.919C53.526 50.952 53.559 50.919 53.592 50.82ZM53.691 50.16C53.724 50.094 53.691 49.995 53.658 49.929C53.592 49.83 53.526 49.731 53.46 49.665L53.163 49.401L53.064 49.863L53.394 50.16C53.427 50.193 53.46 50.226 53.526 50.259C53.559 50.292 53.592 50.292 53.625 50.292C53.625 50.259 53.691 50.226 53.691 50.16Z" fill="white"/>
<path d="M54.318 50.226L55.242 51.051L55.176 51.249L54.516 50.655L54.417 51.117L55.011 51.645L54.978 51.81L54.384 51.282L54.285 51.777L54.945 52.338L54.912 52.569L53.988 51.744L54.318 50.226Z" fill="white"/>
<path d="M70.125 63.822L70.389 64.053L69.267 65.901L69.003 65.703L70.125 63.822Z" fill="white"/>
<path d="M68.64 63.063C68.706 63.096 68.772 63.162 68.805 63.195C68.937 63.327 69.069 63.4589 69.135 63.6569C69.201 63.7889 69.234 63.9539 69.201 64.0859C69.168 64.1849 69.102 64.2839 69.036 64.3169C68.937 64.3829 68.805 64.383 68.706 64.383C68.574 64.383 68.442 64.3499 68.31 64.3169L69.069 65.01L69.036 65.208L67.914 64.218L67.947 64.02C68.178 64.086 68.409 64.0859 68.64 64.0859C68.805 64.0529 68.937 63.987 68.937 63.855C68.937 63.789 68.937 63.69 68.904 63.624C68.871 63.525 68.805 63.459 68.739 63.393L68.64 63.3269C68.607 63.2939 68.541 63.294 68.508 63.294C68.442 63.294 68.409 63.36 68.376 63.459L68.112 63.228C68.145 63.063 68.244 62.9969 68.376 62.9969C68.475 62.9969 68.574 63.03 68.64 63.063Z" fill="white"/>
<path d="M67.452 62.04L67.98 62.502L67.65 64.02L67.386 63.789L67.65 62.502L67.419 62.271L67.452 62.04Z" fill="white"/>
<path d="M70.752 65.01C70.818 65.043 70.884 65.109 70.917 65.142C71.049 65.274 71.181 65.406 71.247 65.604C71.313 65.736 71.346 65.901 71.313 66.033C71.28 66.132 71.214 66.231 71.148 66.264C71.049 66.297 70.917 66.33 70.818 66.33C70.686 66.33 70.554 66.297 70.422 66.264L71.181 66.957L71.148 67.155L70.026 66.165L70.059 65.967C70.29 66.033 70.521 66.033 70.752 66.033C70.95 66 71.049 65.934 71.049 65.802C71.049 65.736 71.049 65.637 71.016 65.571C70.983 65.472 70.917 65.406 70.851 65.34L70.752 65.274C70.719 65.241 70.653 65.241 70.62 65.241C70.554 65.241 70.521 65.307 70.488 65.406L70.224 65.175C70.257 65.01 70.356 64.944 70.488 64.944C70.62 64.944 70.686 64.977 70.752 65.01Z" fill="white"/>
<path d="M71.742 65.868L72.765 66.792L72.732 67.023L71.94 66.297L71.841 66.759C71.907 66.759 71.973 66.759 72.006 66.792L72.072 66.825C72.138 66.858 72.171 66.891 72.237 66.957C72.336 67.056 72.435 67.155 72.501 67.287C72.567 67.386 72.6 67.485 72.633 67.617C72.666 67.716 72.666 67.815 72.633 67.914C72.6 68.079 72.534 68.178 72.402 68.178C72.303 68.178 72.237 68.145 72.171 68.112C72.105 68.079 72.039 68.013 71.973 67.98C71.808 67.848 71.676 67.683 71.577 67.485C71.511 67.32 71.478 67.155 71.478 66.99L71.742 67.221C71.742 67.32 71.775 67.419 71.808 67.485C71.841 67.584 71.907 67.65 72.006 67.749C72.039 67.782 72.072 67.815 72.105 67.815C72.138 67.848 72.204 67.848 72.237 67.848C72.303 67.848 72.336 67.782 72.369 67.683C72.402 67.584 72.369 67.485 72.336 67.386C72.303 67.287 72.204 67.188 72.138 67.089C72.105 67.056 72.072 67.023 72.039 66.99C72.006 66.99 71.973 66.957 71.973 66.957C71.94 66.924 71.874 66.924 71.841 66.957L71.577 66.726L71.742 65.868Z" fill="white"/>
<path d="M80.718 59.07L80.949 60.885L80.652 60.621L80.619 60.258L80.025 59.73L79.86 59.928L79.563 59.664L80.388 58.806L80.718 59.07ZM80.157 59.598L80.586 59.994L80.487 59.235L80.157 59.598Z" fill="white"/>
<path d="M79.596 58.146C79.662 58.245 79.695 58.377 79.662 58.509C79.662 58.608 79.596 58.641 79.53 58.641C79.464 58.641 79.398 58.641 79.332 58.575C79.398 58.674 79.464 58.773 79.53 58.872C79.563 58.971 79.596 59.07 79.563 59.169C79.53 59.301 79.497 59.334 79.398 59.334C79.332 59.334 79.266 59.301 79.233 59.268C79.167 59.235 79.101 59.169 79.035 59.103L78.408 58.542L78.705 57.189L79.299 57.717C79.398 57.849 79.497 57.981 79.596 58.146ZM79.266 58.872C79.266 58.806 79.266 58.74 79.233 58.674C79.2 58.608 79.134 58.509 79.068 58.476L78.804 58.245L78.738 58.608L79.002 58.839L79.101 58.905C79.134 58.905 79.167 58.938 79.167 58.938C79.233 58.971 79.233 58.938 79.266 58.872ZM79.365 58.278C79.365 58.212 79.365 58.146 79.332 58.08C79.299 58.014 79.233 57.948 79.167 57.882L78.903 57.651L78.837 58.014L79.101 58.245C79.134 58.278 79.167 58.311 79.2 58.311C79.233 58.344 79.266 58.344 79.266 58.344C79.299 58.377 79.332 58.344 79.365 58.278Z" fill="white"/>
<path d="M82.863 60.984L83.16 61.248L83.028 61.842L83.688 61.71L84.051 62.04L83.292 62.172L83.754 63.393L83.424 63.096L82.995 61.974L82.863 62.601L82.599 62.337L82.863 60.984Z" fill="white"/>
<path d="M81.411 59.6641L81.675 59.9281L82.137 61.4131L82.335 60.4891L82.632 60.7531L82.335 62.1061L82.038 61.8421L81.576 60.3571L81.378 61.2811L81.114 61.0171L81.411 59.6641Z" fill="white"/>
<path d="M42.669 42.141V68.079C42.669 69.927 43.659 71.61 45.243 72.534L81.048 93.324C82.83 94.347 85.107 93.753 86.163 91.971C86.493 91.41 86.658 90.75 86.658 90.09V68.145C86.658 65.637 85.338 63.294 83.16 62.007L46.299 40.062C45.144 39.369 43.692 39.765 42.999 40.887C42.768 41.283 42.669 41.712 42.669 42.141Z" fill="#DD5E57"/>
<path d="M78.1899 105.219C78.3219 105.45 78.3549 105.681 78.3549 105.945L78.4539 121.587C79.3119 122.049 81.3249 122.247 82.2489 122.412C83.8659 122.643 85.4829 122.742 87.0999 122.676C89.2449 122.643 91.2909 122.544 93.3369 121.752C93.2049 117.363 92.3469 102.447 92.4789 101.028C92.6439 99.5434 97.8579 87.0364 98.9799 81.8554C95.8119 81.9544 92.6439 81.8554 89.4759 81.6574C89.6739 84.9574 88.1229 88.6204 85.0209 88.4884C80.7309 88.3234 80.3679 73.8364 76.7379 74.0014C73.1079 74.1664 76.4739 80.7994 75.3519 89.7094C74.4279 97.4644 77.4309 103.767 78.1899 105.219Z" fill="#FEC5B2"/>
<path d="M46.2 48.7081C46.398 48.8401 46.596 49.0051 46.728 49.2031C46.86 49.4011 46.959 49.6321 47.025 49.8631L46.596 49.5991C46.563 49.5001 46.497 49.401 46.431 49.302C46.365 49.203 46.299 49.1371 46.2 49.1041C46.068 49.0381 46.002 49.038 45.936 49.071C45.87 49.17 45.837 49.269 45.87 49.401C45.87 49.566 45.936 49.6981 46.002 49.8631C46.068 49.9951 46.167 50.1271 46.299 50.1931C46.365 50.2261 46.431 50.2591 46.53 50.2591C46.596 50.2591 46.629 50.193 46.662 50.127L47.091 50.391C47.091 50.523 46.992 50.655 46.86 50.721C46.695 50.754 46.497 50.7211 46.365 50.5891C46.2 50.4901 46.068 50.358 45.936 50.226C45.804 50.061 45.705 49.896 45.639 49.731C45.573 49.566 45.507 49.3681 45.507 49.1701C45.474 49.0381 45.507 48.873 45.573 48.741C45.606 48.642 45.738 48.576 45.837 48.576C45.936 48.576 46.068 48.6091 46.2 48.7081Z" fill="white"/>
<path d="M48.18 50.985L48.609 51.942L48.18 51.678L47.784 50.754L47.685 50.688L47.718 51.381L47.322 51.15L47.19 49.269L47.883 49.665C48.015 49.731 48.114 49.83 48.213 49.929C48.312 50.028 48.378 50.127 48.411 50.259C48.477 50.358 48.477 50.49 48.51 50.622C48.543 50.721 48.51 50.82 48.444 50.919C48.378 51.018 48.279 51.051 48.18 50.985ZM48.081 50.622C48.114 50.622 48.114 50.556 48.114 50.49C48.114 50.424 48.081 50.358 48.048 50.292C48.015 50.226 47.949 50.16 47.883 50.127L47.619 49.995L47.652 50.457L47.916 50.589C47.982 50.622 48.048 50.622 48.081 50.622Z" fill="white"/>
<path d="M49.698 50.82L49.731 51.183L49.104 50.82L49.137 51.216L49.698 51.546V51.876L49.137 51.546L49.17 51.975L49.797 52.338L49.83 52.701L48.807 52.074L48.675 50.226L49.698 50.82Z" fill="white"/>
<path d="M51.348 52.239C51.414 52.404 51.48 52.602 51.48 52.8C51.513 52.932 51.48 53.097 51.414 53.229C51.348 53.328 51.249 53.394 51.15 53.394C50.985 53.394 50.82 53.328 50.688 53.229L50.061 52.866L49.929 50.985L50.556 51.348C50.919 51.579 51.183 51.876 51.348 52.239ZM50.952 52.866C51.018 52.833 51.051 52.734 51.051 52.536C51.051 52.371 50.985 52.206 50.886 52.074C50.787 51.942 50.655 51.81 50.523 51.711L50.325 51.612L50.391 52.668L50.589 52.767C50.754 52.866 50.886 52.899 50.952 52.866Z" fill="white"/>
<path d="M52.041 52.2391L52.14 54.0871L51.744 53.8561L51.645 52.0081L52.041 52.2391Z" fill="white"/>
<path d="M53.493 53.097V53.46L53.064 53.196L53.163 54.714L52.767 54.45L52.668 52.965L52.206 52.701V52.338L53.493 53.097Z" fill="white"/>
<path d="M56.826 55.11L57.552 57.321L57.123 57.057L56.991 56.661L56.364 56.298L56.298 56.562L55.869 56.298L56.364 54.813L56.826 55.11ZM56.463 56.034L56.892 56.298L56.628 55.506L56.463 56.034Z" fill="white"/>
<path d="M54.879 53.922C55.077 54.054 55.275 54.219 55.407 54.417C55.539 54.615 55.638 54.846 55.704 55.077L55.275 54.813C55.242 54.714 55.176 54.615 55.11 54.516C55.044 54.417 54.978 54.351 54.879 54.318C54.747 54.252 54.681 54.252 54.615 54.285C54.549 54.384 54.516 54.483 54.549 54.615C54.549 54.78 54.615 54.912 54.681 55.077C54.747 55.209 54.846 55.341 54.978 55.407C55.044 55.44 55.11 55.473 55.209 55.473C55.275 55.473 55.308 55.407 55.341 55.341L55.77 55.605C55.77 55.77 55.671 55.902 55.539 55.968C55.374 56.001 55.176 55.968 55.044 55.836C54.879 55.737 54.747 55.605 54.615 55.473C54.483 55.308 54.384 55.143 54.318 54.978C54.252 54.813 54.219 54.615 54.186 54.417C54.153 54.252 54.186 54.12 54.252 53.988C54.285 53.889 54.384 53.823 54.516 53.823C54.582 53.79 54.747 53.823 54.879 53.922Z" fill="white"/>
<path d="M58.542 57.222L58.971 58.179L58.542 57.915L58.146 56.991L58.047 56.925L58.08 57.618L57.684 57.387L57.552 55.506L58.245 55.902C58.377 55.968 58.476 56.067 58.575 56.166C58.674 56.265 58.74 56.364 58.773 56.496C58.806 56.595 58.839 56.727 58.872 56.859C58.905 56.958 58.872 57.057 58.806 57.156C58.74 57.255 58.641 57.255 58.542 57.222ZM58.443 56.859C58.476 56.826 58.476 56.793 58.476 56.727C58.476 56.661 58.443 56.595 58.41 56.529C58.377 56.463 58.311 56.397 58.245 56.364L58.014 56.232L58.047 56.694L58.311 56.826C58.344 56.859 58.41 56.859 58.443 56.859Z" fill="white"/>
<path d="M60.456 57.717C60.522 57.882 60.588 58.08 60.588 58.278C60.621 58.41 60.588 58.575 60.522 58.707C60.456 58.806 60.357 58.872 60.258 58.872C60.093 58.872 59.928 58.806 59.796 58.707L59.169 58.344L59.037 56.463L59.664 56.826C59.829 56.925 59.994 57.057 60.126 57.222C60.258 57.354 60.39 57.519 60.456 57.717ZM60.093 58.344C60.159 58.311 60.225 58.212 60.192 58.014C60.192 57.849 60.126 57.684 60.027 57.552C59.928 57.42 59.796 57.288 59.664 57.189L59.466 57.09L59.532 58.146L59.73 58.245C59.895 58.344 59.994 58.377 60.093 58.344Z" fill="white"/>
<path d="M46.827 60.654L46.992 63.129L46.629 62.931L46.497 60.819L46.167 60.621L46.134 60.225L46.827 60.654Z" fill="white"/>
<path d="M48.246 61.479C48.444 61.611 48.642 61.776 48.774 61.974C48.906 62.172 48.972 62.37 49.005 62.601C49.005 62.766 48.972 62.931 48.906 63.063C48.84 63.195 48.708 63.294 48.576 63.36C48.444 63.426 48.279 63.459 48.147 63.492L49.17 64.119L49.203 64.449L47.685 63.525L47.652 63.228C47.916 63.195 48.18 63.096 48.411 62.931C48.576 62.832 48.675 62.634 48.675 62.403C48.675 62.271 48.642 62.172 48.576 62.04C48.51 61.941 48.411 61.842 48.312 61.776C48.18 61.71 48.081 61.677 48.048 61.743C47.982 61.842 47.949 61.941 47.982 62.073L47.652 61.875C47.652 61.611 47.718 61.413 47.85 61.347C47.949 61.314 48.114 61.347 48.246 61.479Z" fill="white"/>
<path d="M50.358 62.7001C50.49 62.7991 50.622 62.8981 50.721 62.9971C50.82 63.0961 50.919 63.2281 50.985 63.3601C51.051 63.4921 51.084 63.6241 51.084 63.7561C51.117 63.8881 51.084 63.9871 50.985 64.0861C50.919 64.1521 50.82 64.1521 50.655 64.0861V64.1191C50.787 64.2511 50.919 64.3831 51.018 64.5481C51.117 64.6801 51.15 64.8451 51.183 65.0431C51.183 65.2411 51.15 65.3731 51.051 65.4391C50.952 65.5051 50.754 65.4391 50.523 65.3071C50.292 65.1751 50.094 64.9771 49.929 64.7791C49.764 64.5481 49.665 64.2841 49.632 64.0201L49.995 64.2181C50.028 64.5151 50.226 64.7791 50.457 64.9441C50.589 65.0101 50.655 65.0431 50.721 65.0101C50.787 64.9771 50.82 64.9111 50.787 64.7791C50.787 64.6471 50.721 64.4821 50.622 64.3831C50.49 64.2511 50.358 64.1191 50.193 64.0201L50.127 63.9871L50.094 63.6571L50.16 63.6901C50.49 63.8881 50.655 63.8551 50.622 63.5911C50.622 63.4591 50.589 63.3601 50.523 63.2611C50.457 63.1621 50.358 63.0631 50.259 62.9971C50.193 62.9311 50.094 62.9311 49.995 62.9641C49.929 62.9971 49.896 63.0631 49.896 63.1951L49.533 62.9971C49.533 62.7661 49.599 62.6011 49.731 62.5681C49.863 62.5351 50.127 62.5681 50.358 62.7001Z" fill="white"/>
<path d="M53.262 66.033L53.559 66.231L53.592 66.594L53.295 66.396L53.328 66.924L52.965 66.726L52.932 66.198L51.81 65.538L51.777 65.208L52.767 64.218L53.13 64.449L53.262 66.033ZM52.932 65.835L52.866 64.68L52.173 65.373L52.932 65.835Z" fill="white"/>
<path d="M57.585 67.089L57.618 67.452L56.529 66.792L56.562 67.518C56.628 67.485 56.694 67.452 56.76 67.485C56.859 67.518 56.958 67.551 57.057 67.617C57.189 67.716 57.321 67.815 57.453 67.947C57.552 68.079 57.651 68.211 57.684 68.376C57.75 68.508 57.783 68.673 57.783 68.838C57.816 69.102 57.75 69.267 57.618 69.366C57.486 69.465 57.321 69.432 57.09 69.267C56.859 69.135 56.661 68.937 56.529 68.739C56.397 68.541 56.298 68.31 56.265 68.046L56.628 68.244C56.661 68.376 56.694 68.508 56.793 68.64C56.859 68.739 56.958 68.838 57.09 68.937C57.222 69.003 57.321 69.036 57.387 68.97C57.453 68.871 57.486 68.772 57.453 68.64C57.453 68.508 57.387 68.343 57.321 68.211C57.255 68.079 57.123 67.947 56.991 67.881C56.925 67.815 56.826 67.815 56.76 67.815C56.694 67.815 56.628 67.848 56.628 67.914L56.298 67.716L56.199 66.297L57.585 67.089Z" fill="white"/>
<path d="M59.829 69.4649C59.961 69.6959 60.027 69.9269 60.06 70.1909C60.06 70.3229 60.06 70.4549 59.994 70.5539C59.961 70.6529 59.862 70.6859 59.763 70.6859C59.631 70.6859 59.466 70.6199 59.367 70.5539C59.07 70.3889 58.839 70.1249 58.707 69.8279C58.575 69.4979 58.476 69.1679 58.476 68.8049C58.41 68.5079 58.476 68.1779 58.608 67.9139C58.707 67.7819 58.905 67.7819 59.202 67.9469C59.4 68.0789 59.598 68.2439 59.697 68.4419C59.829 68.6399 59.895 68.8709 59.928 69.1019L59.598 68.9039C59.565 68.6399 59.433 68.3759 59.202 68.2439C59.037 68.1449 58.938 68.1449 58.872 68.2439C58.773 68.4419 58.773 68.6399 58.806 68.8379V68.9699C58.806 68.8709 58.905 68.8049 59.004 68.8049C59.136 68.8049 59.268 68.8379 59.367 68.9039C59.532 69.0689 59.697 69.2669 59.829 69.4649ZM59.631 70.2899C59.697 70.2569 59.73 70.1579 59.73 69.9929C59.73 69.8279 59.664 69.6629 59.598 69.5309C59.532 69.3989 59.4 69.2669 59.268 69.2009C59.169 69.1349 59.07 69.1019 58.971 69.1349C58.872 69.1679 58.839 69.2669 58.872 69.3989C58.872 69.5639 58.938 69.7289 59.004 69.8609C59.103 70.0259 59.202 70.1249 59.367 70.2239C59.433 70.2899 59.532 70.3229 59.631 70.2899Z" fill="white"/>
<path d="M61.908 69.6961V69.9931L61.248 71.7091L60.885 71.4781L61.578 69.8281L60.489 69.1681L60.456 68.8051L61.908 69.6961Z" fill="white"/>
<path d="M64.053 72.336C64.119 72.468 64.185 72.633 64.185 72.798C64.185 73.029 64.152 73.194 63.987 73.227C63.789 73.26 63.558 73.194 63.393 73.062C63.162 72.93 62.964 72.732 62.799 72.501C62.634 72.303 62.568 72.039 62.535 71.808C62.502 71.676 62.535 71.577 62.634 71.478C62.733 71.412 62.832 71.379 62.931 71.445C62.799 71.346 62.7 71.214 62.634 71.049C62.568 70.917 62.535 70.785 62.502 70.653C62.502 70.554 62.502 70.455 62.568 70.356C62.634 70.29 62.733 70.257 62.799 70.257C62.931 70.29 63.096 70.323 63.195 70.422C63.36 70.521 63.492 70.62 63.624 70.752C63.723 70.884 63.822 71.016 63.888 71.148C63.954 71.28 63.987 71.412 63.987 71.544C64.02 71.643 63.987 71.742 63.921 71.841C63.855 71.907 63.756 71.94 63.657 71.874C63.855 72.006 63.987 72.171 64.053 72.336ZM63.756 72.831C63.822 72.798 63.855 72.699 63.855 72.567C63.855 72.402 63.789 72.27 63.69 72.171C63.591 72.039 63.492 71.94 63.327 71.841C63.228 71.775 63.129 71.742 62.997 71.742C62.931 71.775 62.865 71.841 62.898 72.006C62.898 72.171 62.964 72.303 63.063 72.402C63.162 72.534 63.261 72.633 63.426 72.732C63.492 72.798 63.624 72.831 63.756 72.831ZM62.898 70.917C62.898 71.049 62.964 71.181 63.03 71.28C63.096 71.379 63.228 71.478 63.327 71.577C63.426 71.643 63.525 71.676 63.624 71.643C63.69 71.61 63.723 71.544 63.723 71.412C63.723 71.28 63.657 71.148 63.591 71.049C63.525 70.917 63.393 70.851 63.294 70.752C63.195 70.686 63.096 70.653 62.997 70.686C62.931 70.719 62.898 70.785 62.898 70.917Z" fill="white"/>
<path d="M68.178 73.722C68.31 74.052 68.409 74.382 68.409 74.745C68.475 75.042 68.409 75.372 68.277 75.636C68.178 75.801 67.98 75.801 67.683 75.603C67.485 75.471 67.287 75.306 67.155 75.075C67.023 74.877 66.957 74.646 66.891 74.415L67.221 74.613C67.254 74.745 67.287 74.877 67.353 75.009C67.419 75.108 67.518 75.207 67.617 75.273C67.782 75.372 67.881 75.372 67.947 75.273C68.013 75.075 68.046 74.877 68.013 74.679V74.58C68.013 74.679 67.914 74.745 67.815 74.778C67.683 74.778 67.551 74.745 67.452 74.679C67.254 74.547 67.056 74.382 66.924 74.151C66.792 73.92 66.726 73.689 66.693 73.425C66.693 73.293 66.693 73.161 66.759 73.062C66.792 72.963 66.891 72.93 66.99 72.897C67.122 72.897 67.287 72.963 67.386 73.029C67.815 73.161 68.046 73.425 68.178 73.722ZM68.013 74.382C68.046 74.316 68.079 74.217 68.046 74.151C68.046 73.986 67.98 73.854 67.914 73.689C67.815 73.524 67.716 73.425 67.551 73.326C67.419 73.26 67.32 73.227 67.254 73.26C67.188 73.293 67.155 73.392 67.155 73.557C67.188 73.887 67.353 74.184 67.617 74.349C67.683 74.382 67.749 74.415 67.815 74.415C67.914 74.448 67.947 74.448 68.013 74.382Z" fill="white"/>
<path d="M69.564 74.283L69.729 76.791L69.333 76.56L69.201 74.448L68.871 74.25L68.838 73.887L69.564 74.283Z" fill="white"/>
<path d="M71.676 75.867C71.808 76.197 71.907 76.527 71.94 76.89C71.973 77.154 71.94 77.451 71.808 77.715C71.709 77.88 71.511 77.847 71.214 77.682C70.917 77.517 70.719 77.253 70.587 76.989C70.455 76.659 70.356 76.296 70.323 75.933C70.29 75.669 70.323 75.372 70.455 75.108C70.554 74.976 70.752 74.976 71.049 75.141C71.313 75.306 71.544 75.57 71.676 75.867ZM71.544 77.286C71.61 77.088 71.61 76.89 71.577 76.692C71.577 76.461 71.511 76.23 71.445 75.999C71.379 75.801 71.247 75.669 71.082 75.57C70.917 75.471 70.785 75.471 70.752 75.57C70.686 75.768 70.686 75.966 70.719 76.164C70.719 76.395 70.785 76.659 70.851 76.89C70.917 77.088 71.049 77.22 71.214 77.352C71.379 77.418 71.478 77.385 71.544 77.286Z" fill="white"/>
<path d="M73.92 77.2199C74.052 77.5499 74.151 77.9129 74.151 78.2429C74.184 78.5069 74.151 78.8039 74.019 79.0679C73.92 79.2329 73.722 79.1999 73.425 79.0349C73.128 78.8699 72.93 78.6059 72.798 78.3419C72.633 78.0119 72.567 77.6489 72.534 77.2859C72.501 77.0219 72.534 76.7249 72.666 76.4609C72.765 76.3289 72.963 76.3289 73.26 76.4939C73.557 76.6919 73.788 76.9229 73.92 77.2199ZM73.755 78.6389C73.821 78.4409 73.821 78.2429 73.788 78.0449C73.788 77.8139 73.722 77.5499 73.656 77.3519C73.59 77.1539 73.458 77.0219 73.293 76.9229C73.128 76.8239 72.996 76.8239 72.963 76.9229C72.897 77.1209 72.897 77.3189 72.93 77.5169C72.93 77.7479 72.996 78.0119 73.062 78.2429C73.128 78.4409 73.26 78.5729 73.425 78.7049C73.623 78.7709 73.722 78.7709 73.755 78.6389Z" fill="white"/>
<path d="M47.652 66.231L47.685 66.495L46.926 66.033L46.959 66.693L47.652 67.089V67.353L46.992 66.924L47.025 67.584L47.784 68.013V68.31L46.761 67.683L46.629 65.604L47.652 66.231Z" fill="white"/>
<path d="M48.246 66.594L48.378 68.376L49.005 68.772V69.036L48.081 68.475L47.949 66.396L48.246 66.594Z" fill="white"/>
<path d="M49.401 67.287L49.533 69.333L49.236 69.168L49.104 67.089L49.401 67.287Z" fill="white"/>
<path d="M50.886 68.178V68.442L50.127 69.432L51.018 69.96V70.257L49.83 69.498L49.797 69.267L50.556 68.244L49.731 67.716L49.698 67.452L50.886 68.178Z" fill="white"/>
<path d="M52.074 68.904L52.866 71.346L52.569 71.148L52.404 70.62L51.645 70.158L51.546 70.521L51.216 70.323L51.744 68.673L52.074 68.904ZM51.678 69.96L52.272 70.323L51.909 69.168L51.678 69.96Z" fill="white"/>
<path d="M54.252 71.313C54.318 71.445 54.351 71.577 54.384 71.709C54.384 71.874 54.351 72.006 54.252 72.039C54.153 72.072 54.021 72.039 53.823 71.907L53.097 71.478L52.965 69.399L53.691 69.828C53.856 69.927 54.021 70.059 54.12 70.224C54.219 70.356 54.285 70.521 54.285 70.686C54.318 70.785 54.285 70.884 54.219 70.95C54.153 70.983 54.054 71.016 53.988 70.983C54.087 71.082 54.186 71.181 54.252 71.313ZM53.988 71.676C54.054 71.676 54.054 71.61 54.054 71.478C54.054 71.379 54.021 71.28 53.955 71.181C53.889 71.082 53.79 70.983 53.691 70.95L53.328 70.719L53.361 71.379L53.724 71.61C53.856 71.676 53.922 71.676 53.988 71.676ZM53.262 69.861L53.295 70.488L53.658 70.719C53.757 70.785 53.856 70.785 53.889 70.785C53.922 70.785 53.955 70.719 53.955 70.62C53.955 70.521 53.922 70.422 53.856 70.356C53.79 70.257 53.691 70.191 53.592 70.125L53.262 69.861Z" fill="white"/>
<path d="M55.572 70.983L55.605 71.247L54.846 70.818L54.912 71.445L55.572 71.841V72.105L54.912 71.709L54.945 72.336L55.704 72.798L55.737 73.062L54.681 72.435L54.549 70.356L55.572 70.983Z" fill="white"/>
<path d="M57.057 71.874V72.138L56.562 71.841L56.661 73.623L56.364 73.458L56.265 71.643L55.737 71.346V71.082L57.057 71.874Z" fill="white"/>
<path d="M58.707 72.864L58.839 74.943L58.542 74.745L58.476 73.821L57.618 73.326L57.684 74.25L57.387 74.052L57.255 72.006L57.552 72.171L57.618 73.029L58.476 73.557L58.41 72.699L58.707 72.864Z" fill="white"/>
<path d="M70.125 79.728L70.257 81.807L69.96 81.609L69.828 79.86L69.564 79.695L69.531 79.365L70.125 79.728Z" fill="white"/>
<path d="M73.491 81.7081C73.656 81.8071 73.821 81.9391 73.92 82.1041C74.019 82.2691 74.085 82.4341 74.085 82.6321C74.085 82.7641 74.052 82.8961 73.986 83.0281C73.92 83.1271 73.821 83.2261 73.689 83.2591C73.557 83.3251 73.458 83.3581 73.326 83.3581L74.184 83.8861L74.217 84.1501L72.963 83.3911V83.1601C73.194 83.1271 73.392 83.0281 73.59 82.9291C73.722 82.8301 73.821 82.6651 73.788 82.5001C73.788 82.4011 73.755 82.3021 73.689 82.2031C73.623 82.1041 73.557 82.0381 73.458 81.9721C73.359 81.9061 73.26 81.9061 73.227 81.9391C73.161 82.0051 73.128 82.1041 73.161 82.2031L72.864 82.0381C72.864 81.8071 72.897 81.6751 73.029 81.6091C73.227 81.5761 73.392 81.6091 73.491 81.7081Z" fill="white"/>
<path d="M72.699 80.586L72.237 83.457L71.94 83.292L72.435 80.421L72.699 80.586Z" fill="white"/>
<path d="M71.049 80.256C71.214 80.355 71.379 80.487 71.478 80.652C71.577 80.817 71.643 80.982 71.643 81.18C71.643 81.312 71.61 81.444 71.544 81.576C71.478 81.675 71.379 81.774 71.247 81.807C71.115 81.873 71.016 81.906 70.884 81.906L71.742 82.434V82.698L70.488 81.939L70.455 81.708C70.686 81.675 70.884 81.576 71.082 81.477C71.214 81.378 71.313 81.213 71.28 81.048C71.28 80.949 71.247 80.85 71.214 80.751C71.148 80.652 71.082 80.586 70.983 80.52C70.884 80.454 70.818 80.454 70.752 80.487C70.686 80.553 70.653 80.652 70.686 80.751L70.389 80.586C70.389 80.355 70.455 80.223 70.554 80.157C70.752 80.091 70.95 80.124 71.049 80.256Z" fill="white"/>
<path d="M75.603 82.962L75.636 83.259L74.745 82.731L74.778 83.358C74.811 83.325 74.877 83.292 74.943 83.325C75.042 83.325 75.108 83.358 75.207 83.424C75.339 83.49 75.438 83.589 75.537 83.721C75.636 83.82 75.702 83.952 75.735 84.084C75.768 84.216 75.801 84.315 75.801 84.447C75.801 84.678 75.768 84.81 75.669 84.876C75.57 84.942 75.405 84.909 75.207 84.81C75.009 84.711 74.844 84.546 74.745 84.348C74.613 84.183 74.547 83.985 74.514 83.787L74.811 83.952C74.844 84.084 74.877 84.183 74.943 84.282C75.009 84.381 75.075 84.447 75.174 84.513C75.306 84.579 75.372 84.579 75.438 84.546C75.504 84.48 75.537 84.381 75.504 84.282C75.471 84.018 75.339 83.787 75.141 83.655C75.075 83.622 75.009 83.589 74.943 83.589C74.877 83.589 74.844 83.622 74.811 83.655L74.514 83.49L74.448 82.302L75.603 82.962Z" fill="white"/>
<path d="M79.398 69.861C79.464 69.96 79.497 70.092 79.497 70.224C79.497 70.389 79.464 70.488 79.365 70.521C79.266 70.554 79.134 70.521 78.969 70.422L78.276 69.993L78.144 68.145L78.837 68.574C79.002 68.673 79.134 68.772 79.233 68.937C79.332 69.069 79.365 69.201 79.398 69.366C79.431 69.465 79.398 69.531 79.332 69.597C79.266 69.63 79.2 69.663 79.134 69.63C79.266 69.63 79.332 69.729 79.398 69.861ZM79.134 70.092C79.167 70.059 79.2 70.026 79.2 69.96C79.2 69.861 79.167 69.795 79.134 69.729C79.068 69.663 79.002 69.597 78.936 69.531L78.639 69.333L78.672 69.861L78.969 70.059C79.002 70.092 79.068 70.125 79.134 70.092ZM78.54 68.607L78.573 69.102L78.87 69.267C78.936 69.3 79.002 69.333 79.068 69.3C79.134 69.267 79.134 69.234 79.134 69.168C79.134 69.102 79.101 69.003 79.068 68.937C79.002 68.871 78.936 68.805 78.87 68.772L78.54 68.607Z" fill="white"/>
<path d="M80.52 69.531L81.246 71.742L80.916 71.544L80.784 71.115L80.124 70.719L80.025 71.016L79.662 70.818L80.157 69.333L80.52 69.531ZM80.157 70.455L80.652 70.752L80.355 69.828L80.157 70.455Z" fill="white"/>
<path d="M82.698 70.818L82.797 72.666L82.467 72.468L81.642 70.752L81.741 72.039L81.411 71.841L81.279 69.96L81.609 70.158L82.434 71.907L82.368 70.62L82.698 70.818Z" fill="white"/>
<path d="M84.315 71.775L83.688 72.27L84.447 73.656L84.018 73.425L83.358 72.204L83.424 73.062L83.094 72.864L82.962 70.983L83.292 71.181L83.358 72.006L83.919 71.544L84.315 71.775Z" fill="white"/>
<path d="M48.477 55.836L45.87 54.252L48.411 54.681L48.477 55.836Z" fill="#F8C401"/>
<path d="M45.837 56.265L48.642 57.948L48.675 58.674L46.497 57.354C46.134 57.09 45.903 56.694 45.837 56.265Z" fill="#F8C401"/>
<path d="M48.675 58.674L48.642 57.948L48.774 58.014L48.807 58.74L48.741 58.707L48.675 58.674Z" fill="#F15A24"/>
<path d="M48.774 58.014L49.566 58.509L49.599 59.235L48.807 58.74L48.774 58.014Z" fill="#F8C401"/>
<path d="M48.609 57.783L48.741 57.882L49.566 58.344V58.509L48.774 58.014L48.642 57.948L45.837 56.265V56.166V56.1L48.609 57.783Z" fill="#F15A24"/>
<path d="M48.51 56.001L48.609 57.783L45.837 56.1L45.705 54.318L48.51 56.001Z" fill="#F8C401"/>
<path d="M45.705 54.1531L45.87 54.2521L48.477 55.8361L48.51 56.0011L45.705 54.3181V54.1531Z" fill="#F15A24"/>
<path d="M48.411 54.681L45.87 54.252L45.705 54.153L45.639 53.262C45.606 52.866 45.87 52.734 46.233 52.932L48.411 54.252V54.681Z" fill="#F8C401"/>
<path d="M48.378 54.2521L48.51 54.3181L48.543 54.7141L48.609 55.9351L48.642 56.0671L48.741 57.8821L48.609 57.7831L48.51 56.0011L48.477 55.8361L48.411 54.6811L48.378 54.2521Z" fill="#F15A24"/>
<path d="M49.335 54.813L49.467 54.879L49.566 56.628L48.642 56.067L48.609 55.935L49.434 56.397L49.335 54.846V54.813Z" fill="#F15A24"/>
<path d="M50.688 55.638C51.051 55.902 51.282 56.298 51.348 56.727L51.546 59.565L50.457 58.905L50.391 57.651L49.5 57.123L49.566 58.377L48.774 57.882L48.642 56.1L49.566 56.661L49.467 54.912L50.688 55.638Z" fill="#F8C401"/>
<path d="M50.523 59.763L50.49 59.037L51.579 59.697C51.612 60.093 51.348 60.225 51.018 60.027L50.523 59.763Z" fill="#F8C401"/>
<path d="M49.335 54.813V54.846L48.543 54.714L48.51 54.318L49.335 54.813Z" fill="#F8C401"/>
<path d="M48.543 54.714L49.335 54.846L49.434 56.397L48.609 55.935L48.543 54.714Z" fill="#F8C401"/>
<path d="M50.457 58.905L51.546 59.532V59.697L50.457 59.037V58.905Z" fill="#F15A24"/>
<path d="M50.358 57.618L50.457 58.905V59.037L50.523 59.763L50.457 59.73L50.391 59.697L50.259 57.717L49.599 57.321L49.731 59.301L49.665 59.268L49.599 59.235L49.566 58.509V58.344L49.467 57.09L50.358 57.618Z" fill="#F15A24"/>
<path d="M50.259 57.717L50.391 59.697L50.457 59.73L49.665 59.268L49.731 59.301L49.599 57.321L50.259 57.717Z" fill="#F8C401"/>
</svg>
