<svg width="165" height="165" viewBox="0 0 165 165" fill="none" xmlns="http://www.w3.org/2000/svg">
<path d="M138.996 113.289C139.029 112.596 138.897 111.903 138.567 111.276C138.303 110.814 137.874 110.484 137.643 109.989C137.247 109.164 137.544 108.207 137.445 107.316C137.379 106.557 137.049 105.864 136.488 105.303C136.026 104.841 135.399 104.511 134.97 104.016C134.244 103.191 134.013 102.069 133.617 101.046C133.023 99.5939 132 98.4059 130.68 97.5809C131.472 99.1979 129.657 101.244 130.482 102.861C130.746 103.356 131.241 103.752 131.439 104.28C131.901 105.567 130.35 106.986 130.845 108.273C131.109 108.933 131.802 109.296 132.099 109.89C132.528 110.715 132.198 111.705 132.231 112.662C132.264 113.949 133.056 115.104 133.98 115.995C134.574 116.556 135.201 117.018 135.828 117.513C136.587 118.107 136.884 118.734 137.544 117.777C138.435 116.424 138.963 114.873 138.996 113.289Z" fill="#231F20"/>
<path d="M139.821 114.015C139.59 113.025 139.425 111.936 139.821 111.012C140.283 109.956 141.438 109.197 141.537 108.042C141.636 107.283 141.24 106.524 141.405 105.798C141.57 105.072 142.164 104.544 142.659 104.016C143.814 102.762 144.507 101.145 144.606 99.429C145.332 100.386 146.058 101.343 146.454 102.465C146.85 103.587 146.85 104.907 146.19 105.897C145.992 106.128 145.827 106.392 145.728 106.656C145.497 107.382 146.124 108.075 146.454 108.768C146.85 109.56 146.751 110.517 146.223 111.243C145.563 112.068 144.309 112.365 143.979 113.388C143.913 113.751 143.847 114.147 143.88 114.51C143.748 115.863 142.791 116.985 141.504 117.348C140.712 117.546 140.745 117.216 140.613 116.589C140.382 115.731 140.019 114.873 139.821 114.015Z" fill="#231F20"/>
<path d="M137.346 106.887C136.785 104.973 136.587 102.993 135.993 101.079C135.498 99.594 134.904 98.142 134.178 96.756L136.554 97.746C137.313 98.076 138.138 98.439 138.501 99.198C139.128 100.485 138.006 102.135 138.666 103.422C138.897 103.884 139.326 104.181 139.59 104.61C140.283 105.6 140.184 106.92 139.788 108.075C139.623 108.57 138.897 111.078 138.27 110.385C138.006 110.088 138.006 109.065 137.874 108.669C137.709 108.042 137.511 107.448 137.346 106.887Z" fill="#231F20"/>
<path d="M138.6 132.231C138.138 129.096 136.653 118.107 136.62 118.008L137.115 117.942C137.115 118.041 138.6 129.03 139.095 132.165L138.6 132.231Z" fill="#231F20"/>
<path d="M139.227 135.168H138.732C138.765 131.472 140.316 117.282 141.207 116.325L141.57 116.655C140.91 117.381 139.26 131.043 139.227 135.168Z" fill="#231F20"/>
<path d="M140.052 134.475L139.557 134.442C139.92 126.456 138.204 109.692 138.204 109.527L138.699 109.494C138.699 109.659 140.382 126.456 140.052 134.475Z" fill="#231F20"/>
<path d="M134.574 123.288H143.385L142.758 133.287C142.659 135.003 141.372 136.356 139.821 136.356H138.105C136.554 136.356 135.267 135.003 135.168 133.287L134.574 123.288Z" fill="white"/>
<path d="M139.854 136.62H138.138C136.455 136.62 135.069 135.168 134.97 133.32L134.343 123.321C134.343 123.255 134.376 123.189 134.409 123.123C134.442 123.057 134.508 123.057 134.574 123.057H143.385C143.451 123.057 143.517 123.09 143.55 123.123C143.583 123.189 143.616 123.255 143.616 123.321L142.989 133.32C142.923 135.168 141.504 136.62 139.854 136.62ZM134.838 123.552L135.432 133.287C135.531 134.871 136.719 136.125 138.105 136.125H139.821C141.24 136.125 142.428 134.871 142.494 133.287L143.088 123.552H134.838Z" fill="#231F20"/>
<path d="M19.239 73.326H18.513C18.381 73.326 18.282 73.227 18.282 73.095C18.282 72.963 18.381 72.864 18.513 72.864H19.239C19.371 72.864 19.47 72.963 19.47 73.095C19.503 73.227 19.371 73.326 19.239 73.326Z" fill="#D1D3D4"/>
<path d="M124.872 73.326H123.42C123.288 73.326 123.189 73.227 123.189 73.095C123.189 72.963 123.288 72.864 123.42 72.864H124.839C124.971 72.864 125.07 72.963 125.07 73.095C125.103 73.227 124.971 73.326 124.872 73.326ZM122.001 73.326H120.582C120.45 73.326 120.351 73.227 120.351 73.095C120.351 72.963 120.45 72.864 120.582 72.864H122.001C122.133 72.864 122.232 72.963 122.232 73.095C122.232 73.227 122.133 73.326 122.001 73.326ZM119.163 73.326H117.744C117.612 73.326 117.513 73.227 117.513 73.095C117.513 72.963 117.612 72.864 117.744 72.864H119.163C119.295 72.864 119.394 72.963 119.394 73.095C119.394 73.227 119.295 73.326 119.163 73.326ZM116.292 73.326H114.873C114.741 73.326 114.642 73.227 114.642 73.095C114.642 72.963 114.741 72.864 114.873 72.864H116.292C116.424 72.864 116.523 72.963 116.523 73.095C116.523 73.227 116.424 73.326 116.292 73.326ZM113.454 73.326H112.035C111.903 73.326 111.804 73.227 111.804 73.095C111.804 72.963 111.903 72.864 112.035 72.864H113.454C113.586 72.864 113.685 72.963 113.685 73.095C113.685 73.227 113.586 73.326 113.454 73.326ZM110.583 73.326H109.164C109.032 73.326 108.933 73.227 108.933 73.095C108.933 72.963 109.032 72.864 109.164 72.864H110.583C110.715 72.864 110.814 72.963 110.814 73.095C110.814 73.227 110.715 73.326 110.583 73.326ZM107.745 73.326H106.326C106.194 73.326 106.095 73.227 106.095 73.095C106.095 72.963 106.194 72.864 106.326 72.864H107.745C107.877 72.864 107.976 72.963 107.976 73.095C107.976 73.227 107.877 73.326 107.745 73.326ZM104.874 73.326H103.455C103.323 73.326 103.224 73.227 103.224 73.095C103.224 72.963 103.323 72.864 103.455 72.864H104.874C105.006 72.864 105.105 72.963 105.105 73.095C105.105 73.227 105.006 73.326 104.874 73.326ZM102.036 73.326H100.617C100.485 73.326 100.386 73.227 100.386 73.095C100.386 72.963 100.485 72.864 100.617 72.864H102.036C102.168 72.864 102.267 72.963 102.267 73.095C102.267 73.227 102.168 73.326 102.036 73.326ZM99.165 73.326H97.746C97.614 73.326 97.515 73.227 97.515 73.095C97.515 72.963 97.614 72.864 97.746 72.864H99.165C99.297 72.864 99.396 72.963 99.396 73.095C99.396 73.227 99.297 73.326 99.165 73.326ZM96.327 73.326H94.908C94.776 73.326 94.677 73.227 94.677 73.095C94.677 72.963 94.776 72.864 94.908 72.864H96.327C96.459 72.864 96.558 72.963 96.558 73.095C96.558 73.227 96.459 73.326 96.327 73.326ZM93.456 73.326H92.037C91.905 73.326 91.806 73.227 91.806 73.095C91.806 72.963 91.905 72.864 92.037 72.864H93.456C93.588 72.864 93.687 72.963 93.687 73.095C93.687 73.227 93.588 73.326 93.456 73.326ZM90.618 73.326H89.199C89.067 73.326 88.968 73.227 88.968 73.095C88.968 72.963 89.067 72.864 89.199 72.864H90.618C90.75 72.864 90.849 72.963 90.849 73.095C90.849 73.227 90.75 73.326 90.618 73.326ZM87.747 73.326H86.328C86.196 73.326 86.097 73.227 86.097 73.095C86.097 72.963 86.196 72.864 86.328 72.864H87.747C87.879 72.864 87.978 72.963 87.978 73.095C88.011 73.227 87.879 73.326 87.747 73.326ZM84.909 73.326H83.49C83.358 73.326 83.259 73.227 83.259 73.095C83.259 72.963 83.358 72.864 83.49 72.864H84.909C85.041 72.864 85.14 72.963 85.14 73.095C85.14 73.227 85.041 73.326 84.909 73.326ZM82.038 73.326H80.619C80.487 73.326 80.388 73.227 80.388 73.095C80.388 72.963 80.487 72.864 80.619 72.864H82.038C82.17 72.864 82.269 72.963 82.269 73.095C82.302 73.227 82.17 73.326 82.038 73.326ZM79.2 73.326H77.781C77.649 73.326 77.55 73.227 77.55 73.095C77.55 72.963 77.649 72.864 77.781 72.864H79.233C79.365 72.864 79.464 72.963 79.464 73.095C79.431 73.227 79.332 73.326 79.2 73.326ZM76.329 73.326H74.91C74.778 73.326 74.679 73.227 74.679 73.095C74.679 72.963 74.778 72.864 74.91 72.864H76.329C76.461 72.864 76.56 72.963 76.56 73.095C76.593 73.227 76.461 73.326 76.329 73.326ZM73.491 73.326H72.072C71.94 73.326 71.841 73.227 71.841 73.095C71.841 72.963 71.94 72.864 72.072 72.864H73.491C73.623 72.864 73.722 72.963 73.722 73.095C73.722 73.227 73.623 73.326 73.491 73.326ZM70.62 73.326H69.201C69.069 73.326 68.97 73.227 68.97 73.095C68.97 72.963 69.069 72.864 69.201 72.864H70.62C70.752 72.864 70.851 72.963 70.851 73.095C70.851 73.227 70.752 73.326 70.62 73.326ZM67.782 73.326H66.363C66.231 73.326 66.132 73.227 66.132 73.095C66.132 72.963 66.231 72.864 66.363 72.864H67.782C67.914 72.864 68.013 72.963 68.013 73.095C68.013 73.227 67.914 73.326 67.782 73.326ZM64.911 73.326H63.492C63.36 73.326 63.261 73.227 63.261 73.095C63.261 72.963 63.36 72.864 63.492 72.864H64.911C65.043 72.864 65.142 72.963 65.142 73.095C65.175 73.227 65.043 73.326 64.911 73.326ZM62.073 73.326H60.654C60.522 73.326 60.423 73.227 60.423 73.095C60.423 72.963 60.522 72.864 60.654 72.864H62.073C62.205 72.864 62.304 72.963 62.304 73.095C62.304 73.227 62.205 73.326 62.073 73.326ZM59.202 73.326H57.783C57.651 73.326 57.552 73.227 57.552 73.095C57.552 72.963 57.651 72.864 57.783 72.864H59.202C59.334 72.864 59.433 72.963 59.433 73.095C59.466 73.227 59.334 73.326 59.202 73.326ZM56.364 73.326H54.945C54.813 73.326 54.714 73.227 54.714 73.095C54.714 72.963 54.813 72.864 54.945 72.864H56.364C56.496 72.864 56.595 72.963 56.595 73.095C56.595 73.227 56.496 73.326 56.364 73.326ZM53.493 73.326H52.074C51.942 73.326 51.843 73.227 51.843 73.095C51.843 72.963 51.942 72.864 52.074 72.864H53.493C53.625 72.864 53.724 72.963 53.724 73.095C53.757 73.227 53.625 73.326 53.493 73.326ZM50.655 73.326H49.236C49.104 73.326 49.005 73.227 49.005 73.095C49.005 72.963 49.104 72.864 49.236 72.864H50.655C50.787 72.864 50.886 72.963 50.886 73.095C50.886 73.227 50.787 73.326 50.655 73.326ZM47.784 73.326H46.365C46.233 73.326 46.134 73.227 46.134 73.095C46.134 72.963 46.233 72.864 46.365 72.864H47.784C47.916 72.864 48.015 72.963 48.015 73.095C48.048 73.227 47.916 73.326 47.784 73.326ZM44.946 73.326H43.527C43.395 73.326 43.296 73.227 43.296 73.095C43.296 72.963 43.395 72.864 43.527 72.864H44.946C45.078 72.864 45.177 72.963 45.177 73.095C45.177 73.227 45.078 73.326 44.946 73.326ZM42.075 73.326H40.656C40.524 73.326 40.425 73.227 40.425 73.095C40.425 72.963 40.524 72.864 40.656 72.864H42.075C42.207 72.864 42.306 72.963 42.306 73.095C42.339 73.227 42.207 73.326 42.075 73.326ZM39.237 73.326H37.818C37.686 73.326 37.587 73.227 37.587 73.095C37.587 72.963 37.686 72.864 37.818 72.864H39.237C39.369 72.864 39.468 72.963 39.468 73.095C39.468 73.227 39.369 73.326 39.237 73.326ZM36.366 73.326H34.947C34.815 73.326 34.716 73.227 34.716 73.095C34.716 72.963 34.815 72.864 34.947 72.864H36.366C36.498 72.864 36.597 72.963 36.597 73.095C36.63 73.227 36.498 73.326 36.366 73.326ZM33.528 73.326H32.109C31.977 73.326 31.878 73.227 31.878 73.095C31.878 72.963 31.977 72.864 32.109 72.864H33.528C33.66 72.864 33.759 72.963 33.759 73.095C33.759 73.227 33.66 73.326 33.528 73.326ZM30.657 73.326H29.238C29.106 73.326 29.007 73.227 29.007 73.095C29.007 72.963 29.106 72.864 29.238 72.864H30.657C30.789 72.864 30.888 72.963 30.888 73.095C30.921 73.227 30.789 73.326 30.657 73.326ZM27.819 73.326H26.4C26.268 73.326 26.169 73.227 26.169 73.095C26.169 72.963 26.268 72.864 26.4 72.864H27.819C27.951 72.864 28.05 72.963 28.05 73.095C28.083 73.227 27.951 73.326 27.819 73.326ZM24.948 73.326H23.529C23.397 73.326 23.298 73.227 23.298 73.095C23.298 72.963 23.397 72.864 23.529 72.864H24.948C25.08 72.864 25.179 72.963 25.179 73.095C25.212 73.227 25.08 73.326 24.948 73.326ZM22.11 73.326H20.691C20.559 73.326 20.46 73.227 20.46 73.095C20.46 72.963 20.559 72.864 20.691 72.864H22.11C22.242 72.864 22.341 72.963 22.341 73.095C22.341 73.227 22.242 73.326 22.11 73.326Z" fill="#D1D3D4"/>
<path d="M127.017 73.326H126.291C126.159 73.326 126.06 73.227 126.06 73.095C126.06 72.963 126.159 72.864 126.291 72.864H127.017C127.149 72.864 127.248 72.963 127.248 73.095C127.248 73.227 127.149 73.326 127.017 73.326Z" fill="#D1D3D4"/>
<path d="M18.546 136.257L52.965 103.158L77.517 105.303L93.291 93.192L83.127 81.345L130.68 73.854L110.055 115.665L101.244 104.907L77.682 119.625L52.8 116.292L18.546 136.257Z" fill="#C7D36F"/>
<path d="M52.899 136.521C52.767 136.521 52.668 136.422 52.668 136.29V134.838C52.668 134.706 52.767 134.607 52.899 134.607C53.031 134.607 53.13 134.706 53.13 134.838V136.29C53.13 136.389 53.031 136.521 52.899 136.521ZM52.899 133.617C52.767 133.617 52.668 133.518 52.668 133.386V131.934C52.668 131.802 52.767 131.703 52.899 131.703C53.031 131.703 53.13 131.802 53.13 131.934V133.386C53.13 133.518 53.031 133.617 52.899 133.617ZM52.899 130.746C52.767 130.746 52.668 130.647 52.668 130.515V129.03C52.668 128.898 52.767 128.799 52.899 128.799C53.031 128.799 53.13 128.898 53.13 129.03V130.482C53.13 130.614 53.031 130.746 52.899 130.746ZM52.899 127.842C52.767 127.842 52.668 127.743 52.668 127.611V126.159C52.668 126.027 52.767 125.928 52.899 125.928C53.031 125.928 53.13 126.027 53.13 126.159V127.611C53.13 127.743 53.031 127.842 52.899 127.842ZM52.899 124.938C52.767 124.938 52.668 124.839 52.668 124.707V123.255C52.668 123.123 52.767 123.024 52.899 123.024C53.031 123.024 53.13 123.123 53.13 123.255V124.707C53.13 124.839 53.031 124.938 52.899 124.938Z" fill="#D1D3D4"/>
<path d="M77.583 136.488C77.451 136.488 77.352 136.389 77.352 136.257C77.352 136.125 77.451 136.026 77.583 136.026C77.715 136.026 77.814 136.125 77.814 136.257C77.847 136.356 77.748 136.488 77.583 136.488ZM77.583 135.036C77.451 135.036 77.352 134.937 77.352 134.805V133.353C77.352 133.221 77.451 133.122 77.583 133.122C77.715 133.122 77.814 133.221 77.814 133.353V134.805C77.847 134.937 77.715 135.036 77.583 135.036ZM77.583 132.132C77.451 132.132 77.352 132.033 77.352 131.901V130.449C77.352 130.317 77.451 130.218 77.583 130.218C77.715 130.218 77.814 130.317 77.814 130.449V131.901C77.847 132.033 77.715 132.132 77.583 132.132ZM77.583 129.261C77.451 129.261 77.352 129.162 77.352 129.03V127.578C77.352 127.446 77.451 127.347 77.583 127.347C77.715 127.347 77.814 127.446 77.814 127.578V129.03C77.847 129.129 77.715 129.261 77.583 129.261ZM77.583 126.357C77.451 126.357 77.352 126.258 77.352 126.126V124.674C77.352 124.542 77.451 124.443 77.583 124.443C77.715 124.443 77.814 124.542 77.814 124.674V126.126C77.847 126.258 77.715 126.357 77.583 126.357Z" fill="#D1D3D4"/>
<path d="M102.3 136.488C102.168 136.488 102.069 136.389 102.069 136.257V135.795C102.069 135.663 102.168 135.564 102.3 135.564C102.432 135.564 102.531 135.663 102.531 135.795V136.257C102.531 136.389 102.432 136.488 102.3 136.488ZM102.3 134.574C102.168 134.574 102.069 134.475 102.069 134.343V132.891C102.069 132.759 102.168 132.66 102.3 132.66C102.432 132.66 102.531 132.759 102.531 132.891V134.343C102.531 134.475 102.432 134.574 102.3 134.574ZM102.3 131.703C102.168 131.703 102.069 131.604 102.069 131.472V130.02C102.069 129.888 102.168 129.789 102.3 129.789C102.432 129.789 102.531 129.888 102.531 130.02V131.472C102.531 131.604 102.432 131.703 102.3 131.703ZM102.3 128.799C102.168 128.799 102.069 128.7 102.069 128.568V127.116C102.069 126.984 102.168 126.885 102.3 126.885C102.432 126.885 102.531 126.984 102.531 127.116V128.568C102.531 128.7 102.432 128.799 102.3 128.799ZM102.3 125.895C102.168 125.895 102.069 125.796 102.069 125.664V124.212C102.069 124.08 102.168 123.981 102.3 123.981C102.432 123.981 102.531 124.08 102.531 124.212V125.664C102.531 125.796 102.432 125.895 102.3 125.895ZM102.3 123.024C102.168 123.024 102.069 122.925 102.069 122.793V121.341C102.069 121.209 102.168 121.11 102.3 121.11C102.432 121.11 102.531 121.209 102.531 121.341V122.793C102.531 122.925 102.432 123.024 102.3 123.024ZM102.3 120.12C102.168 120.12 102.069 120.021 102.069 119.889V118.437C102.069 118.305 102.168 118.206 102.3 118.206C102.432 118.206 102.531 118.305 102.531 118.437V119.889C102.531 120.021 102.432 120.12 102.3 120.12ZM102.3 117.249C102.168 117.249 102.069 117.15 102.069 117.018V115.566C102.069 115.434 102.168 115.335 102.3 115.335C102.432 115.335 102.531 115.434 102.531 115.566V117.018C102.531 117.117 102.432 117.249 102.3 117.249ZM102.3 114.345C102.168 114.345 102.069 114.246 102.069 114.114V112.662C102.069 112.53 102.168 112.431 102.3 112.431C102.432 112.431 102.531 112.53 102.531 112.662V114.114C102.531 114.246 102.432 114.345 102.3 114.345ZM102.3 111.441C102.168 111.441 102.069 111.342 102.069 111.21V109.758C102.069 109.626 102.168 109.527 102.3 109.527C102.432 109.527 102.531 109.626 102.531 109.758V111.21C102.531 111.342 102.432 111.441 102.3 111.441Z" fill="#D1D3D4"/>
<path d="M127.017 136.488C126.885 136.488 126.786 136.389 126.786 136.257V135.498C126.786 135.366 126.885 135.267 127.017 135.267C127.149 135.267 127.248 135.366 127.248 135.498V136.257C127.248 136.389 127.149 136.488 127.017 136.488ZM127.017 134.277C126.885 134.277 126.786 134.178 126.786 134.046V132.594C126.786 132.462 126.885 132.363 127.017 132.363C127.149 132.363 127.248 132.462 127.248 132.594V134.046C127.248 134.178 127.149 134.277 127.017 134.277ZM127.017 131.373C126.885 131.373 126.786 131.274 126.786 131.142V129.69C126.786 129.558 126.885 129.459 127.017 129.459C127.149 129.459 127.248 129.558 127.248 129.69V131.142C127.248 131.274 127.149 131.373 127.017 131.373ZM127.017 128.502C126.885 128.502 126.786 128.403 126.786 128.271V126.819C126.786 126.687 126.885 126.588 127.017 126.588C127.149 126.588 127.248 126.687 127.248 126.819V128.271C127.248 128.37 127.149 128.502 127.017 128.502ZM127.017 125.598C126.885 125.598 126.786 125.499 126.786 125.367V123.915C126.786 123.783 126.885 123.684 127.017 123.684C127.149 123.684 127.248 123.783 127.248 123.915V125.367C127.248 125.499 127.149 125.598 127.017 125.598ZM127.017 122.694C126.885 122.694 126.786 122.595 126.786 122.463V121.011C126.786 120.879 126.885 120.78 127.017 120.78C127.149 120.78 127.248 120.879 127.248 121.011V122.463C127.248 122.595 127.149 122.694 127.017 122.694C127.017 122.727 127.017 122.727 127.017 122.694ZM127.017 119.823C126.885 119.823 126.786 119.724 126.786 119.592V118.14C126.786 118.008 126.885 117.909 127.017 117.909C127.149 117.909 127.248 118.008 127.248 118.14V119.592C127.248 119.724 127.149 119.823 127.017 119.823ZM127.017 116.919C126.885 116.919 126.786 116.82 126.786 116.688V115.236C126.786 115.104 126.885 115.005 127.017 115.005C127.149 115.005 127.248 115.104 127.248 115.236V116.688C127.248 116.82 127.149 116.919 127.017 116.919ZM127.017 114.048C126.885 114.048 126.786 113.949 126.786 113.817V112.365C126.786 112.233 126.885 112.134 127.017 112.134C127.149 112.134 127.248 112.233 127.248 112.365V113.817C127.248 113.949 127.149 114.048 127.017 114.048ZM127.017 111.144C126.885 111.144 126.786 111.045 126.786 110.913V109.461C126.786 109.329 126.885 109.23 127.017 109.23C127.149 109.23 127.248 109.329 127.248 109.461V110.913C127.248 111.045 127.149 111.144 127.017 111.144ZM127.017 108.273C126.885 108.273 126.786 108.174 126.786 108.042V106.59C126.786 106.458 126.885 106.359 127.017 106.359C127.149 106.359 127.248 106.458 127.248 106.59V108.042C127.248 108.174 127.149 108.273 127.017 108.273ZM127.017 105.369C126.885 105.369 126.786 105.27 126.786 105.138V103.686C126.786 103.554 126.885 103.455 127.017 103.455C127.149 103.455 127.248 103.554 127.248 103.686V105.138C127.248 105.27 127.149 105.369 127.017 105.369ZM127.017 102.465C126.885 102.465 126.786 102.366 126.786 102.234V100.782C126.786 100.65 126.885 100.551 127.017 100.551C127.149 100.551 127.248 100.65 127.248 100.782V102.234C127.248 102.366 127.149 102.465 127.017 102.465ZM127.017 99.594C126.885 99.594 126.786 99.495 126.786 99.363V97.911C126.786 97.779 126.885 97.68 127.017 97.68C127.149 97.68 127.248 97.779 127.248 97.911V99.363C127.248 99.495 127.149 99.594 127.017 99.594ZM127.017 96.69C126.885 96.69 126.786 96.591 126.786 96.459V95.007C126.786 94.875 126.885 94.776 127.017 94.776C127.149 94.776 127.248 94.875 127.248 95.007V96.459C127.248 96.591 127.149 96.69 127.017 96.69ZM127.017 93.819C126.885 93.819 126.786 93.72 126.786 93.588V92.136C126.786 92.004 126.885 91.905 127.017 91.905C127.149 91.905 127.248 92.004 127.248 92.136V93.588C127.248 93.687 127.149 93.819 127.017 93.819Z" fill="#D1D3D4"/>
<path d="M83.688 92.367H82.236C82.104 92.367 82.005 92.268 82.005 92.136C82.005 92.004 82.104 91.905 82.236 91.905H83.688C83.82 91.905 83.919 92.004 83.919 92.136C83.919 92.268 83.82 92.367 83.688 92.367ZM80.784 92.367H79.332C79.2 92.367 79.101 92.268 79.101 92.136C79.101 92.004 79.2 91.905 79.332 91.905H80.784C80.916 91.905 81.015 92.004 81.015 92.136C81.048 92.268 80.916 92.367 80.784 92.367ZM77.913 92.367H76.461C76.329 92.367 76.23 92.268 76.23 92.136C76.23 92.004 76.329 91.905 76.461 91.905H77.913C78.045 91.905 78.144 92.004 78.144 92.136C78.144 92.268 78.045 92.367 77.913 92.367ZM75.009 92.367H73.557C73.425 92.367 73.326 92.268 73.326 92.136C73.326 92.004 73.425 91.905 73.557 91.905H75.009C75.141 91.905 75.24 92.004 75.24 92.136C75.24 92.268 75.141 92.367 75.009 92.367ZM72.138 92.367H70.686C70.554 92.367 70.455 92.268 70.455 92.136C70.455 92.004 70.554 91.905 70.686 91.905H72.138C72.27 91.905 72.369 92.004 72.369 92.136C72.369 92.268 72.27 92.367 72.138 92.367ZM69.234 92.367H67.782C67.65 92.367 67.551 92.268 67.551 92.136C67.551 92.004 67.65 91.905 67.782 91.905H69.234C69.366 91.905 69.465 92.004 69.465 92.136C69.465 92.268 69.366 92.367 69.234 92.367ZM66.33 92.367H64.878C64.746 92.367 64.647 92.268 64.647 92.136C64.647 92.004 64.746 91.905 64.878 91.905H66.297C66.429 91.905 66.528 92.004 66.528 92.136C66.561 92.268 66.462 92.367 66.33 92.367ZM63.459 92.367H62.007C61.875 92.367 61.776 92.268 61.776 92.136C61.776 92.004 61.875 91.905 62.007 91.905H63.459C63.591 91.905 63.69 92.004 63.69 92.136C63.69 92.268 63.591 92.367 63.459 92.367ZM60.555 92.367H59.103C58.971 92.367 58.872 92.268 58.872 92.136C58.872 92.004 58.971 91.905 59.103 91.905H60.555C60.687 91.905 60.786 92.004 60.786 92.136C60.819 92.268 60.687 92.367 60.555 92.367ZM57.684 92.367H56.232C56.1 92.367 56.001 92.268 56.001 92.136C56.001 92.004 56.1 91.905 56.232 91.905H57.684C57.816 91.905 57.915 92.004 57.915 92.136C57.915 92.268 57.816 92.367 57.684 92.367ZM54.78 92.367H53.328C53.196 92.367 53.097 92.268 53.097 92.136C53.097 92.004 53.196 91.905 53.328 91.905H54.78C54.912 91.905 55.011 92.004 55.011 92.136C55.011 92.268 54.912 92.367 54.78 92.367ZM51.909 92.367H50.457C50.325 92.367 50.226 92.268 50.226 92.136C50.226 92.004 50.325 91.905 50.457 91.905H51.909C52.041 91.905 52.14 92.004 52.14 92.136C52.14 92.268 52.041 92.367 51.909 92.367ZM49.005 92.367H47.553C47.421 92.367 47.322 92.268 47.322 92.136C47.322 92.004 47.421 91.905 47.553 91.905H49.005C49.137 91.905 49.236 92.004 49.236 92.136C49.236 92.268 49.137 92.367 49.005 92.367ZM46.101 92.367H44.649C44.517 92.367 44.418 92.268 44.418 92.136C44.418 92.004 44.517 91.905 44.649 91.905H46.101C46.233 91.905 46.332 92.004 46.332 92.136C46.365 92.268 46.233 92.367 46.101 92.367ZM43.23 92.367H41.778C41.646 92.367 41.547 92.268 41.547 92.136C41.547 92.004 41.646 91.905 41.778 91.905H43.23C43.362 91.905 43.461 92.004 43.461 92.136C43.461 92.268 43.362 92.367 43.23 92.367ZM40.326 92.367H38.874C38.742 92.367 38.643 92.268 38.643 92.136C38.643 92.004 38.742 91.905 38.874 91.905H40.326C40.458 91.905 40.557 92.004 40.557 92.136C40.557 92.268 40.458 92.367 40.326 92.367ZM37.455 92.367H36.003C35.871 92.367 35.772 92.268 35.772 92.136C35.772 92.004 35.871 91.905 36.003 91.905H37.455C37.587 91.905 37.686 92.004 37.686 92.136C37.686 92.268 37.587 92.367 37.455 92.367ZM34.551 92.367H33.099C32.967 92.367 32.868 92.268 32.868 92.136C32.868 92.004 32.967 91.905 33.099 91.905H34.551C34.683 91.905 34.782 92.004 34.782 92.136C34.782 92.268 34.683 92.367 34.551 92.367ZM31.68 92.367H30.228C30.096 92.367 29.997 92.268 29.997 92.136C29.997 92.004 30.096 91.905 30.228 91.905H31.68C31.812 91.905 31.911 92.004 31.911 92.136C31.911 92.268 31.812 92.367 31.68 92.367ZM28.776 92.367H27.324C27.192 92.367 27.093 92.268 27.093 92.136C27.093 92.004 27.192 91.905 27.324 91.905H28.776C28.908 91.905 29.007 92.004 29.007 92.136C29.007 92.268 28.908 92.367 28.776 92.367ZM25.872 92.367H24.42C24.288 92.367 24.189 92.268 24.189 92.136C24.189 92.004 24.288 91.905 24.42 91.905H25.872C26.004 91.905 26.103 92.004 26.103 92.136C26.136 92.268 26.004 92.367 25.872 92.367ZM23.001 92.367H21.549C21.417 92.367 21.318 92.268 21.318 92.136C21.318 92.004 21.417 91.905 21.549 91.905H23.001C23.133 91.905 23.232 92.004 23.232 92.136C23.232 92.268 23.133 92.367 23.001 92.367ZM20.097 92.367H18.645C18.513 92.367 18.414 92.268 18.414 92.136C18.414 92.004 18.513 91.905 18.645 91.905H20.097C20.229 91.905 20.328 92.004 20.328 92.136C20.361 92.268 20.229 92.367 20.097 92.367Z" fill="#D1D3D4"/>
<path d="M145.2 136.455H18.546C18.414 136.455 18.315 136.356 18.315 136.224V51.975C18.315 51.843 18.414 51.744 18.513 51.744C18.645 51.744 18.744 51.843 18.744 51.942V135.993H145.2C145.332 135.993 145.431 136.059 145.431 136.191C145.431 136.323 145.365 136.422 145.233 136.422C145.233 136.455 145.233 136.455 145.2 136.455Z" fill="#231F20"/>
<path d="M41.184 108.537H40.161C40.029 108.537 39.93 108.438 39.93 108.306C39.93 108.174 40.029 108.075 40.161 108.075H41.184C41.316 108.075 41.415 108.174 41.415 108.306C41.448 108.438 41.316 108.537 41.184 108.537ZM38.742 108.537H37.29C37.158 108.537 37.059 108.438 37.059 108.306C37.059 108.174 37.158 108.075 37.29 108.075H38.742C38.874 108.075 38.973 108.174 38.973 108.306C38.973 108.438 38.874 108.537 38.742 108.537ZM35.838 108.537H34.386C34.254 108.537 34.155 108.438 34.155 108.306C34.155 108.174 34.254 108.075 34.386 108.075H35.838C35.97 108.075 36.069 108.174 36.069 108.306C36.069 108.438 35.97 108.537 35.838 108.537ZM32.934 108.537H31.482C31.35 108.537 31.251 108.438 31.251 108.306C31.251 108.174 31.35 108.075 31.482 108.075H32.934C33.066 108.075 33.165 108.174 33.165 108.306C33.198 108.438 33.099 108.537 32.934 108.537C32.967 108.537 32.967 108.537 32.934 108.537ZM30.063 108.537H28.611C28.479 108.537 28.38 108.438 28.38 108.306C28.38 108.174 28.479 108.075 28.611 108.075H30.063C30.195 108.075 30.294 108.174 30.294 108.306C30.294 108.438 30.195 108.537 30.063 108.537ZM27.159 108.537H25.74C25.608 108.537 25.509 108.438 25.509 108.306C25.509 108.174 25.608 108.075 25.74 108.075H27.192C27.324 108.075 27.423 108.174 27.423 108.306C27.423 108.438 27.324 108.537 27.159 108.537ZM24.288 108.537H22.836C22.704 108.537 22.605 108.438 22.605 108.306C22.605 108.174 22.704 108.075 22.836 108.075H24.288C24.42 108.075 24.519 108.174 24.519 108.306C24.519 108.438 24.42 108.537 24.288 108.537ZM21.384 108.537H19.932C19.8 108.537 19.701 108.438 19.701 108.306C19.701 108.174 19.8 108.075 19.932 108.075H21.384C21.516 108.075 21.615 108.174 21.615 108.306C21.615 108.438 21.516 108.537 21.384 108.537Z" fill="#D1D3D4"/>
<path d="M78.309 85.272C78.243 85.272 78.177 85.239 78.144 85.206C77.748 84.777 77.22 84.546 76.626 84.546C76.527 84.546 76.461 84.513 76.428 84.414C76.395 84.348 76.395 84.249 76.461 84.183L79.563 80.322C79.629 80.223 79.761 80.223 79.86 80.289C79.893 80.322 79.926 80.355 79.926 80.421C80.256 80.553 80.586 80.586 80.949 80.553C81.048 80.553 81.114 80.586 81.18 80.652C81.213 80.718 81.213 80.817 81.18 80.883L78.474 85.173C78.441 85.206 78.408 85.239 78.309 85.272ZM77.088 84.15C77.517 84.216 77.946 84.414 78.276 84.711L80.619 81.015C80.322 81.015 80.058 80.949 79.794 80.817L77.088 84.15Z" fill="#231F20"/>
<path d="M46.365 85.371C46.332 85.371 46.266 85.371 46.233 85.338C46.167 85.305 46.134 85.239 46.134 85.173V84.084C46.134 84.018 46.167 83.952 46.2 83.919C47.586 82.698 50.292 82.533 50.391 82.533C50.457 82.533 50.523 82.566 50.556 82.599C50.589 82.632 50.622 82.698 50.622 82.764V84.546C50.622 84.612 50.589 84.678 50.556 84.711C50.523 84.744 50.457 84.777 50.391 84.777C48.576 84.513 46.464 85.371 46.431 85.404C46.431 85.371 46.398 85.371 46.365 85.371ZM46.596 84.183V84.843C47.751 84.414 49.005 84.216 50.226 84.282V82.995C49.566 83.061 47.685 83.325 46.596 84.183Z" fill="#231F20"/>
<path d="M56.496 62.502H56.463C54.384 62.04 53.295 59.4 53.229 59.301C53.196 59.202 53.229 59.136 53.295 59.07L54.747 57.717C54.846 57.651 54.978 57.651 55.044 57.717C55.077 57.75 55.077 57.783 55.11 57.816C55.44 59.235 57.255 60.192 57.618 60.39C57.684 60.423 57.717 60.456 57.75 60.522C57.783 60.588 57.75 60.654 57.717 60.687L56.727 62.403C56.661 62.469 56.595 62.502 56.496 62.502ZM53.691 59.268C53.922 59.796 54.879 61.578 56.397 62.04L57.189 60.654C56.562 60.291 55.242 59.466 54.78 58.245L53.691 59.268Z" fill="#231F20"/>
<path d="M34.881 103.917C32.901 103.917 31.845 101.31 31.779 101.211C31.746 101.145 31.746 101.046 31.812 100.98L32.802 99.759C32.868 99.693 32.934 99.66 33.033 99.693C33.132 99.726 33.165 99.792 33.198 99.891C33.363 101.244 34.518 101.64 35.277 101.871C35.64 102.003 35.871 102.069 35.97 102.267C36.003 102.333 36.003 102.399 35.97 102.465L35.145 103.818C35.112 103.884 35.046 103.917 34.98 103.917H34.881ZM32.241 101.145C32.472 101.64 33.396 103.455 34.848 103.455L35.508 102.366C35.409 102.333 35.277 102.3 35.178 102.234C34.485 102.003 33.297 101.607 32.901 100.353L32.241 101.145Z" fill="#231F20"/>
<path d="M64.218 100.287C64.152 100.287 64.086 100.254 64.053 100.221L63.327 99.297C63.294 99.231 63.261 99.165 63.294 99.099C63.591 98.241 65.307 97.02 65.472 96.888C65.538 96.855 65.604 96.822 65.67 96.855C65.736 96.855 65.802 96.921 65.802 96.987L66.264 98.076C66.297 98.142 66.297 98.208 66.264 98.241C66.231 98.307 66.198 98.34 66.132 98.373C65.208 98.703 64.416 100.188 64.416 100.188C64.383 100.221 64.317 100.287 64.218 100.287ZM63.723 99.099L64.185 99.66C64.449 99.231 65.043 98.373 65.769 98.01L65.505 97.35C64.944 97.779 63.987 98.571 63.723 99.099Z" fill="#231F20"/>
<path d="M131.274 34.287C131.274 34.287 136.191 32.571 135.63 31.911C135.069 31.251 133.089 31.911 133.089 31.911C133.089 31.911 136.125 29.766 135.696 28.776C135.267 27.786 129.657 32.142 129.657 32.142" fill="white"/>
<path d="M131.274 34.518C131.142 34.518 131.043 34.419 131.043 34.287C131.043 34.188 131.109 34.089 131.208 34.056C133.122 33.396 135.234 32.439 135.432 32.043C135.069 31.68 133.848 31.911 133.155 32.142C133.056 32.175 132.924 32.142 132.858 32.01C132.792 31.911 132.825 31.779 132.924 31.713C134.079 30.888 135.696 29.436 135.432 28.875C135.069 28.644 132.462 30.228 129.756 32.34C129.657 32.439 129.492 32.439 129.426 32.34C129.327 32.241 129.327 32.076 129.426 32.01L129.459 31.977C130.284 31.35 134.409 28.149 135.531 28.446C135.663 28.479 135.795 28.578 135.861 28.71C136.224 29.502 135.036 30.69 134.079 31.449C134.706 31.35 135.399 31.383 135.762 31.779C135.861 31.878 135.894 32.043 135.861 32.175C135.663 32.967 132.33 34.188 131.307 34.551C131.307 34.518 131.274 34.518 131.274 34.518Z" fill="#231F20"/>
<path d="M83.556 55.2091C83.556 55.2091 80.289 57.2221 80.223 56.7931C80.157 56.3641 81.213 55.2091 81.213 55.2091C81.213 55.2091 77.286 55.9351 76.791 55.5721C76.296 55.2091 77.418 54.0871 78.276 53.8561C79.134 53.6251 84.018 52.3711 84.018 52.3711" fill="white"/>
<path d="M80.289 57.09C80.256 57.09 80.19 57.09 80.157 57.057C80.058 57.024 79.992 56.925 79.992 56.826C79.959 56.496 80.289 55.968 80.619 55.539C79.233 55.77 77.088 56.067 76.659 55.737C76.494 55.605 76.395 55.374 76.461 55.176C76.56 54.549 77.517 53.79 78.21 53.592C79.068 53.361 83.754 52.173 83.952 52.107C84.084 52.074 84.216 52.14 84.249 52.272C84.282 52.404 84.216 52.536 84.084 52.569C84.051 52.569 79.2 53.79 78.342 54.054C77.715 54.252 76.989 54.912 76.923 55.275C76.923 55.341 76.923 55.341 76.956 55.374C77.253 55.539 79.398 55.308 81.213 54.945C81.345 54.912 81.477 55.011 81.51 55.143C81.51 55.209 81.51 55.308 81.444 55.341C81.114 55.704 80.817 56.1 80.586 56.529C81.576 56.067 82.566 55.572 83.49 54.945C83.589 54.879 83.754 54.912 83.82 55.011C83.886 55.11 83.853 55.275 83.754 55.341C81.312 56.892 80.553 57.09 80.289 57.09Z" fill="#231F20"/>
<path d="M115.071 59.4C115.071 59.4 124.74 66.891 125.004 69.201C125.268 71.511 123.651 82.83 123.651 82.83L117.15 83.886C117.15 83.886 119.262 70.983 118.635 70.488C118.008 69.993 111.012 65.175 111.012 65.175C111.012 65.175 109.23 74.976 108.141 77.451C107.349 79.2 100.98 86.757 100.98 86.757L95.073 85.866C95.073 85.866 100.518 76.296 101.145 74.316C101.772 72.336 102.201 61.776 102.201 61.776L115.071 59.4Z" fill="#231F20"/>
<path d="M100.98 87.0211H100.947L95.04 86.1301C94.974 86.1301 94.908 86.0641 94.875 85.9981C94.842 85.9321 94.842 85.8331 94.875 85.7671C94.941 85.6681 100.32 76.1971 100.947 74.2501C101.574 72.3031 102.003 61.8751 102.003 61.7761C102.003 61.6771 102.102 61.5781 102.201 61.5451L115.038 59.1691C115.104 59.1691 115.17 59.1691 115.236 59.2021C115.632 59.4991 124.971 66.7921 125.268 69.1681C125.532 71.5111 123.981 82.3681 123.915 82.8301C123.915 82.9291 123.816 83.0281 123.717 83.0281L117.249 84.1171C117.183 84.1171 117.084 84.1171 117.051 84.0511C116.985 83.9851 116.985 83.9191 116.985 83.8531C117.975 77.8801 118.833 71.2471 118.536 70.6531C118.041 70.2571 112.629 66.5281 111.276 65.5711C110.946 67.3861 109.461 75.3061 108.438 77.5171C107.646 79.2661 101.508 86.5921 101.244 86.8891C101.112 86.9881 101.046 87.0211 100.98 87.0211ZM95.469 85.7011L100.881 86.5261C101.64 85.6021 107.217 78.9691 107.91 77.3851C108.999 74.9761 110.748 65.2741 110.781 65.1751C110.781 65.1091 110.847 65.0101 110.913 64.9771C110.979 64.9441 111.078 64.9441 111.144 65.0101C111.441 65.2081 118.14 69.8611 118.767 70.3231C119.394 70.7851 118.239 78.7051 117.414 83.6221L123.42 82.6321C123.618 81.2131 124.971 71.3791 124.74 69.2671C124.542 67.4521 117.711 61.8091 115.005 59.6641L102.465 62.0071C102.399 63.4921 101.97 72.5671 101.409 74.4151C100.815 76.1971 96.426 84.0181 95.469 85.7011Z" fill="#231F20"/>
<path d="M115.071 59.4001L102.234 61.7761L105.435 42.8341C105.435 42.8341 111.87 42.6031 113.025 43.2631C114.18 43.9231 115.071 59.4001 115.071 59.4001Z" fill="white"/>
<path d="M102.234 62.0401C102.168 62.0401 102.102 62.0071 102.069 61.9741C102.003 61.9081 102.003 61.8421 102.003 61.7761L105.204 42.8341C105.237 42.7351 105.303 42.6361 105.435 42.6361C106.095 42.6031 112.002 42.4051 113.157 43.0981C113.454 43.2631 114.477 44.9461 115.302 59.4331C115.302 59.5651 115.236 59.6641 115.104 59.6971L102.3 62.0401H102.234ZM105.633 43.0981L102.531 61.5121L114.807 59.2351C114.378 51.8101 113.553 43.9561 112.893 43.4941C112.035 42.9661 107.547 42.9991 105.633 43.0981Z" fill="#231F20"/>
<path d="M108.108 41.25C107.91 41.349 108.108 44.154 108.108 44.418C108.108 46.761 108.174 49.17 108.108 51.48C107.943 56.1 104.61 60.588 102.135 64.218C101.805 64.713 101.442 65.208 100.881 65.406C100.452 65.505 100.023 65.472 99.627 65.34C97.878 64.911 96.261 64.119 94.842 63.03C94.644 62.898 94.479 62.7 94.38 62.502C94.248 62.139 94.479 61.776 94.677 61.446C97.251 57.255 99.198 52.701 100.452 47.949C101.475 44.154 104.808 42.834 108.108 41.25Z" fill="#C7D36F"/>
<path d="M116.49 39.501C116.556 39.501 116.886 47.52 116.886 47.85C117.084 50.292 116.061 55.506 114.873 57.585C114.939 54.945 113.586 51.546 112.431 49.203C111.87 48.081 111.771 45.606 111.639 44.352C111.639 44.22 111.309 41.481 111.243 41.448C111.243 41.448 114.444 39.105 116.49 39.501Z" fill="#C7D36F"/>
<path d="M111.078 40.6891L111.573 43.1971C111.573 43.1971 111.474 44.4181 109.725 44.3521C107.976 44.2861 107.481 43.1971 107.481 43.1971L106.689 38.4781C106.689 38.4781 107.58 37.5541 106.656 34.9141C106.656 34.9141 109.395 35.1451 111.837 34.3201C111.837 34.3201 112.53 37.3561 112.596 38.7091C112.662 40.0621 111.078 40.6891 111.078 40.6891Z" fill="white"/>
<path d="M109.857 44.616H109.758C107.877 44.583 107.316 43.362 107.283 43.329C107.283 43.296 107.283 43.296 107.283 43.263L106.491 38.544C106.491 38.478 106.491 38.379 106.557 38.346C106.557 38.346 107.316 37.455 106.458 35.046C106.425 34.98 106.458 34.881 106.491 34.815C106.557 34.749 106.623 34.716 106.689 34.716C106.722 34.716 109.428 34.947 111.771 34.122C111.837 34.089 111.903 34.089 111.969 34.122C112.035 34.155 112.068 34.221 112.101 34.287C112.134 34.419 112.794 37.356 112.86 38.709C112.926 39.93 111.837 40.59 111.375 40.821L111.837 43.131C111.837 43.164 111.837 43.164 111.837 43.197C111.87 43.197 111.705 44.616 109.857 44.616ZM107.745 43.164C107.811 43.329 108.306 44.121 109.758 44.154C111.111 44.187 111.342 43.395 111.342 43.23L110.847 40.755C110.814 40.656 110.88 40.524 111.012 40.491C111.012 40.491 112.431 39.897 112.365 38.775C112.2 37.389 111.969 36.036 111.672 34.716C110.154 35.145 108.603 35.343 107.019 35.277C107.679 37.323 107.184 38.313 106.986 38.643L107.745 43.164Z" fill="#231F20"/>
<path d="M107.481 38.214C107.382 37.983 107.217 37.818 106.986 37.719C106.788 37.62 106.557 37.554 106.326 37.554C106.194 37.521 106.095 37.521 105.963 37.554C105.897 37.587 105.798 37.62 105.732 37.686C105.567 37.818 105.468 37.983 105.435 38.214C105.435 38.379 105.435 38.544 105.501 38.709C105.567 38.874 105.633 39.039 105.732 39.204C106.161 39.798 107.019 39.963 107.613 39.534" fill="white"/>
<path d="M106.854 39.9631C106.755 39.9631 106.689 39.9631 106.59 39.9301C106.161 39.8641 105.798 39.6331 105.534 39.2701C105.435 39.1051 105.336 38.9071 105.27 38.7421C105.204 38.5441 105.171 38.3461 105.171 38.1481C105.204 37.8841 105.369 37.6531 105.567 37.4881C105.666 37.4221 105.765 37.3561 105.864 37.2901C106.029 37.2571 106.194 37.2241 106.326 37.2571C106.59 37.2901 106.821 37.3561 107.052 37.4551C107.316 37.5871 107.514 37.8181 107.646 38.0821C107.712 38.1811 107.679 38.3461 107.58 38.4121C107.481 38.4781 107.316 38.4451 107.25 38.3461C107.25 38.3461 107.25 38.3131 107.217 38.3131C107.118 38.1481 106.986 38.0161 106.821 37.9171C106.656 37.8511 106.458 37.7851 106.26 37.7851C106.161 37.7521 106.095 37.7521 105.996 37.7851C105.93 37.8181 105.897 37.8511 105.864 37.8841C105.765 37.9831 105.666 38.1151 105.633 38.2471C105.633 38.3791 105.666 38.5111 105.699 38.6101C105.765 38.7751 105.831 38.9071 105.897 39.0391C106.062 39.2701 106.326 39.4351 106.623 39.5011C106.92 39.5341 107.217 39.4681 107.448 39.3031C107.547 39.2371 107.712 39.2371 107.778 39.3691C107.844 39.5011 107.844 39.6331 107.712 39.6991C107.514 39.8641 107.184 39.9631 106.854 39.9631Z" fill="#231F20"/>
<path d="M110.088 36.597C110.088 36.597 111.276 37.686 111.144 37.95C111.012 38.214 110.385 38.214 110.385 38.214" fill="white"/>
<path d="M110.385 38.478C110.253 38.478 110.154 38.379 110.154 38.247C110.154 38.115 110.253 38.016 110.385 38.016C110.55 38.016 110.748 37.983 110.913 37.884C110.649 37.488 110.319 37.092 109.956 36.795C109.857 36.696 109.857 36.564 109.956 36.465C110.055 36.366 110.187 36.366 110.286 36.465C111.606 37.686 111.441 37.983 111.375 38.115C111.144 38.445 110.517 38.478 110.385 38.478Z" fill="#231F20"/>
<path d="M111.078 40.6891C111.078 40.6891 109.758 40.9201 109.098 40.6891C109.098 40.6891 109.89 42.0751 111.375 42.2071L111.078 40.6891Z" fill="#231F20"/>
<path d="M111.375 42.4711C109.758 42.3391 108.933 40.8871 108.9 40.8211C108.867 40.7221 108.867 40.6231 108.933 40.5571C108.999 40.4911 109.098 40.4581 109.197 40.4911C109.692 40.6891 110.715 40.5571 111.045 40.4911C111.177 40.4581 111.309 40.5571 111.309 40.6891L111.606 42.2071C111.606 42.2731 111.606 42.3721 111.54 42.4051C111.507 42.4381 111.441 42.4711 111.375 42.4711ZM109.659 41.0521C110.022 41.4811 110.517 41.8111 111.078 41.9431L110.913 40.9861C110.484 41.0521 110.055 41.0521 109.659 41.0521Z" fill="#231F20"/>
<path d="M104.94 37.488C104.841 37.488 104.742 37.422 104.709 37.323C104.28 36.168 104.511 34.848 105.369 33.957L105.402 33.924C105.468 33.858 105.501 33.825 105.567 33.726C105.6 33.66 105.6 33.627 105.633 33.561V33.495C105.864 32.703 106.425 32.076 107.151 31.746C107.844 31.416 108.57 31.218 109.329 31.185C109.923 31.086 110.55 31.119 111.111 31.251C111.738 31.416 112.299 31.845 112.563 32.439C112.827 33.099 112.596 33.858 111.969 34.221C111.87 34.287 111.705 34.254 111.639 34.122C111.573 34.023 111.606 33.858 111.738 33.792C111.738 33.792 111.738 33.792 111.771 33.792C112.167 33.528 112.332 33.033 112.134 32.604C111.903 32.142 111.507 31.812 111.012 31.713C110.484 31.581 109.923 31.581 109.395 31.68C108.702 31.713 108.009 31.911 107.382 32.208C106.788 32.505 106.326 33.033 106.095 33.66V33.726C106.062 33.825 106.029 33.924 105.996 33.99C105.93 34.089 105.864 34.221 105.765 34.287L105.732 34.32C105.006 35.112 104.808 36.201 105.171 37.191C105.237 37.323 105.171 37.455 105.072 37.521C105.072 37.521 105.072 37.521 105.039 37.521C105.006 37.488 104.973 37.488 104.94 37.488Z" fill="#231F20"/>
<path d="M108.24 36.4321C108.24 36.4321 108.603 35.7061 109.263 36.3001L108.24 36.4321Z" fill="white"/>
<path d="M108.24 36.663C108.207 36.663 108.174 36.663 108.141 36.63C108.009 36.564 107.976 36.432 108.042 36.3C108.174 36.069 108.372 35.871 108.669 35.805C108.966 35.772 109.263 35.871 109.461 36.102C109.56 36.201 109.56 36.333 109.461 36.432C109.362 36.531 109.23 36.531 109.131 36.432C109.032 36.333 108.9 36.267 108.735 36.267C108.636 36.3 108.537 36.399 108.471 36.498C108.405 36.597 108.339 36.663 108.24 36.663Z" fill="#231F20"/>
<path d="M110.682 36.333C110.682 36.333 110.847 35.409 111.606 36.003L110.682 36.333Z" fill="white"/>
<path d="M110.682 36.564H110.649C110.517 36.531 110.451 36.399 110.451 36.3C110.517 36.003 110.682 35.739 110.946 35.607C111.243 35.541 111.54 35.607 111.738 35.805C111.837 35.904 111.87 36.036 111.771 36.135C111.672 36.234 111.54 36.267 111.441 36.168C111.309 36.069 111.177 36.003 111.111 36.036C111.045 36.069 110.946 36.267 110.913 36.366C110.88 36.498 110.781 36.564 110.682 36.564Z" fill="#231F20"/>
<path d="M111.87 38.214C111.87 38.214 110.187 40.953 108.801 38.412L111.87 38.214Z" fill="white"/>
<path d="M110.154 39.732H110.121C109.527 39.732 109.032 39.303 108.603 38.511C108.537 38.379 108.57 38.247 108.702 38.181C108.834 38.115 108.966 38.148 109.032 38.28C109.362 38.907 109.725 39.237 110.121 39.237H110.154C110.814 39.237 111.474 38.412 111.672 38.082C111.738 37.983 111.903 37.95 112.002 38.016C112.101 38.082 112.134 38.247 112.068 38.346C112.035 38.412 111.21 39.732 110.154 39.732Z" fill="#231F20"/>
<path d="M105.435 42.834L82.731 52.239V55.836L102.234 51.579L105.435 42.834Z" fill="#C7D36F"/>
<path d="M110.253 44.8141L109.263 45.7711L110.055 46.2991C110.055 46.2991 109.23 52.4701 106.293 53.3611C103.356 54.2521 102.234 53.9551 102.234 53.9551L100.617 56.0341C100.617 56.0341 103.125 56.7601 103.29 56.8261C103.455 56.8921 108.768 55.6381 109.626 52.3711C110.121 50.4241 110.451 48.4441 110.616 46.4641L111.144 45.8041L110.253 44.8141Z" fill="#231F20"/>
<path d="M106.986 51.1831C106.92 51.1831 106.821 51.1501 106.788 51.0841L104.313 47.7181C104.247 47.6191 104.247 47.4871 104.346 47.4211L105.732 45.9691L103.983 45.5071C103.851 45.4741 103.785 45.3421 103.818 45.2101C103.818 45.1771 103.851 45.1441 103.884 45.1111L106.161 42.7021C106.26 42.6031 106.392 42.6031 106.491 42.7021C106.59 42.8011 106.59 42.9331 106.491 43.0321L104.511 45.1441L106.26 45.6061C106.326 45.6391 106.392 45.7051 106.425 45.7711C106.458 45.8701 106.425 45.9361 106.359 46.0021L104.808 47.5861L107.151 50.7871C107.217 50.8861 107.217 51.0511 107.085 51.1171C107.085 51.1501 107.052 51.1831 106.986 51.1831Z" fill="#231F20"/>
<path d="M98.043 61.512C97.911 61.512 97.812 61.38 97.845 61.248C97.845 61.149 97.911 61.083 98.01 61.05C99.528 60.654 102.333 59.796 102.366 59.796C102.498 59.763 102.63 59.829 102.663 59.961C102.696 60.093 102.63 60.192 102.498 60.258C102.465 60.258 99.66 61.116 98.142 61.512C98.109 61.512 98.076 61.512 98.043 61.512Z" fill="#231F20"/>
<path d="M99.198 52.206C99.165 52.206 99.165 52.206 99.132 52.206C99 52.173 98.934 52.041 98.967 51.909C98.967 51.876 99.825 48.246 100.386 46.332C100.419 46.2 100.551 46.134 100.683 46.167C100.815 46.2 100.881 46.332 100.848 46.464C100.287 48.345 99.429 51.975 99.429 52.008C99.429 52.14 99.33 52.206 99.198 52.206Z" fill="#231F20"/>
<path d="M112.431 40.689L129.624 31.317L132.66 34.353L115.071 45.738L112.431 40.689Z" fill="#C7D36F"/>
<path d="M116.82 46.662C116.688 46.662 116.589 46.53 116.589 46.398C116.589 46.365 116.919 42.273 115.995 40.821C115.929 40.722 115.962 40.557 116.061 40.491C116.16 40.425 116.325 40.458 116.391 40.557C117.381 42.141 117.051 46.266 117.051 46.431C117.084 46.563 116.952 46.662 116.82 46.662Z" fill="#231F20"/>
<path d="M113.586 48.741C113.553 48.741 113.52 48.741 113.52 48.741C113.388 48.708 113.322 48.543 113.388 48.444L114.774 44.55L113.058 44.154C112.992 44.121 112.926 44.088 112.893 44.022C112.86 43.956 112.86 43.857 112.926 43.791L114.048 42.009L112.596 41.712C112.464 41.679 112.365 41.58 112.398 41.448C112.431 41.316 112.53 41.217 112.662 41.25H112.695L114.51 41.613C114.576 41.646 114.642 41.679 114.675 41.745C114.708 41.811 114.708 41.91 114.642 41.976L113.52 43.791L115.17 44.187C115.236 44.187 115.302 44.253 115.335 44.319C115.368 44.385 115.368 44.451 115.335 44.517L113.85 48.642C113.784 48.675 113.685 48.741 113.586 48.741Z" fill="#231F20"/>
<path d="M110.616 59.136C110.484 59.136 110.385 59.037 110.385 58.905C110.385 58.839 110.517 52.536 110.418 49.203C110.418 49.071 110.517 48.972 110.649 48.972C110.781 48.972 110.88 49.071 110.913 49.203C110.979 52.536 110.88 58.839 110.88 58.905C110.847 59.037 110.748 59.136 110.616 59.136Z" fill="#D1D3D4"/>
<path d="M95.073 85.8661L93.192 89.2321C93.192 89.2321 104.379 92.0371 104.115 90.6181C103.851 89.1991 100.947 86.7241 100.947 86.7241L95.073 85.8661Z" fill="white"/>
<path d="M103.059 91.2451C100.419 91.2451 94.545 89.7931 93.159 89.4631C93.027 89.4301 92.961 89.2981 92.994 89.1661C92.994 89.1331 92.994 89.1331 93.027 89.1001L94.908 85.734C94.941 85.635 95.04 85.6021 95.172 85.6021L101.079 86.4931C101.112 86.4931 101.178 86.526 101.211 86.559C101.343 86.658 104.181 89.1001 104.445 90.5851C104.478 90.7501 104.412 90.882 104.313 91.014C104.082 91.179 103.653 91.2451 103.059 91.2451ZM93.588 89.1001C98.307 90.2551 103.521 91.179 103.917 90.684C103.719 89.661 101.706 87.7141 100.881 87.0211L95.205 86.1301L93.588 89.1001Z" fill="#231F20"/>
<path d="M117.15 83.8861L116.556 87.4501C116.556 87.4501 127.479 85.5031 126.984 83.9191C126.489 82.3351 123.651 82.8301 123.651 82.8301" fill="white"/>
<path d="M116.556 87.681C116.49 87.681 116.424 87.648 116.391 87.615C116.325 87.549 116.325 87.483 116.325 87.417L116.919 83.886C116.952 83.754 117.051 83.655 117.183 83.688C117.315 83.721 117.414 83.82 117.381 83.952L116.853 87.153C120.615 86.46 126.126 85.14 126.753 84.117C126.786 84.051 126.786 83.985 126.786 83.985C126.357 82.632 123.75 83.061 123.717 83.061C123.585 83.094 123.453 82.995 123.453 82.863C123.453 82.731 123.519 82.599 123.651 82.599C123.783 82.566 126.72 82.071 127.248 83.853C127.314 84.018 127.281 84.216 127.182 84.381C126.225 85.932 117.612 87.516 116.622 87.681H116.556Z" fill="#231F20"/>
</svg>
