<svg width="165" height="165" viewBox="0 0 165 165" fill="none" xmlns="http://www.w3.org/2000/svg">
<path opacity="0.02" d="M82.5 146.46C125.563 146.46 160.472 142.891 160.472 138.488C160.472 134.084 125.563 130.515 82.5 130.515C39.437 130.515 4.52759 134.084 4.52759 138.488C4.52759 142.891 39.437 146.46 82.5 146.46Z" fill="#000001"/>
<path d="M74.2896 104.491L70.0425 132.33H97.3533L91.0206 104.491H74.2896Z" fill="#C7D36F"/>
<path d="M18.1302 11.7314H146.867C149.672 11.7314 151.949 14.0084 151.949 16.8134V98.9042H13.0515V16.8101C13.0515 14.0051 15.3285 11.7281 18.1335 11.7281L18.1302 11.7314Z" fill="#24285B"/>
<path d="M21.219 16.2656H143.784C145.84 16.2656 147.507 17.9321 147.507 19.988V89.7434H17.4966V19.988C17.4966 17.9321 19.1631 16.2656 21.219 16.2656Z" fill="white"/>
<path d="M13.0515 89.7434H151.949V104.894C151.949 108.233 149.239 110.943 145.9 110.943H19.1004C15.7608 110.943 13.0515 108.233 13.0515 104.894V89.7434Z" fill="#C7D36F"/>
<path d="M82.5 105.29C85.5709 105.29 88.0605 102.8 88.0605 99.7292C88.0605 96.6582 85.5709 94.1687 82.5 94.1687C79.429 94.1687 76.9395 96.6582 76.9395 99.7292C76.9395 102.8 79.429 105.29 82.5 105.29Z" fill="white"/>
<path opacity="0.08" d="M73.3062 110.943H92.4891L71.8047 120.77L73.3062 110.943Z" fill="#000001"/>
<path d="M109.435 127.581H56.3244C54.2558 127.581 52.5789 129.258 52.5789 131.327V136.046C52.5789 138.114 54.2558 139.791 56.3244 139.791H109.435C111.503 139.791 113.18 138.114 113.18 136.046V131.327C113.18 129.258 111.503 127.581 109.435 127.581Z" fill="#C7D36F"/>
<path opacity="0.6" d="M109.435 127.581H56.3244C54.2558 127.581 52.5789 129.258 52.5789 131.327V136.046C52.5789 138.114 54.2558 139.791 56.3244 139.791H109.435C111.503 139.791 113.18 138.114 113.18 136.046V131.327C113.18 129.258 111.503 127.581 109.435 127.581Z" fill="white"/>
<path d="M140.656 20.1233H24.3441C22.6492 20.1233 21.2751 21.4973 21.2751 23.1923V27.0632C21.2751 28.7582 22.6492 30.1322 24.3441 30.1322H140.656C142.351 30.1322 143.725 28.7582 143.725 27.0632V23.1923C143.725 21.4973 142.351 20.1233 140.656 20.1233Z" fill="#E6E6E6"/>
<path d="M27.5385 27.3965C28.7924 27.3965 29.8089 26.38 29.8089 25.1261C29.8089 23.8722 28.7924 22.8557 27.5385 22.8557C26.2846 22.8557 25.2681 23.8722 25.2681 25.1261C25.2681 26.38 26.2846 27.3965 27.5385 27.3965Z" fill="#24285B"/>
<path d="M34.2903 27.3965C35.5442 27.3965 36.5607 26.38 36.5607 25.1261C36.5607 23.8722 35.5442 22.8557 34.2903 22.8557C33.0364 22.8557 32.0199 23.8722 32.0199 25.1261C32.0199 26.38 33.0364 27.3965 34.2903 27.3965Z" fill="#C7D36F"/>
<path d="M40.6527 27.3965C41.9066 27.3965 42.9231 26.38 42.9231 25.1261C42.9231 23.8722 41.9066 22.8557 40.6527 22.8557C39.3988 22.8557 38.3823 23.8722 38.3823 25.1261C38.3823 26.38 39.3988 27.3965 40.6527 27.3965Z" fill="#FFD200"/>
<path opacity="0.08" d="M127.152 22.859H48.1074C47.3383 22.859 46.7148 23.4825 46.7148 24.2516V26.0039C46.7148 26.773 47.3383 27.3965 48.1074 27.3965H127.152C127.921 27.3965 128.545 26.773 128.545 26.0039V24.2516C128.545 23.4825 127.921 22.859 127.152 22.859Z" fill="#000001"/>
<path opacity="0.02" d="M83.6979 82.698C100.533 82.698 114.18 80.2424 114.18 77.2134C114.18 74.1843 100.533 71.7288 83.6979 71.7288C66.8631 71.7288 53.2158 74.1843 53.2158 77.2134C53.2158 80.2424 66.8631 82.698 83.6979 82.698Z" fill="#000001"/>
<path d="M83.325 59.268C77.0022 59.268 71.8575 54.1233 71.8575 47.8005C71.8575 41.4777 77.0022 36.333 83.325 36.333C89.6478 36.333 94.7925 41.4777 94.7925 47.8005C94.7925 54.1233 89.6478 59.268 83.325 59.268ZM83.325 40.5537C79.3287 40.5537 76.0782 43.8042 76.0782 47.8005C76.0782 51.7968 79.3287 55.0473 83.325 55.0473C87.3213 55.0473 90.5718 51.7968 90.5718 47.8005C90.5718 43.8042 87.3213 40.5537 83.325 40.5537Z" fill="#24285B"/>
<path d="M95.0731 48.6718H72.3064C69.5561 48.6718 67.3267 50.9012 67.3267 53.6515V72.4812C67.3267 75.2315 69.5561 77.4609 72.3064 77.4609H95.0731C97.8233 77.4609 100.053 75.2315 100.053 72.4812V53.6515C100.053 50.9012 97.8233 48.6718 95.0731 48.6718Z" fill="#FFD200"/>
<path d="M87.4269 62.0301C87.4269 59.961 85.7505 58.2812 83.6781 58.2812C81.6057 58.2812 79.9293 59.9577 79.9293 62.0301C79.9293 63.4656 80.7378 64.713 81.9225 65.34L80.586 71.3592H86.7504L85.4139 65.3498C86.6085 64.7228 87.4236 63.4722 87.4236 62.0301H87.4269Z" fill="#24285B"/>
</svg>
