<svg width="436" height="358" viewBox="0 0 436 358" fill="none" xmlns="http://www.w3.org/2000/svg">
<path d="M298.068 93.2367C318.537 85.3586 328.465 61.651 320.241 40.2843C312.018 18.9176 288.758 7.98284 268.288 15.8609C247.819 23.739 237.891 47.4467 246.115 68.8134C254.338 90.1801 277.598 101.115 298.068 93.2367Z" fill="#3E2928"/>
<path d="M294.934 94.5247C314.45 87.0135 323.604 63.6033 315.381 42.2366C307.157 20.8699 284.67 9.63769 265.154 17.1489C245.638 24.66 236.483 48.0702 244.707 69.4369C252.93 90.8037 275.417 102.036 294.934 94.5247Z" fill="#C7D36F"/>
<path d="M234.538 46.9168L282.083 55.7296L257.93 11.7744C258.038 11.7744 237.04 22.0016 234.538 46.9168Z" fill="#FF8F6F"/>
<path opacity="0.24" d="M282.083 55.7296L317.77 51.16C317.77 51.16 317.117 30.8144 294.051 18.52C283.933 13.4064 271.965 13.4064 261.846 18.52L282.083 55.7296Z" fill="#3E2928"/>
<path d="M0 197.061L276.243 357.214L426.931 270.283L151.885 111L0 197.061Z" fill="#EFDDD8"/>
<path d="M194.282 78.6865V133.739L97.4496 190.098V125.253L194.282 78.6865Z" fill="#FFC050"/>
<path d="M54.6912 164.421V108.715L97.4496 133.413V190.098" fill="#C7D36F"/>
<path d="M97.4496 190.098V133.413L54.6912 108.715V164.421L97.4496 190.098Z" fill="#146666"/>
<path d="M97.0144 133.957L54.3648 109.368L153.917 52.792L194.282 78.6864L97.0144 133.957Z" fill="white"/>
<path d="M147.933 54.8593C141.514 54.3153 134.768 52.3569 130.09 48.0049V66.9361C130.09 77.8161 138.902 86.6289 149.674 86.6289C160.554 86.6289 169.366 77.8161 169.366 66.9361V47.6785C162.621 50.3985 155.005 55.5121 147.933 54.8593Z" fill="#2C9390"/>
<path d="M149.674 58.3408C160.55 58.3408 169.366 53.6645 169.366 47.896C169.366 42.1275 160.55 37.4512 149.674 37.4512C138.798 37.4512 129.981 42.1275 129.981 47.896C129.981 53.6645 138.798 58.3408 149.674 58.3408Z" fill="#2C9390"/>
<path d="M149.674 49.6367C149.674 49.6367 136.291 47.6783 132.701 26.0271C132.81 26.0271 144.234 32.3375 149.674 49.6367Z" fill="#2C9390"/>
<path d="M151.741 46.9168C151.741 46.9168 136.4 19.3904 151.741 0.894409C156.419 15.9088 156.419 31.9024 151.741 46.9168Z" fill="#2C9390"/>
<path d="M149.674 29.6177C149.674 29.6177 136.4 27.6593 132.701 6.00806C132.81 6.00806 144.234 12.3185 149.674 29.6177Z" fill="#2C9390"/>
<path d="M151.306 38.4305C151.306 38.4305 147.933 25.3745 166.538 13.7329C166.538 13.7329 165.123 26.6801 151.306 38.4305Z" fill="#2C9390"/>
<path d="M149.674 58.3408C160.55 58.3408 169.366 53.6645 169.366 47.896C169.366 42.1275 160.55 37.4512 149.674 37.4512C138.798 37.4512 129.981 42.1275 129.981 47.896C129.981 53.6645 138.798 58.3408 149.674 58.3408Z" fill="#3E2928"/>
<path d="M149.674 49.6367C149.674 49.6367 136.291 47.6783 132.701 26.0271C132.81 26.0271 144.234 32.3375 149.674 49.6367Z" fill="#2C9390"/>
<path d="M151.741 46.9168C151.741 46.9168 136.4 19.3904 151.741 0.894409C156.419 15.9088 156.419 31.9024 151.741 46.9168Z" fill="#2C9390"/>
<path d="M149.674 29.6177C149.674 29.6177 136.4 27.6593 132.701 6.00806C132.81 6.00806 144.234 12.3185 149.674 29.6177Z" fill="#2C9390"/>
<path d="M151.306 38.4305C151.306 38.4305 147.933 25.3745 166.538 13.7329C166.538 13.7329 165.123 26.6801 151.306 38.4305Z" fill="#2C9390"/>
<path d="M129.654 95.7681V101.426H125.411L128.566 96.9649L129.654 95.7681Z" fill="#EA8B24"/>
<path d="M129.654 85.1055V90.6543H125.411L128.566 86.1935L129.654 85.1055Z" fill="#EA8B24"/>
<path d="M116.598 76.8367V82.4943H112.355L115.51 77.9247L116.598 76.8367Z" fill="#EA8B24"/>
<path d="M96.3616 120.901C114.749 120.901 129.654 112.181 129.654 101.426C129.654 90.6698 114.749 81.9504 96.3616 81.9504C77.9745 81.9504 63.0688 90.6698 63.0688 101.426C63.0688 112.181 77.9745 120.901 96.3616 120.901Z" fill="#EA8B24"/>
<path d="M62.96 101.426V95.7681L66.6592 100.338L62.96 101.426Z" fill="#EA8B24"/>
<path d="M96.3616 115.243C114.749 115.243 129.654 106.524 129.654 95.7679C129.654 85.0121 114.749 76.2927 96.3616 76.2927C77.9745 76.2927 63.0688 85.0121 63.0688 95.7679C63.0688 106.524 77.9745 115.243 96.3616 115.243Z" fill="#FFC050"/>
<path d="M113.226 93.1567C113.443 93.5919 113.552 94.1359 113.443 94.6799L113.334 95.2239H107.242C107.242 95.0063 107.35 94.8975 107.35 94.6799C107.35 94.2447 107.242 93.9183 107.024 93.5919C106.698 93.0479 106.154 92.5039 105.501 92.2863C104.63 91.8511 103.651 91.5247 102.672 91.5247C101.802 91.4159 100.822 91.6335 99.952 91.9599C99.0816 92.2863 98.7552 92.8303 98.9728 93.3743C99.2992 94.1359 99.7344 94.7887 100.278 95.3327C100.931 95.9855 101.584 96.7471 102.128 97.3999C102.672 98.0527 102.781 98.9231 102.454 99.7935C101.802 100.882 100.714 101.752 99.5168 102.078C97.4496 102.949 95.2736 103.384 93.0976 103.384C90.704 103.493 88.3104 103.166 86.0256 102.405L82.544 103.928L78.4096 101.97L81.7824 100.446C81.1296 100.011 80.5856 99.4671 80.1504 98.9231C79.824 98.4879 79.4976 98.0527 79.3888 97.6175C79.28 97.2911 79.1712 96.8559 79.1712 96.5295C79.1712 96.3119 79.1712 95.9855 79.1712 95.7679L79.28 95.4415H85.3728C85.264 95.6591 85.264 95.8767 85.264 96.0943C85.264 96.6383 85.4816 97.0735 85.6992 97.5087C86.1344 98.2703 86.896 98.9231 87.7664 99.2495C88.8544 99.7935 90.0512 100.12 91.248 100.12C92.336 100.229 93.424 100.011 94.512 99.5759C95.3824 99.2495 95.7088 98.7055 95.4912 98.1615C95.1648 97.3999 94.7296 96.7471 94.1856 96.2031C93.5328 95.5503 92.88 94.8975 92.336 94.1359C91.792 93.4831 91.6832 92.5039 92.1184 91.7423C92.7712 90.6543 93.8592 89.7839 95.1648 89.3487C97.1232 88.5871 99.1904 88.1519 101.366 88.1519C103.651 88.0431 105.827 88.3695 108.003 89.1311L111.485 87.6079L115.293 89.6751L111.811 91.1983C112.246 91.7423 112.899 92.3951 113.226 93.1567Z" fill="#EA8B24"/>
<path d="M96.3616 116.984C78.0832 116.984 63.8304 107.736 63.8304 95.9855C63.8304 84.2351 78.0832 74.9871 96.3616 74.9871C114.64 74.9871 128.893 84.2351 128.893 95.9855C128.893 107.736 114.64 116.984 96.3616 116.984ZM96.3616 84.2351C82.544 84.2351 72.9696 90.4367 72.9696 96.0943C72.9696 101.752 82.544 107.953 96.3616 107.953C110.179 107.953 119.754 101.752 119.754 96.0943C119.754 90.4367 110.179 84.2351 96.3616 84.2351Z" fill="#EA8B24"/>
<path d="M96.3616 110.13C114.749 110.13 129.654 101.41 129.654 90.6544C129.654 79.8986 114.749 71.1792 96.3616 71.1792C77.9745 71.1792 63.0688 79.8986 63.0688 90.6544C63.0688 101.41 77.9745 110.13 96.3616 110.13Z" fill="#EA8B24"/>
<path d="M62.96 90.6543V85.1055L66.6592 89.5663L62.96 90.6543Z" fill="#EA8B24"/>
<path d="M96.3616 104.581C114.749 104.581 129.654 95.8614 129.654 85.1056C129.654 74.3497 114.749 65.6304 96.3616 65.6304C77.9745 65.6304 63.0688 74.3497 63.0688 85.1056C63.0688 95.8614 77.9745 104.581 96.3616 104.581Z" fill="#FFC050"/>
<path d="M113.226 82.3855C113.443 82.8207 113.552 83.3647 113.443 83.9087L113.334 84.4527H107.242C107.242 84.2351 107.35 84.1263 107.35 83.9087C107.35 83.4735 107.242 83.1471 107.024 82.8207C106.698 82.2767 106.154 81.7327 105.501 81.5151C104.63 81.0799 103.651 80.7535 102.672 80.7535C101.802 80.6447 100.822 80.8623 99.952 81.1887C99.0816 81.5151 98.7552 82.0591 98.9728 82.6031C99.2992 83.3647 99.7344 84.0175 100.278 84.5615C100.931 85.2143 101.584 85.9759 102.128 86.6287C102.672 87.2815 102.781 88.1519 102.454 89.0223C101.802 90.1103 100.714 90.9807 99.5168 91.3071C97.4496 92.1775 95.2736 92.6127 93.0976 92.6127C90.704 92.7215 88.3104 92.3951 86.0256 91.6335L82.544 93.1567L78.4096 91.1983L81.7824 89.6751C81.1296 89.2399 80.5856 88.6959 80.1504 88.1519C79.824 87.7167 79.4976 87.2815 79.3888 86.8463C79.28 86.5199 79.1712 86.0847 79.1712 85.7583C79.1712 85.5407 79.1712 85.2143 79.1712 84.9967L79.28 84.6703H85.3728C85.264 84.8879 85.264 85.1055 85.264 85.3231C85.264 85.8671 85.4816 86.3023 85.6992 86.7375C86.1344 87.4991 86.896 88.0431 87.7664 88.4783C88.8544 89.0223 90.0512 89.3487 91.248 89.3487C92.336 89.4575 93.424 89.2399 94.512 88.8047C95.3824 88.4783 95.7088 87.9343 95.4912 87.3903C95.1648 86.6287 94.7296 85.9759 94.1856 85.4319C93.5328 84.7791 92.88 84.0175 92.336 83.3647C91.792 82.7119 91.6832 81.7327 92.1184 80.9711C92.88 79.8831 93.8592 79.0127 95.1648 78.5775C97.1232 77.8159 99.1904 77.3807 101.366 77.3807C103.651 77.2719 105.827 77.5983 108.003 78.3599L111.485 76.8367L115.402 78.9039L111.92 80.4271C112.246 80.9711 112.899 81.6239 113.226 82.3855Z" fill="#EA8B24"/>
<path d="M96.3616 103.166C79.824 103.166 66.8768 95.3329 66.8768 85.2145C66.8768 75.0961 79.824 67.2625 96.3616 67.2625C112.899 67.2625 125.846 75.0961 125.846 85.2145C125.846 95.3329 112.899 103.166 96.3616 103.166ZM96.3616 70.4176C81.7824 70.4176 69.9232 77.0544 69.9232 85.3232C69.9232 93.592 81.7824 100.229 96.3616 100.229C110.941 100.229 122.8 93.592 122.8 85.3232C122.8 77.0544 110.941 70.4176 96.3616 70.4176Z" fill="#EA8B24"/>
<path d="M83.3056 101.969C101.693 101.969 116.598 93.2501 116.598 82.4943C116.598 71.7384 101.693 63.019 83.3056 63.019C64.9185 63.019 50.0128 71.7384 50.0128 82.4943C50.0128 93.2501 64.9185 101.969 83.3056 101.969Z" fill="#EA8B24"/>
<path d="M50.0128 82.4943V76.8367L53.6032 81.2975L50.0128 82.4943Z" fill="#EA8B24"/>
<path d="M83.3056 96.312C101.693 96.312 116.598 87.5926 116.598 76.8368C116.598 66.0809 101.693 57.3616 83.3056 57.3616C64.9185 57.3616 50.0128 66.0809 50.0128 76.8368C50.0128 87.5926 64.9185 96.312 83.3056 96.312Z" fill="#FFC050"/>
<path d="M100.17 74.2255C100.387 74.6607 100.496 75.2048 100.387 75.7488L100.278 76.2928H94.1856C94.1856 76.0752 94.2944 75.9664 94.2944 75.7488C94.2944 75.3136 94.1856 74.9872 93.968 74.6608C93.6416 74.1168 93.0976 73.5727 92.4448 73.3551C91.5744 72.9199 90.5952 72.7023 89.616 72.5935C88.7456 72.4847 87.7664 72.7024 86.896 73.0288C86.0256 73.3552 85.6992 73.8991 85.9168 74.4431C86.2432 75.2047 86.6784 75.8575 87.2224 76.4015C87.8752 77.0543 88.528 77.816 89.072 78.4688C89.616 79.1216 89.7248 79.9919 89.3984 80.7535C88.7456 81.8415 87.7664 82.7119 86.5696 83.1471C84.5024 84.0175 82.3264 84.4528 80.1504 84.4528C77.7568 84.5616 75.3632 84.2351 73.0784 83.4735L69.5968 84.9968L65.4624 83.0384L68.8352 81.5151C68.1824 81.0799 67.6384 80.536 67.2032 79.992C66.8768 79.5568 66.5504 79.1216 66.4416 78.6864C66.3328 78.36 66.224 77.9248 66.224 77.5984C66.224 77.3808 66.224 77.0544 66.224 76.8368L66.3328 76.5104H72.4256C72.3168 76.728 72.3168 76.9455 72.3168 77.1631C72.3168 77.7071 72.5344 78.1423 72.752 78.5775C73.1872 79.3391 73.9488 79.992 74.7104 80.3184C75.7984 80.8624 76.9952 81.1888 78.192 81.1888C79.28 81.2976 80.368 81.08 81.456 80.6448C82.3264 80.3184 82.6528 79.7744 82.4352 79.2304C82.1088 78.4688 81.6736 77.816 81.1296 77.272C80.4768 76.6192 79.824 75.9664 79.28 75.2048C78.736 74.552 78.6272 73.5727 79.0624 72.8111C79.824 71.7231 80.8032 70.8527 82.1088 70.4175C84.0672 69.6559 86.1344 69.2208 88.3104 69.2208C90.5952 69.112 92.7712 69.4384 94.9472 70.2L98.4288 68.6768L102.237 70.744L98.7552 72.2671C99.2992 72.8111 99.8432 73.4639 100.17 74.2255Z" fill="#EA8B24"/>
<path d="M83.3056 95.0063C66.768 95.0063 53.8208 87.1727 53.8208 77.0543C53.8208 66.9359 66.768 59.1023 83.3056 59.1023C99.8432 59.1023 112.79 66.9359 112.79 77.0543C112.79 87.1727 99.8432 95.0063 83.3056 95.0063ZM83.3056 62.1487C68.7264 62.1487 56.8672 68.7855 56.8672 77.0543C56.8672 85.3231 68.7264 91.9599 83.3056 91.9599C97.8848 91.9599 109.744 85.3231 109.744 77.0543C109.744 68.7855 97.9936 62.1487 83.3056 62.1487Z" fill="#EA8B24"/>
<path d="M112.682 192.491L152.285 168.991C153.917 168.011 155.984 168.011 157.616 168.991L188.95 187.595C191.453 189.01 192.214 192.274 190.8 194.667C190.365 195.429 189.712 196.082 188.842 196.517L150.979 217.95C149.347 218.821 147.498 218.821 145.866 217.95L112.79 199.346C110.832 198.258 110.179 195.864 111.267 193.906C111.594 193.362 112.138 192.818 112.682 192.491Z" fill="#146666"/>
<path d="M110.723 195.864V189.336L115.293 190.75L113.878 195.973L110.723 195.864Z" fill="#146666"/>
<path d="M191.453 191.512V185.528L187.645 187.269L189.494 190.75L191.453 191.512Z" fill="#146666"/>
<path d="M112.681 185.963L152.285 162.462C153.917 161.483 155.984 161.483 157.616 162.462L188.95 181.067C191.453 182.482 192.214 185.746 190.8 188.139C190.365 188.901 189.712 189.554 188.841 189.989L150.979 211.422C149.347 212.293 147.497 212.293 145.865 211.422L112.79 192.818C110.941 191.73 110.288 189.336 111.267 187.378C111.702 186.725 112.137 186.29 112.681 185.963Z" fill="#2C9390"/>
<path d="M146.627 177.694L150.979 175.845L160.445 193.906L155.984 195.864L146.627 177.694Z" fill="white"/>
<path d="M168.278 182.264C170.346 182.264 172.304 182.59 174.154 183.352C175.677 184.005 176.438 184.875 176.438 185.963C176.438 187.051 175.568 187.922 173.936 188.574C170.019 189.989 165.776 189.88 161.968 188.466C160.445 187.813 159.683 186.942 159.683 185.854C159.683 184.766 160.445 183.896 162.186 183.243C164.144 182.482 166.211 182.155 168.278 182.264ZM171.651 185.963C171.651 185.528 171.325 185.202 170.563 184.875C168.931 184.222 167.19 184.222 165.558 184.766C164.906 185.093 164.47 185.419 164.47 185.854C164.47 186.29 164.797 186.616 165.558 186.942C167.19 187.595 168.931 187.595 170.563 187.051C171.325 186.834 171.651 186.398 171.651 185.963Z" fill="white"/>
<path d="M147.389 185.746C147.389 186.834 146.518 187.704 144.886 188.357C140.97 189.771 136.726 189.662 132.918 188.248C131.395 187.595 130.634 186.725 130.525 185.637C130.416 184.549 131.395 183.678 133.027 183.026C136.944 181.611 141.187 181.72 144.995 183.134C146.518 183.896 147.389 184.766 147.389 185.746ZM136.4 186.725C137.162 187.051 138.032 187.269 138.902 187.269C139.773 187.269 140.643 187.16 141.405 186.834C142.166 186.507 142.493 186.181 142.493 185.746C142.493 185.31 142.166 184.984 141.405 184.658C139.773 184.005 138.032 184.005 136.4 184.549C135.747 184.875 135.312 185.202 135.312 185.637C135.312 186.072 135.638 186.507 136.4 186.725Z" fill="white"/>
<path d="M367.926 39.0833C361.616 39.4097 355.414 40.9329 349.648 43.4353C340.509 47.5697 367.926 55.0769 367.926 55.0769" fill="#EA8B24"/>
<path d="M381.363 99.4378C396.228 94.2519 403.673 76.8479 397.992 60.5648C392.312 44.2817 375.656 35.2855 360.792 40.4713C345.927 45.6571 338.482 63.0612 344.162 79.3443C349.843 95.6274 366.498 104.624 381.363 99.4378Z" fill="#EA8B24"/>
<path d="M372.795 101.417C387.66 96.231 395.105 78.8269 389.424 62.5438C383.744 46.2607 367.088 37.2645 352.224 42.4503C337.359 47.6362 329.914 65.0402 335.594 81.3233C341.275 97.6064 357.93 106.603 372.795 101.417Z" fill="#FFC050"/>
<path d="M364.01 99.7935C353.021 99.7935 342.358 92.1775 338.224 80.3183C335.722 73.4639 335.939 65.8479 338.768 59.1023C343.773 46.6991 358.026 40.7151 370.429 45.7199C371.408 46.1551 372.387 46.5903 373.258 47.1343C386.531 54.5327 392.08 70.6351 386.314 84.6703C383.702 91.0895 378.371 96.2031 371.843 98.4879C369.232 99.3583 366.621 99.7935 364.01 99.7935ZM361.072 45.5023C358.57 45.5023 356.067 45.9375 353.674 46.8079C347.472 48.9839 342.576 53.7711 340.074 59.7551C337.354 66.1743 337.245 73.3551 339.53 79.8831C344.426 93.8095 358.57 101.426 371.19 97.0735C377.392 94.8975 382.288 90.1103 384.79 84.1263C390.23 70.8527 384.899 55.5119 372.387 48.5487C369.014 46.4815 365.098 45.5023 361.072 45.5023Z" fill="#EA8B24"/>
<path d="M368.47 57.1439C369.341 57.5791 370.102 58.0143 370.755 58.6671L371.408 59.3199L367.709 63.2367C367.6 63.0191 367.274 62.8015 367.056 62.5839C366.512 62.1487 365.859 61.8223 365.206 61.4959C364.336 61.0607 363.357 60.8431 362.378 60.8431C361.398 60.8431 360.31 61.1695 359.549 61.7135C358.896 62.2575 358.461 63.0191 358.461 63.8895C358.461 64.8687 359.114 65.7391 359.984 66.1743C361.072 66.8271 362.269 67.3711 363.466 67.6975C364.88 68.1327 366.186 68.5679 367.6 69.1119C369.014 69.6559 370.211 70.5263 371.19 71.7231C372.17 73.0287 372.714 74.6607 372.714 76.4015C372.714 78.4687 372.061 80.4271 370.646 82.0591C369.123 83.6911 367.165 84.7791 364.989 85.1055V89.0223H359.658V85.2143C358.57 85.1055 357.59 84.7791 356.611 84.4527C355.741 84.1263 354.979 83.7999 354.218 83.2559C353.674 82.9295 353.021 82.4943 352.477 82.0591C352.042 81.7327 351.715 81.4063 351.389 81.0799L351.062 80.6447L354.653 76.9455C354.87 77.1631 355.088 77.3807 355.414 77.8159C356.067 78.3599 356.829 78.7951 357.699 79.1215C358.896 79.6655 360.093 79.9919 361.398 79.9919C362.595 80.1007 363.901 79.6655 364.88 78.9039C365.642 78.2511 366.186 77.2719 366.077 76.2927C366.077 75.3135 365.424 74.4431 364.554 74.0079C363.466 73.3551 362.269 72.8111 361.072 72.4847C359.658 72.0495 358.243 71.6143 356.938 71.0703C355.523 70.5263 354.326 69.6559 353.456 68.4591C352.477 67.1535 351.933 65.5215 351.933 63.7807C351.933 61.8223 352.803 59.9727 354.109 58.6671C355.523 57.0351 357.482 56.0559 359.658 55.7295V51.8127H364.989V55.7295C366.186 56.0559 367.382 56.4911 368.47 57.1439Z" fill="#EA8B24"/>
<path d="M374.563 197.822L386.966 204.894V151.147L396.758 156.805L381.418 121.118L365.098 139.397L374.998 144.837L374.563 197.822Z" fill="#2C9390"/>
<path d="M413.296 221.758L425.808 228.613V131.781L435.6 137.438L420.259 101.752L403.939 120.03L413.84 125.47L413.296 221.758Z" fill="#2C9390"/>
<path opacity="0.53" d="M300.579 260.383L370.864 254.29C370.864 254.29 377.174 259.947 375.978 261.797L300.579 268.216C300.579 268.216 297.968 261.906 300.579 260.383Z" fill="white"/>
<path opacity="0.53" d="M303.299 273.982L377.283 268.216L375.107 271.045L305.693 277.029L303.299 273.982Z" fill="white"/>
<path d="M337.571 294.546C311.133 294.546 290.461 280.837 290.461 263.429C290.461 246.021 311.133 232.421 337.571 232.421C364.01 232.421 384.682 246.13 384.682 263.538C384.682 280.946 363.901 294.546 337.571 294.546ZM337.571 242.974C317.77 242.974 301.123 252.331 301.123 263.429C301.123 274.526 317.878 283.883 337.571 283.883C357.264 283.883 374.019 274.526 374.019 263.429C374.019 252.331 357.264 243.083 337.571 242.974Z" fill="#C7D36F"/>
<path d="M300.144 275.179L242.045 309.669C233.667 314.674 241.283 327.838 249.661 322.834L307.76 288.344C316.246 283.339 308.522 270.174 300.144 275.179Z" fill="#C7D36F"/>
<g opacity="0.24">
<path d="M337.571 294.546C311.133 294.546 290.461 280.837 290.461 263.429C290.461 246.021 311.133 232.421 337.571 232.421C364.01 232.421 384.682 246.13 384.682 263.538C384.682 280.946 363.901 294.546 337.571 294.546ZM337.571 242.974C317.77 242.974 301.123 252.331 301.123 263.429C301.123 274.526 317.878 283.883 337.571 283.883C357.264 283.883 374.019 274.526 374.019 263.429C374.019 252.331 357.264 243.083 337.571 242.974Z" fill="#3E2928"/>
<path d="M300.144 275.179L242.045 309.669C233.667 314.674 241.283 327.838 249.661 322.834L307.76 288.344C316.246 283.339 308.522 270.174 300.144 275.179Z" fill="#3E2928"/>
</g>
<path d="M217.238 80.2097C211.146 85.4321 206.576 92.1777 203.856 99.7937C199.178 112.741 210.819 133.848 210.819 133.848L229.098 119.487" fill="#FF8F6F"/>
<path d="M215.28 251.352L210.275 248.632L211.472 241.56C211.472 241.56 218.87 242.213 219.523 244.824" fill="#3E2928"/>
<path d="M217.13 251.243C218.218 250.591 219.414 249.938 220.502 249.285C223.331 247.762 227.466 246.13 229.206 243.192C229.968 241.995 229.859 240.472 228.989 239.384C226.378 236.229 220.72 241.451 217.782 237.861C217.238 237.208 216.912 226.328 216.912 226.328L205.923 229.375C205.923 229.375 204.074 251.243 204.291 252.658C204.509 254.072 208.317 255.269 208.317 255.269C209.405 255.051 210.493 254.616 211.472 254.072C212.669 253.202 211.581 242.975 212.995 244.389C214.41 245.803 215.062 251.461 215.062 251.461C215.824 251.352 216.477 251.352 217.13 251.243Z" fill="#2C9390"/>
<path d="M236.387 261.906L231.491 259.186L232.688 252.114C232.688 252.114 240.086 252.767 240.739 255.378" fill="#3E2928"/>
<path d="M238.237 261.797C239.325 261.144 240.522 260.491 241.61 259.839C244.438 258.315 248.573 256.683 250.314 253.746C251.075 252.549 250.966 251.026 250.096 249.938C247.485 246.783 241.827 252.005 238.89 248.415C238.346 247.762 238.019 236.882 238.019 236.882L227.03 239.928C227.03 239.928 225.181 261.797 225.398 263.211C225.616 264.626 229.424 265.823 229.424 265.823C230.512 265.605 231.6 265.17 232.579 264.626C233.776 263.755 232.688 253.528 234.102 254.943C235.517 256.357 236.17 262.015 236.17 262.015C236.931 262.015 237.584 261.906 238.237 261.797Z" fill="#2C9390"/>
<path d="M200.483 190.75L197.328 234.162C197.328 234.162 202.55 241.343 219.85 237.317L219.958 208.05" fill="#3E2928"/>
<path d="M220.502 199.346C220.067 203.045 220.502 244.389 220.502 244.389C220.502 244.389 225.29 253.419 246.179 244.389L245.853 209.355" fill="#3E2928"/>
<path d="M202.224 201.957C207.664 205.112 213.43 207.723 219.414 209.573H219.523C220.067 209.355 220.829 209.573 221.046 210.117C224.746 211.205 228.445 212.075 232.253 212.728C237.149 213.49 241.174 209.899 246.179 209.682C246.179 190.533 246.288 135.807 238.128 124.383L213.974 116.331C213.866 118.29 202.224 131.781 202.55 148.21C202.768 162.789 202.006 177.368 200.374 191.838" fill="#3E2928"/>
<path d="M240.304 102.079L238.128 124.056C238.128 124.056 220.067 124.818 212.342 119.487V100.773" fill="#FF8F6F"/>
<path d="M263.37 87.6081L261.52 90.1105C262.499 88.0433 263.37 85.9761 264.131 83.8001C264.675 82.2769 262.282 81.7328 261.846 83.1472L261.52 83.9089C261.738 83.1473 261.955 82.3856 262.173 81.5152C262.282 80.8624 261.955 80.2097 261.302 79.9921C260.65 79.8833 259.997 80.2097 259.779 80.8625C259.235 82.9297 258.691 84.8881 257.93 86.8465C258.365 85.1057 258.582 83.3648 258.8 81.5152C258.909 79.992 256.515 79.992 256.406 81.5152C256.189 83.5824 255.862 85.6497 255.318 87.6081C255.318 86.9553 255.21 86.1937 255.101 85.5409C255.101 85.2145 254.883 84.8881 254.557 84.6705C254.557 84.3441 254.448 84.1265 254.339 83.9089C254.122 83.2561 253.36 82.9296 252.816 83.1472C252.381 83.3648 252.054 83.6912 252.054 84.2352L251.946 93.3745C251.51 94.3537 250.966 95.2241 250.205 95.9857C251.402 96.8561 252.49 97.7265 253.578 98.5969C254.557 99.4673 255.427 100.338 256.298 101.208C257.059 100.229 257.821 99.2497 258.582 98.2705C258.691 98.1617 258.691 98.1617 258.8 98.0529C260.976 94.8977 263.152 91.7425 265.437 88.6961C266.307 87.6081 264.24 86.4113 263.37 87.6081Z" fill="#FFB5A9"/>
<path d="M228.989 82.0593C228.989 82.0593 237.475 84.3441 240.957 89.8929C243.133 93.7009 244.982 97.6177 246.614 101.643L252.925 91.8513C252.925 91.8513 260.541 94.2449 263.587 97.9441C263.587 97.9441 254.448 117.746 246.614 119.487C238.781 121.227 230.294 107.736 230.294 107.736C230.294 107.736 228.554 113.285 228.88 107.301" fill="#FF8F6F"/>
<path d="M234.32 103.167C231.818 101.208 229.968 98.5969 228.88 95.5505C227.901 92.0689 229.098 89.0225 230.403 85.7585C231.709 82.4945 232.362 79.1217 232.579 75.7489C232.688 72.3761 232.253 69.0033 232.035 65.6305C232.035 65.5217 232.035 65.3041 232.035 65.1953C230.947 61.3873 228.554 58.1233 223.984 57.7969C212.125 56.8177 211.363 69.9825 211.472 75.3137C211.581 80.6449 212.125 84.2353 208.208 86.5201C204.291 88.8049 201.462 94.5713 205.162 99.3585C208.861 104.146 205.597 102.405 203.094 106.539C200.592 110.674 201.245 116.005 206.358 117.963C211.472 119.922 235.408 116.331 237.693 114.047C238.454 113.176 238.89 111.979 238.781 110.783C238.237 107.845 236.605 105.125 234.32 103.167Z" fill="#146666"/>
</svg>
